<svg width="400" height="243" viewBox="0 0 400 243" fill="none" xmlns="http://www.w3.org/2000/svg">
<path fill-rule="evenodd" clip-rule="evenodd" d="M112.609 133.983C84.4649 140.066 74.7041 147.711 73.6338 161.319C72.4073 176.9 77.7724 199.035 91.2363 216.445C94.3198 220.433 98.569 222.408 103.294 223.187C109.402 224.194 117.791 224.415 124.449 223.187C131.766 221.63 138.894 219.776 142.488 214.693C145.869 209.909 149.16 201.821 153.267 187.674C153.908 185.463 156.758 174.77 157.254 160.2C157.748 145.728 151.613 136.599 141.864 132.751C134.855 129.983 119.997 132.388 112.609 133.983Z" fill="white"/>
<path fill-rule="evenodd" clip-rule="evenodd" d="M99.3258 172.248L94.1213 202.963C94.1213 202.963 97.1956 204.581 101.284 206.741C107.877 210.225 127.053 209.989 133.544 201.624L138.377 175.988L100.743 167.605" fill="#DBE3FF"/>
<path fill-rule="evenodd" clip-rule="evenodd" d="M125.995 131.866L128.562 134.725C81.4528 142.771 78.1033 161.765 80.4978 176.861C83.8271 197.852 91.2146 215.829 104.198 223.338C103.891 223.293 103.591 223.246 103.295 223.196C98.5694 222.417 94.321 220.442 91.2364 216.455C77.7731 199.044 72.4077 176.91 73.6337 161.329C74.704 147.721 84.4658 140.076 112.611 133.994C115.995 133.262 120.947 132.361 125.995 131.866Z" fill="#EEF1FF"/>
<path fill-rule="evenodd" clip-rule="evenodd" d="M114.846 133.522C121.169 133.637 130.937 135.698 134.999 146.568C140.958 155.998 148.306 160.536 157.097 163.345C157.158 162.318 157.206 161.27 157.244 160.201C157.738 145.73 151.603 136.6 141.853 132.751C135.497 130.241 122.688 131.984 114.846 133.522Z" fill="#DBE3FF"/>
<path fill-rule="evenodd" clip-rule="evenodd" d="M153.686 135.21L129.392 128.897C123.966 126.62 126.674 119.559 131.346 120.692C131.346 120.692 147.191 124.689 151.653 125.074L153.686 135.21Z" fill="white"/>
<path fill-rule="evenodd" clip-rule="evenodd" d="M141.804 127.926L139.394 131.508L129.391 128.909C127.052 127.926 126.225 126.055 126.415 124.335L141.804 127.926Z" fill="#DAE0FF"/>
<path d="M300.291 237.356C289.047 237.356 279.931 235.547 279.931 233.315C279.931 231.082 289.047 229.273 300.291 229.273C311.535 229.273 320.651 231.082 320.651 233.315C320.651 235.547 311.535 237.356 300.291 237.356Z" fill="#FFDE16"/>
<path d="M31.044 182.758C48.1891 182.758 62.0879 168.632 62.0879 151.207C62.0879 133.783 48.1891 119.657 31.044 119.657C13.8989 119.657 0 133.783 0 151.207C0 168.632 13.8989 182.758 31.044 182.758Z" fill="#FFF6C4"/>
<path fill-rule="evenodd" clip-rule="evenodd" d="M5.24436 133.692C-4.83369 156.004 9.17462 188.597 46.8991 178.361C42.2581 181.172 36.8353 182.786 31.0441 182.786C13.9103 182.786 0 168.649 0 151.235C0 144.747 1.93227 138.711 5.24436 133.692Z" fill="#FFF09A"/>
<path fill-rule="evenodd" clip-rule="evenodd" d="M367.718 5.32023C367.718 2.38326 365.337 0 362.399 0C334.17 0 202.138 0 173.909 0C170.971 0 168.588 2.38326 168.588 5.32023C168.588 33.1107 168.588 161.385 168.588 189.176C168.588 192.115 170.971 194.496 173.909 194.496C202.138 194.496 334.17 194.496 362.399 194.496C365.337 194.496 367.718 192.115 367.718 189.176C367.718 161.385 367.718 33.1107 367.718 5.32023Z" fill="#E7EEFE"/>
<path fill-rule="evenodd" clip-rule="evenodd" d="M277.389 194.504V190.106C277.388 190.1 277.388 190.093 277.388 190.089C277.177 186.649 304.765 185.255 313.494 187.077C314.142 187.227 314.822 187.079 315.351 186.674C315.879 186.269 316.196 185.649 316.218 184.983C316.26 183.913 316.301 182.707 316.34 181.534C316.458 178.001 319.152 175.089 322.666 174.698C331.567 173.712 349.671 173.924 357.169 176.027C358.75 176.47 359.843 177.911 359.843 179.553C359.844 182.731 359.844 188.517 359.846 194.504H277.389ZM367.705 106.652C367.461 106.659 367.213 106.662 366.965 106.662C349.528 106.662 335.371 92.5051 335.371 75.0676C335.371 57.63 349.528 43.4735 366.965 43.4735C367.213 43.4735 367.461 43.4765 367.705 43.4821V106.652Z" fill="#CFDBFF"/>
<path fill-rule="evenodd" clip-rule="evenodd" d="M367.718 5.32001C367.718 2.38184 365.337 0 362.399 0C334.17 0 202.138 0 173.909 0C170.971 0 168.588 2.38184 168.588 5.32001C168.588 8.61043 168.588 12.2104 168.588 12.2104H367.718V5.32001Z" fill="#CEE2FE"/>
<path d="M225.342 133.692H204.874V159.649H225.342V133.692Z" fill="#ABE6F0"/>
<path d="M250.635 119.543H230.167V159.674H250.635V119.543Z" fill="#ABE6F0"/>
<path d="M275.909 105.09H255.441V159.654H275.909V105.09Z" fill="#ABE6F0"/>
<path d="M301.202 88.2403H280.734V159.679H301.202V88.2403Z" fill="#ABE6F0"/>
<path d="M326.476 98.5097H306.008V159.668H326.476V98.5097Z" fill="#ABE6F0"/>
<path fill-rule="evenodd" clip-rule="evenodd" d="M195.384 75.9299V167.207C195.384 167.509 195.629 167.752 195.928 167.752H333.956C334.257 167.752 334.502 167.509 334.502 167.207C334.502 166.907 334.257 166.662 333.956 166.662H196.474C196.474 159.123 196.474 75.9299 196.474 75.9299C196.474 75.6292 196.23 75.3846 195.928 75.3846C195.629 75.3846 195.384 75.6292 195.384 75.9299Z" fill="#C8D2FF"/>
<path d="M365.46 99.2544C381.123 99.2544 393.82 86.3502 393.82 70.4321C393.82 54.5141 381.123 41.6099 365.46 41.6099C349.798 41.6099 337.101 54.5141 337.101 70.4321C337.101 86.3502 349.798 99.2544 365.46 99.2544Z" fill="#DFD1FF"/>
<path fill-rule="evenodd" clip-rule="evenodd" d="M346.386 91.7407C346.383 91.6147 346.381 91.4886 346.381 91.3609C346.381 80.6546 354.935 71.9615 365.47 71.9615C376.006 71.9615 384.558 80.6546 384.558 91.3609C384.558 91.4886 384.558 91.6147 384.555 91.7407C379.515 96.4057 372.817 99.2525 365.47 99.2525C358.123 99.2525 351.424 96.4057 346.386 91.7407Z" fill="white"/>
<path d="M365.46 71.9866C370.882 71.9866 375.278 67.5195 375.278 62.009C375.278 56.4985 370.882 52.0313 365.46 52.0313C360.038 52.0313 355.643 56.4985 355.643 62.009C355.643 67.5195 360.038 71.9866 365.46 71.9866Z" fill="white"/>
<path d="M199.475 38.9917C201.44 38.9917 203.033 37.3726 203.033 35.3753C203.033 33.3781 201.44 31.7589 199.475 31.7589C197.509 31.7589 195.916 33.3781 195.916 35.3753C195.916 37.3726 197.509 38.9917 199.475 38.9917Z" fill="white"/>
<path d="M199.475 49.9077C201.44 49.9077 203.033 48.2886 203.033 46.2913C203.033 44.294 201.44 42.6749 199.475 42.6749C197.509 42.6749 195.916 44.294 195.916 46.2913C195.916 48.2886 197.509 49.9077 199.475 49.9077Z" fill="white"/>
<path d="M184.782 8.41729C185.922 8.41729 186.846 7.47811 186.846 6.31958C186.846 5.16104 185.922 4.22186 184.782 4.22186C183.642 4.22186 182.718 5.16104 182.718 6.31958C182.718 7.47811 183.642 8.41729 184.782 8.41729Z" fill="#A7CBFF"/>
<path d="M193.397 8.41729C194.537 8.41729 195.461 7.47811 195.461 6.31958C195.461 5.16104 194.537 4.22186 193.397 4.22186C192.257 4.22186 191.333 5.16104 191.333 6.31958C191.333 7.47811 192.257 8.41729 193.397 8.41729Z" fill="#A7CBFF"/>
<path d="M202.012 8.41729C203.152 8.41729 204.076 7.47811 204.076 6.31958C204.076 5.16104 203.152 4.22186 202.012 4.22186C200.872 4.22186 199.948 5.16104 199.948 6.31958C199.948 7.47811 200.872 8.41729 202.012 8.41729Z" fill="#A7CBFF"/>
<path d="M30.5692 162.145C39.1022 162.145 46.0196 155.273 46.0196 146.796C46.0196 138.319 39.1022 131.448 30.5692 131.448C22.0362 131.448 15.1188 138.319 15.1188 146.796C15.1188 155.273 22.0362 162.145 30.5692 162.145Z" fill="#FFE966"/>
<path fill-rule="evenodd" clip-rule="evenodd" d="M23.1454 133.311C15.7549 140.116 15.7225 153.29 26.6167 157.812C29.5832 159.043 34.5952 159.638 39.1585 159.529C36.701 161.167 33.7464 162.12 30.5692 162.12C22.0419 162.12 15.1188 155.243 15.1188 146.772C15.1188 140.973 18.3634 135.921 23.1454 133.311Z" fill="#FFDE16"/>
<path fill-rule="evenodd" clip-rule="evenodd" d="M27.6932 146.319H33.8036L31.881 159.565C31.8439 159.821 32.021 160.058 32.2764 160.095C32.5316 160.133 32.769 159.955 32.8059 159.699L34.7481 146.319H36.6073C37.5958 146.319 38.2271 145.895 38.5676 145.336C39.0754 144.502 38.9205 143.309 38.2171 142.567C37.0895 141.379 34.8053 141.547 34.1909 143.681C34.185 143.703 34.1804 143.723 34.1775 143.743L33.9393 145.384H27.5575L27.3195 143.743C27.3163 143.723 27.3118 143.703 27.3061 143.681C26.6915 141.547 24.4074 141.379 23.2798 142.567C22.5763 143.309 22.4214 144.502 22.9292 145.336C23.2697 145.895 23.901 146.319 24.8894 146.319H26.7486L28.6909 159.699C28.728 159.955 28.9652 160.133 29.2206 160.095C29.4757 160.058 29.653 159.821 29.616 159.565L27.6932 146.319ZM26.613 145.384L26.3991 143.91C26.0107 142.631 24.6427 142.489 23.958 143.211C23.5408 143.65 23.4264 144.356 23.7276 144.85C23.9262 145.175 24.313 145.384 24.8894 145.384H26.613ZM34.8838 145.384H36.6073C37.1839 145.384 37.5708 145.175 37.7694 144.85C38.0705 144.356 37.956 143.65 37.5388 143.211C36.8541 142.489 35.4861 142.631 35.0977 143.912L34.8838 145.384Z" fill="white"/>
<path fill-rule="evenodd" clip-rule="evenodd" d="M38.9305 163.974H22.2122V168.277H38.9305V163.974ZM38.9305 159.669H22.2122V163.974H38.9305V159.669Z" fill="#FFFDD4"/>
<path fill-rule="evenodd" clip-rule="evenodd" d="M27.5737 163.974C29.1508 166.241 32.3786 167.395 38.9305 167.622V168.277H22.2122V163.974H27.5737ZM26.2332 159.669C26.4031 161.403 26.7786 162.83 27.5737 163.974H22.2122V159.669H26.2332Z" fill="#FFEF94"/>
<path fill-rule="evenodd" clip-rule="evenodd" d="M253.169 35.5352C253.169 33.9337 251.869 32.6337 250.268 32.6337H212.511C210.91 32.6337 209.609 33.9337 209.609 35.5352C209.609 37.1366 210.91 38.4366 212.511 38.4366H250.268C251.869 38.4366 253.169 37.1366 253.169 35.5352Z" fill="white"/>
<path fill-rule="evenodd" clip-rule="evenodd" d="M289.11 46.4511C289.11 44.8496 287.809 43.5496 286.209 43.5496H212.531C210.929 43.5496 209.628 44.8496 209.628 46.4511C209.628 48.0526 210.929 49.3526 212.531 49.3526H286.209C287.809 49.3526 289.11 48.0526 289.11 46.4511Z" fill="white"/>
<path d="M320.628 182.148H361.348V233.253H320.628V182.148Z" fill="#FFE966"/>
<path fill-rule="evenodd" clip-rule="evenodd" d="M361.351 220.894L361.329 220.911C360.958 221.196 360.411 221.462 359.715 221.716C356.206 223.002 349.134 223.868 340.992 223.868C332.849 223.868 325.776 223.002 322.268 221.716C321.571 221.462 321.024 221.196 320.654 220.911L320.632 220.894V222.184C320.987 222.377 321.408 222.564 321.892 222.741C325.472 224.052 332.684 224.958 340.992 224.958C349.299 224.958 356.51 224.052 360.09 222.741C360.575 222.564 360.995 222.377 361.351 222.184V220.894ZM361.351 208.024L361.329 208.041C360.958 208.326 360.411 208.593 359.715 208.848C356.206 210.132 349.134 210.999 340.992 210.999C336.169 210.999 331.721 210.694 328.16 210.177C325.176 209.744 322.824 209.169 321.422 208.496C321.102 208.342 320.836 208.186 320.632 208.025V209.315C322.065 210.088 324.653 210.77 328.004 211.257C331.607 211.778 336.11 212.09 340.992 212.09C349.299 212.09 356.51 211.183 360.09 209.872C360.575 209.696 360.995 209.507 361.351 209.314V208.024ZM361.351 195.156L361.329 195.173C360.958 195.458 360.411 195.724 359.715 195.98C356.206 197.264 349.134 198.131 340.992 198.131C332.849 198.131 325.776 197.264 322.268 195.98C321.571 195.724 321.024 195.458 320.654 195.173L320.632 195.156V196.446C320.987 196.639 321.408 196.826 321.892 197.003C325.472 198.314 332.684 199.222 340.992 199.222C349.299 199.222 356.51 198.314 360.09 197.003C360.575 196.826 360.995 196.639 361.351 196.446V195.156Z" fill="#FFDD00"/>
<path fill-rule="evenodd" clip-rule="evenodd" d="M323.534 182.148C323.706 210.907 323.765 229.324 361.351 230.067V233.253H320.632V182.148H323.534Z" fill="#FFDE16"/>
<path fill-rule="evenodd" clip-rule="evenodd" d="M361.359 211.1L354.73 209.989C356.074 215.621 358.777 222.423 361.359 227.67V211.1Z" fill="#FFDB00"/>
<path fill-rule="evenodd" clip-rule="evenodd" d="M361.363 211.643V182.148H357.906V208.676C357.906 210.315 359.235 211.643 360.874 211.643H361.363Z" fill="#FFF4AC"/>
<path d="M279.931 194.699H320.651V233.305H279.931V194.699Z" fill="#FFE966"/>
<path fill-rule="evenodd" clip-rule="evenodd" d="M279.916 221.071V222.324C280.237 222.486 280.606 222.643 281.02 222.794C284.63 224.105 291.901 225.011 300.276 225.011C308.651 225.011 315.922 224.105 319.532 222.794C319.946 222.643 320.315 222.486 320.636 222.324V221.071C320.27 221.316 319.772 221.547 319.159 221.769C315.62 223.053 308.488 223.921 300.276 223.921C292.063 223.921 284.932 223.053 281.393 221.769C280.78 221.547 280.282 221.316 279.916 221.071ZM279.916 208.202V209.456C280.237 209.618 280.606 209.775 281.02 209.925C284.63 211.236 291.901 212.143 300.276 212.143C308.651 212.143 315.922 211.236 319.532 209.925C319.946 209.775 320.315 209.618 320.636 209.456V208.202C320.27 208.446 319.772 208.678 319.159 208.899C315.62 210.185 308.488 211.052 300.276 211.052C292.063 211.052 284.932 210.185 281.393 208.899C280.78 208.678 280.282 208.446 279.916 208.202Z" fill="#FFDD00"/>
<path d="M320.635 194.699H317.532V233.305H320.635V194.699Z" fill="#FFF195"/>
<path fill-rule="evenodd" clip-rule="evenodd" d="M282.613 194.699C282.879 222.039 286.225 232.136 320.636 232.499V233.306H279.916V194.699H282.613Z" fill="#FFDE16"/>
<path fill-rule="evenodd" clip-rule="evenodd" d="M282.613 194.699C282.879 222.039 286.225 232.136 320.636 232.499V233.306H279.916V194.699H282.613Z" fill="#FFDE16"/>
<path d="M340.988 185.819C329.744 185.819 320.628 184.01 320.628 181.778C320.628 179.545 329.744 177.736 340.988 177.736C352.233 177.736 361.348 179.545 361.348 181.778C361.348 184.01 352.233 185.819 340.988 185.819Z" fill="#FFF3A3"/>
<path fill-rule="evenodd" clip-rule="evenodd" d="M357.739 179.485C358.333 182.511 352.481 185.761 324.664 184.196C328.376 185.184 334.309 185.824 340.989 185.824C352.224 185.824 361.347 184.013 361.347 181.782C361.347 180.93 360.014 180.138 357.739 179.485Z" fill="#FFFCE7"/>
<path d="M300.291 198.751C289.047 198.751 279.931 196.942 279.931 194.709C279.931 192.477 289.047 190.668 300.291 190.668C311.535 190.668 320.651 192.477 320.651 194.709C320.651 196.942 311.535 198.751 300.291 198.751Z" fill="#FFF3A3"/>
<path d="M340.988 237.28C329.744 237.28 320.628 235.471 320.628 233.238C320.628 231.006 329.744 229.197 340.988 229.197C352.233 229.197 361.348 231.006 361.348 233.238C361.348 235.471 352.233 237.28 340.988 237.28Z" fill="#FFDE16"/>
<path fill-rule="evenodd" clip-rule="evenodd" d="M205.334 116.59L273.229 73.6599C278.342 70.5181 282.697 68.8794 286.818 69.4042C289.533 69.7505 292.134 71.044 294.782 73.4329C299.225 77.4427 302.802 78.9196 306.083 78.6615C309.359 78.4034 312.381 76.4018 315.727 73.2825C315.735 73.2759 315.741 73.2694 315.748 73.2627L327.987 60.8003C328.229 60.5542 328.224 60.1589 327.979 59.9179C327.734 59.6769 327.338 59.6814 327.098 59.9259L314.868 72.38C311.773 75.2629 309.016 77.1805 305.986 77.4188C302.962 77.657 299.711 76.2024 295.617 72.5084C292.748 69.9192 289.916 68.5437 286.977 68.1679C282.615 67.6136 277.985 69.2757 272.573 72.6001C272.57 72.6017 272.569 72.6034 272.567 72.605L204.669 115.537C204.378 115.721 204.29 116.106 204.474 116.396C204.658 116.687 205.043 116.774 205.334 116.59Z" fill="#FFFFC1"/>
<path d="M154.602 82.885C161.275 81.2307 165.036 73.2404 163.002 65.038C160.969 56.8357 153.911 51.5275 147.238 53.1818C140.565 54.836 136.804 62.8264 138.838 71.0287C140.871 79.231 147.929 84.5392 154.602 82.885Z" fill="#5474FF"/>
<path fill-rule="evenodd" clip-rule="evenodd" d="M146.716 53.3245C153.427 55.0585 155.253 62.9648 159.52 72.2764C160.229 73.8202 161.439 74.554 162.723 74.7783C161.379 78.818 158.484 81.9213 154.608 82.881C147.94 84.5339 140.877 79.2215 138.845 71.0254C136.867 63.0474 140.38 55.2579 146.716 53.3245Z" fill="#2D3CE7"/>
<path fill-rule="evenodd" clip-rule="evenodd" d="M60.1216 62.3481C66.9056 53.3974 85.8149 38.2271 114.448 38.5729C144.439 38.9351 147.968 49.7558 149.748 52.9468C153.165 59.0699 157.874 69.5007 156.887 90.4932C156.217 104.709 133.262 116.669 119.91 120.806C104.692 125.523 77.2975 127.904 67.1071 115.713C57.5388 104.263 49.6462 76.1694 60.1216 62.3481Z" fill="white"/>
<path fill-rule="evenodd" clip-rule="evenodd" d="M56.1809 70.9127C62.6259 66.2078 75.1857 72.1636 77.1315 90.6715C79.9264 117.237 97.0524 124.59 115.82 121.948C100.196 125.827 76.4383 126.882 67.108 115.718C59.2406 106.307 52.5074 85.6441 56.1809 70.9127Z" fill="#B0BDFF"/>
<path fill-rule="evenodd" clip-rule="evenodd" d="M81.1699 123.331C75.3652 122.01 70.3597 119.603 67.1084 115.712C57.5397 104.264 49.6459 76.1692 60.1212 62.3491C66.9058 53.3974 85.8156 38.2271 114.45 38.5729C114.578 38.5745 114.707 38.5762 114.833 38.5782C87.7349 46.5793 63.2494 59.4093 64.2979 78.6883C65.6346 103.256 70.7772 117.39 81.1699 123.331Z" fill="#EEF1FF"/>
<path fill-rule="evenodd" clip-rule="evenodd" d="M56.1815 70.913C58.6259 69.1277 61.952 68.8769 65.2438 70.2649C65.4292 70.3397 65.4993 70.3756 65.4993 70.3756C65.4993 70.3756 64.1346 73.8497 64.2982 78.6947C65.6349 103.263 70.7775 117.396 81.1702 123.338L81.1437 123.332L81.0347 123.307L80.9038 123.276L80.8883 123.272L80.7714 123.244L80.759 123.241L80.6281 123.21L80.5003 123.179L80.4863 123.176L80.3586 123.145L80.2277 123.112L80.2199 123.11L80.0968 123.078L80.0875 123.076L79.9582 123.042L79.8289 123.009L79.8195 123.006L79.6918 122.973L79.5594 122.938L79.4301 122.902L79.4254 122.9L79.2945 122.864L79.1668 122.828L79.1605 122.827L79.0328 122.791C78.9892 122.779 78.9456 122.765 78.9019 122.754L78.7742 122.716L78.7695 122.715L78.6418 122.676L78.514 122.638L78.5093 122.637L78.3816 122.598C78.3395 122.585 78.2959 122.571 78.2523 122.559L78.1261 122.518H78.123L77.9952 122.478L77.869 122.437L77.8659 122.436L77.7397 122.395C77.6977 122.381 77.6556 122.367 77.612 122.353L77.4874 122.311L77.4842 122.31L77.3596 122.268L77.2334 122.226L77.2319 122.224L77.1072 122.182C77.0652 122.166 77.0231 122.152 76.981 122.137L76.8595 122.093L76.8533 122.092L76.7318 122.048L76.6087 122.003H76.6056L76.4841 121.956L76.3594 121.911L76.241 121.866L76.2332 121.863L76.1133 121.817L75.9933 121.769H75.9902L75.8718 121.722L75.8687 121.721L75.7487 121.672L75.6319 121.626L75.6226 121.623L75.5073 121.574L75.3873 121.526L75.3842 121.524L75.2705 121.476L75.2642 121.473L75.1474 121.423L75.0321 121.375L75.0228 121.37L74.909 121.32L74.7922 121.269L74.7891 121.267L74.6785 121.219L74.6691 121.214L74.5554 121.163L74.4448 121.113L74.4323 121.107L74.3233 121.057H74.3217L74.208 121.003L74.2033 121.001L74.0974 120.951L74.0849 120.945L73.9759 120.892L73.8668 120.839L73.8528 120.833L73.7515 120.783L73.7453 120.78L73.6347 120.724L73.63 120.722L73.5272 120.671L73.5132 120.663L73.4072 120.608L73.2997 120.554L73.2857 120.546L73.1891 120.496L73.1798 120.49L73.0723 120.434L73.0676 120.431L72.9695 120.379L72.9523 120.37L72.8495 120.314L72.7451 120.256L72.7295 120.249L72.6392 120.197L72.6251 120.191L72.5208 120.132L72.5177 120.13L72.4211 120.076L72.4024 120.065L72.3042 120.007L72.2014 119.948L72.1858 119.939L72.1001 119.887L72.083 119.878L71.9833 119.819L71.9786 119.815L71.8867 119.759L71.8665 119.747L71.7745 119.691L71.7683 119.688L71.6717 119.627L71.6546 119.616L71.572 119.565L71.5533 119.554L71.4567 119.491L71.4552 119.49L71.3633 119.431L71.3414 119.418L71.2573 119.364L71.2464 119.356L71.1529 119.294L71.1358 119.283L71.0579 119.23L71.0361 119.216L70.9426 119.153L70.8523 119.091L70.8305 119.075L70.7526 119.021L70.7385 119.012L70.6466 118.948L70.6295 118.935L70.5547 118.882L70.5329 118.867L70.4441 118.803L70.3553 118.737L70.3319 118.722L70.2587 118.667L70.2431 118.655L70.1543 118.589L70.1372 118.577L70.0655 118.522L70.0437 118.505L69.9565 118.44L69.8708 118.373L69.849 118.356L69.7789 118.301L69.7602 118.286L69.6761 118.219L69.6605 118.206L69.5904 118.15L69.567 118.131L69.4876 118.068L69.4829 118.063L69.4003 117.994L69.3785 117.976L69.3115 117.921L69.2928 117.904L69.2102 117.835L69.1962 117.823L69.1277 117.764L69.1059 117.745L69.0326 117.681L69.0233 117.673L68.9438 117.603L68.922 117.585L68.8597 117.528L68.8395 117.51L68.76 117.438L68.7476 117.427L68.6806 117.365L68.6587 117.345L68.5902 117.282L68.5793 117.271L68.5014 117.198L68.4811 117.179L68.4204 117.122L68.4001 117.103L68.3238 117.028L68.3145 117.019L68.2475 116.954L68.2256 116.932L68.1618 116.869L68.1493 116.855L68.0745 116.781L68.0558 116.762L67.9966 116.703L67.9764 116.681L67.9032 116.605L67.8954 116.597L67.8299 116.528L67.8081 116.506L67.7489 116.443L67.7349 116.427L67.6632 116.351L67.6445 116.33L67.5885 116.27L67.5682 116.248L67.4981 116.168L67.4934 116.164L67.4264 116.089L67.4077 116.067L67.3501 116.003L67.3361 115.985L67.266 115.905L67.2504 115.886L67.1959 115.823L67.1772 115.801L67.1086 115.718L67.0261 115.62L67.0089 115.6L66.9295 115.503L66.9139 115.485L66.836 115.389L66.8298 115.382L66.7488 115.28L66.7332 115.26L66.6522 115.16L66.6397 115.143L66.5634 115.048L66.554 115.036L66.4746 114.933L66.4574 114.911L66.3764 114.808L66.3671 114.794L66.2907 114.696L66.2783 114.681L66.2004 114.576L66.1832 114.553L66.1022 114.447L66.096 114.438L66.0197 114.335L66.0056 114.316L65.9262 114.21L65.9106 114.187L65.8296 114.078L65.828 114.075L65.7486 113.964L65.733 113.944L65.6551 113.835L65.6395 113.813L65.5616 113.705L65.557 113.699L65.4775 113.585L65.4619 113.562L65.384 113.451L65.37 113.431L65.2952 113.325L65.2874 113.311L65.208 113.198L65.1924 113.173L65.1145 113.059L65.1036 113.042L65.0304 112.934L65.0179 112.917L64.9416 112.802L64.9245 112.777L64.8466 112.658L64.8388 112.646L64.7656 112.535L64.7515 112.514L64.6799 112.405L64.588 112.263L64.5802 112.25L64.482 112.098L64.4524 112.051L64.3823 111.94L64.348 111.886L64.2826 111.781L64.2483 111.725L64.1767 111.612L64.1502 111.568L64.052 111.409L64.0365 111.383L63.9555 111.249L63.9227 111.196L63.8573 111.087L63.823 111.029L63.756 110.918L63.7249 110.864L63.6454 110.731L63.6283 110.702L63.5317 110.537L63.5068 110.495L63.4367 110.37L63.4024 110.314L63.3385 110.202L63.3058 110.142L63.2388 110.024L63.2092 109.974L63.1142 109.804L63.0207 109.635L62.9911 109.583L62.9257 109.463L62.893 109.404L62.8291 109.287L62.7979 109.23L62.7263 109.097L62.7045 109.057L62.611 108.882L62.5939 108.849L62.5175 108.706L62.4879 108.65L62.424 108.529L62.3913 108.468L62.3274 108.345L62.2994 108.29L62.2168 108.128L62.2075 108.113L62.1156 107.932L62.0922 107.885L62.0252 107.751L61.994 107.692L61.9317 107.567L61.9021 107.508L61.8352 107.371L61.8118 107.326L61.7214 107.14L61.7168 107.133L61.6326 106.957L61.6061 106.904L61.5423 106.771L61.5127 106.71L61.4503 106.58L61.4239 106.522L61.3491 106.366L61.3366 106.337L61.2463 106.146L61.2307 106.112L61.159 105.958L61.1341 105.9L61.0718 105.766L61.0437 105.706L60.9799 105.565L60.9565 105.516L60.8708 105.324L60.7836 105.129L60.7649 105.084L60.6994 104.936L60.673 104.878L60.6122 104.738L60.5873 104.68L60.5187 104.523L60.5031 104.487L60.4175 104.286L60.4128 104.277L60.3349 104.092L60.3131 104.04L60.2508 103.892L60.2274 103.835L60.1651 103.685L60.1433 103.635L60.0654 103.445L60.0623 103.437L59.9781 103.232L59.9657 103.202L59.8971 103.032L59.8769 102.979L59.8161 102.828L59.7943 102.774L59.7289 102.61L59.7148 102.571L59.6338 102.365L59.5528 102.158L59.5388 102.118L59.4749 101.954L59.4547 101.901L59.3939 101.742L59.3768 101.694L59.3051 101.505L59.2989 101.49L59.2194 101.273L59.2163 101.269L59.1431 101.068L59.1275 101.023L59.0668 100.857L59.0481 100.808L58.9873 100.636L58.9733 100.599L58.8985 100.387L58.8222 100.17L58.8128 100.145L58.749 99.9601L58.7318 99.9149L58.6742 99.7435L58.6586 99.6983L58.5932 99.5083L58.5869 99.488L58.5121 99.2668L58.4405 99.0518L58.4296 99.0191L58.3704 98.8368L58.3548 98.7916L58.2972 98.6125L58.2847 98.5766L58.2161 98.3617C58.1912 98.2853 58.1679 98.209 58.1429 98.1342L58.0759 97.9192L58.065 97.8818L58.0074 97.698L57.9949 97.6575L57.9357 97.4627L57.9295 97.4409L57.861 97.2166L57.794 96.9907L57.7893 96.9751L57.7285 96.7726L57.7176 96.7352L57.6631 96.5451L57.6537 96.5124L57.5899 96.2943C57.5681 96.2164 57.5463 96.1401 57.5244 96.0622L57.4621 95.8379L57.4543 95.8145L57.3998 95.6135L57.3905 95.5808L57.3359 95.3783L57.3297 95.358L57.2689 95.1306C57.2487 95.0527 57.2269 94.9748 57.2066 94.8969L57.149 94.6725L57.1412 94.6461L57.0898 94.4435L57.082 94.417L57.0259 94.1943C57.0057 94.1148 56.987 94.0369 56.9667 93.959L56.9091 93.7253L56.9075 93.7191L56.8545 93.4994L56.8483 93.473L56.7985 93.2626L56.7938 93.2455L56.7408 93.0149C56.7221 92.937 56.7034 92.8576 56.6863 92.7797L56.6333 92.5476L56.6302 92.5336L56.5819 92.317L56.5772 92.2952L56.5274 92.0693V92.0677L56.476 91.8309C56.4588 91.7515 56.4417 91.672 56.4261 91.5941L56.3778 91.362L56.3747 91.3464L56.3295 91.1268L56.3264 91.1128C56.2625 90.7981 56.2018 90.4849 56.1441 90.1733L56.141 90.1562L56.099 89.9272V89.9256L56.0553 89.6873C56.0413 89.6078 56.0273 89.5284 56.0133 89.4489L55.9728 89.2121L55.9697 89.1981L55.951 89.0906L55.9338 88.9847L55.9292 88.9613L55.912 88.8522C55.9058 88.8117 55.898 88.7712 55.8918 88.7323L55.8731 88.6186L55.8715 88.5999L55.8528 88.4924L55.8372 88.3849L55.8341 88.3677L55.8154 88.254C55.8092 88.2135 55.8045 88.1746 55.7983 88.134L55.7811 88.0219L55.778 88.0032L55.7625 87.8957L55.7453 87.7804L55.7438 87.7742L55.7266 87.6558C55.7204 87.6153 55.7157 87.5763 55.7095 87.5358L55.6939 87.4252L55.6908 87.4065C55.6643 87.2133 55.6378 87.0201 55.6129 86.827L55.6098 86.8114C55.5849 86.6167 55.5615 86.4219 55.5381 86.2287L55.5366 86.2163L55.5225 86.101C55.5179 86.062 55.5132 86.0215 55.5085 85.9826L55.4945 85.8642V85.858L55.482 85.7427L55.468 85.6289V85.6212L55.4555 85.5043C55.4509 85.4654 55.4462 85.4249 55.4431 85.3844L55.4306 85.2691L55.4291 85.2597L55.4182 85.146L55.4057 85.0276V85.026L55.3948 84.9076C55.3901 84.8687 55.387 84.8282 55.3823 84.7892L55.373 84.6739L55.3714 84.663C55.3527 84.4683 55.3372 84.2736 55.3216 84.0804L55.32 84.0679C55.3044 83.8748 55.2904 83.68 55.2764 83.4868L55.2748 83.4744L55.267 83.3606C55.2639 83.3217 55.2624 83.2812 55.2593 83.2422L55.2515 83.1238V83.1223L55.2437 83.0054L55.2374 82.8933V82.8824L55.2297 82.7671C55.2281 82.7281 55.2265 82.6892 55.2234 82.6487L55.2172 82.535V82.5241L55.211 82.4119L55.2063 82.2981V82.2919L55.2001 82.1766C55.1985 82.1361 55.1969 82.0972 55.1954 82.0582L55.1907 81.9461V81.932C55.1829 81.7404 55.1751 81.5488 55.1705 81.3588V81.3416C55.1642 81.1531 55.1595 80.963 55.1564 80.7745V80.7543L55.1549 80.6452C55.1549 80.6063 55.1549 80.5673 55.1533 80.5284L55.1518 80.4147V80.4022V80.2947L55.1502 80.1903V80.1701V80.061C55.1502 80.0221 55.1502 79.9831 55.1502 79.9442V79.8351V79.8133L55.1518 79.7105V79.6092V79.5874L55.1533 79.4784C55.1533 79.4394 55.1549 79.4005 55.1549 79.3615L55.1564 79.2571V79.2275L55.158 79.1294L55.1611 79.0297V79.0079L55.1642 78.8973C55.1642 78.8583 55.1658 78.8194 55.1658 78.782L55.1689 78.6823L55.1705 78.648L55.1736 78.5499L55.1767 78.4517V78.4315L55.1814 78.324V78.299L55.186 78.204L55.1892 78.1105L55.1907 78.07L55.1954 77.9734L55.2001 77.8737V77.8566L55.2063 77.7538L55.2078 77.7148L55.2125 77.6291L55.2172 77.5419L55.2187 77.4967L55.225 77.4001C55.2265 77.3612 55.2297 77.3238 55.2312 77.2848L55.2374 77.1867L55.2406 77.1384L55.2468 77.0574L55.2515 76.9779L55.2561 76.9265L55.2624 76.8299L55.2639 76.8066L55.2702 76.7162L55.2779 76.6227L55.2826 76.5667L55.2889 76.4888L55.2951 76.4186L55.2998 76.3594L55.3076 76.2675L55.3138 76.199L55.3169 76.1491L55.3247 76.0635L55.3309 76.0011L55.3387 75.9232L55.3434 75.8672L55.3512 75.7955L55.359 75.7098L55.3683 75.6304L55.373 75.5852L55.3808 75.5088L55.3886 75.4387L55.3963 75.3608L55.3995 75.3312L55.4104 75.2362L55.4197 75.1567L55.4291 75.0711L55.4353 75.0259L55.4431 74.9605L55.4524 74.8794L55.4618 74.8047L55.4774 74.68L55.4883 74.6068L55.4992 74.5149C55.5802 73.9089 55.6768 73.3106 55.7874 72.7202L55.7889 72.7109L55.8076 72.6143L55.8092 72.6049L55.8294 72.5005C55.8372 72.4647 55.8435 72.4289 55.8513 72.3915L55.8715 72.2887L55.8746 72.2746L55.8918 72.189L55.8964 72.1672L55.9136 72.083L55.9182 72.0643L55.9385 71.9631L55.9603 71.8602L55.965 71.8415L55.9821 71.7621L55.9899 71.7309L56.0039 71.6624L56.0117 71.6281L56.0273 71.5596L56.0351 71.53L56.0569 71.4334L56.0616 71.4116L56.0787 71.3368L56.0881 71.2963L56.1021 71.2402L56.113 71.195L56.1239 71.1436L56.1364 71.0969L56.1488 71.047L56.1597 71.0003L56.1815 70.913Z" fill="#98A9FF"/>
<path fill-rule="evenodd" clip-rule="evenodd" d="M80.6401 46.1919C91.2728 46.2218 104.013 48.1176 113.041 54.2667C113.253 54.4115 113.309 54.7029 113.164 54.9163C113.018 55.1282 112.728 55.1843 112.515 55.0394C103.117 48.6364 89.6292 46.9385 78.8267 47.1331C79.4203 46.8143 80.0247 46.5004 80.6401 46.1919ZM103.878 39.1756C106.635 39.6174 109.377 40.1942 111.988 40.9268C119.186 42.9456 125.402 46.1612 128.418 50.9546C128.555 51.1727 128.489 51.4609 128.271 51.598C128.053 51.7366 127.763 51.6696 127.626 51.4515C124.715 46.8257 118.682 43.7753 111.736 41.8269C108.184 40.8303 104.389 40.1255 100.637 39.6576C101.7 39.4755 102.781 39.3143 103.878 39.1756Z" fill="#C7D2FF"/>
<path fill-rule="evenodd" clip-rule="evenodd" d="M93.509 66.6374C97.9389 60.0454 108.826 54.1531 119.953 50.7999C134.648 46.3576 138.927 48.1288 142.411 52.0614C147.71 58.0446 151.203 67.4456 152.076 81.1151C152.627 89.7665 150.223 94.0629 142.411 99.235C137.318 102.607 126.126 108.711 113.291 111.568C95.6477 115.498 85.8668 78.0069 93.509 66.6374Z" fill="#B9C7FF"/>
<path fill-rule="evenodd" clip-rule="evenodd" d="M96.739 68.3531C100.714 62.4359 110.485 57.0197 120.471 53.847C133.658 49.6447 137.498 51.1343 140.625 54.552C145.381 59.7519 148.515 68.0108 149.298 80.0966C149.793 87.7458 147.636 91.5935 140.625 96.3157C136.054 99.3946 126.01 105.003 114.492 107.768C98.6583 111.571 89.8806 78.5588 96.739 68.3531Z" fill="#5474FF"/>
<path fill-rule="evenodd" clip-rule="evenodd" d="M102.34 62.7191C100.966 64.2754 99.891 65.9299 99.246 67.6763C94.5926 80.2579 98.76 97.4976 110.212 102.143C118.742 105.605 131.379 100.07 148.793 86.0985L148.767 86.8463C147.717 90.4917 145.209 93.2056 140.625 96.2918C136.055 99.3702 126.011 104.98 114.492 107.745C98.6587 111.547 89.88 78.5349 96.7394 68.3291C98.0465 66.3848 99.9783 64.4935 102.34 62.7191Z" fill="#4364FF"/>
<path fill-rule="evenodd" clip-rule="evenodd" d="M131.844 51.3082C136.457 51.0215 138.688 52.4034 140.64 54.5393C145.396 59.738 148.529 67.998 149.313 80.0826C149.808 87.7319 147.65 91.5799 140.64 96.3018C136.069 99.3803 126.025 104.99 114.506 107.756C112.619 108.209 110.833 108.139 109.159 107.646C110.382 107.477 111.635 107.148 112.967 106.721C118.081 105.082 123.344 103.009 130.224 99.5407C135.172 97.0481 138.579 95.0524 140.925 93.1627C146.295 88.8348 146.097 85.0694 146.064 77.1958C146.036 70.4516 143.396 59.0042 136.856 53.9255C134.986 52.4735 133.383 51.6899 131.844 51.3082Z" fill="#2D3CE7"/>
<path fill-rule="evenodd" clip-rule="evenodd" d="M110.907 74.2216C105.735 76.8418 104.455 82.8792 106.164 86.8132C107.342 89.5224 109.894 91.2746 113.555 90.3696C118.19 89.2246 120.779 83.6761 120.59 79.1777C120.492 76.8522 119.652 74.8244 118.064 73.7698C116.488 72.7241 114.126 72.5908 110.907 74.2216ZM111.4 75.1947C114.13 73.8113 116.124 73.792 117.461 74.6793C118.787 75.5591 119.42 77.2832 119.501 79.2236C119.67 83.2539 117.447 88.2856 113.295 89.3106C110.26 90.0615 108.14 88.6218 107.166 86.3778C105.646 82.8821 106.803 77.5232 111.4 75.1947Z" fill="#B2FCFF"/>
<path fill-rule="evenodd" clip-rule="evenodd" d="M134.998 66.1229C132.323 67.5502 131.768 70.9712 132.714 73.9021C133.667 76.8499 136.104 79.2189 139.164 78.6003C141.134 78.2006 142.463 77.2756 143.278 76.1072C144.496 74.36 144.562 72.0354 143.804 69.9911C142.536 66.5732 139.013 63.9821 134.998 66.1229ZM135.511 67.0862C138.841 65.3098 141.729 67.5364 142.782 70.3709C143.415 72.0783 143.4 74.0231 142.383 75.484C141.705 76.4549 140.586 77.1991 138.947 77.5314C136.442 78.0383 134.532 75.9817 133.752 73.5668C132.968 71.1396 133.295 68.2668 135.511 67.0862Z" fill="#B2FCFF"/>
<path fill-rule="evenodd" clip-rule="evenodd" d="M105.105 223.661C111.635 224.446 118.292 224.18 124.49 223.664C124.498 223.662 124.506 223.661 124.516 223.66C133.081 222.462 139.212 220.15 142.872 214.973C146.271 210.164 149.589 202.037 153.717 187.814C154.361 185.595 157.225 174.858 157.724 160.227C158.226 145.508 151.954 136.241 142.038 132.326C139.187 131.2 135.059 130.905 130.651 131.073C124.119 131.322 116.966 132.575 112.514 133.537C87.2451 138.998 76.6712 147.193 73.8587 158.265C73.7951 158.515 73.9472 158.77 74.1974 158.833C74.4463 158.897 74.7008 158.745 74.7644 158.495C77.5174 147.657 87.9739 139.797 112.711 134.451C117.124 133.497 124.213 132.254 130.686 132.007C134.947 131.845 138.938 132.107 141.694 133.196C151.278 136.979 157.275 145.971 156.789 160.195C156.294 174.705 153.458 185.353 152.819 187.555C148.736 201.627 145.472 209.674 142.109 214.433C138.583 219.42 132.646 221.577 124.4 222.733C118.266 223.243 111.68 223.51 105.217 222.733C104.961 222.703 104.727 222.885 104.697 223.141C104.666 223.398 104.849 223.631 105.105 223.661Z" fill="#CFD7FF"/>
<path fill-rule="evenodd" clip-rule="evenodd" d="M74.135 157.37C81.0489 149.275 94.4609 147.582 101.534 181.625C104.819 197.435 107 214.381 105.566 223.648C104.81 223.553 104.078 223.448 103.377 223.333C98.6516 222.554 94.4017 220.579 91.3186 216.591C77.8552 199.179 72.2888 176.979 73.5149 161.399C73.6255 159.995 73.828 158.654 74.135 157.37Z" fill="#B5C4FF"/>
<path fill-rule="evenodd" clip-rule="evenodd" d="M105.589 208.057C90.6377 203.762 82.2858 186.497 83.8421 173.115C84.0758 171.11 92.7455 173.538 100.216 176.02C100.671 177.776 101.107 179.645 101.52 181.636C103.386 190.615 104.896 199.96 105.589 208.057Z" fill="#95A6FD"/>
<path fill-rule="evenodd" clip-rule="evenodd" d="M153.522 127.499L129.4 122.046C124.528 120.001 126.845 113.521 131.517 114.654C131.517 114.654 151.433 118.106 151.653 118.176L153.522 127.499Z" fill="white"/>
<path fill-rule="evenodd" clip-rule="evenodd" d="M148.646 112.758C148.646 112.758 148.366 108.167 148.571 103.188C148.771 98.3015 154.864 98.2207 155.516 102.502C156.099 106.334 156.652 114.392 156.652 114.392" fill="white"/>
<path fill-rule="evenodd" clip-rule="evenodd" d="M150.222 120.398L126.617 114.359C121.744 112.314 123.545 106.42 128.217 107.553C128.217 107.553 143.89 110.691 148.353 111.075L150.222 120.398Z" fill="white"/>
<path fill-rule="evenodd" clip-rule="evenodd" d="M56.6786 70.8355C57.4606 67.7866 58.7007 65.0012 60.4892 62.6425C67.2255 53.7547 86.0092 38.7085 114.439 39.0512C132.248 39.2662 140.638 43.1703 144.874 46.9715C147.672 49.4813 148.638 51.935 149.336 53.186C152.729 59.2681 157.397 69.6312 156.415 90.4837C156.154 96.0547 152.369 101.255 147.118 105.77C139.13 112.64 127.73 117.904 119.767 120.372C118.203 120.856 114.255 121.825 109.837 122.425C109.582 122.46 109.403 122.696 109.437 122.952C109.473 123.207 109.708 123.387 109.963 123.352C114.449 122.743 118.456 121.757 120.045 121.265C128.105 118.766 139.641 113.433 147.728 106.479C153.195 101.778 157.076 96.3273 157.35 90.5273C158.344 69.3928 153.592 58.8942 150.152 52.7311C149.426 51.4287 148.408 48.8878 145.499 46.2767C141.174 42.396 132.629 38.3361 114.45 38.1165C85.6134 37.7691 66.5775 53.0629 59.7445 62.0769C57.8829 64.5337 56.5882 67.4299 55.7734 70.6033C55.7096 70.8526 55.8607 71.1081 56.11 71.172C56.3608 71.2359 56.6147 71.0847 56.6786 70.8355Z" fill="#C7D2FF"/>
<path fill-rule="evenodd" clip-rule="evenodd" d="M153.561 135.674C153.716 135.715 153.881 135.673 154 135.562C154.117 135.451 154.168 135.288 154.137 135.13L152.104 124.995C152.062 124.791 151.892 124.64 151.685 124.621C147.239 124.238 131.451 120.251 131.451 120.251C131.449 120.251 131.448 120.251 131.446 120.249C127.804 119.368 125.221 122.942 126.079 126.043C126.442 127.355 127.414 128.59 129.203 129.341C129.223 129.349 129.243 129.357 129.265 129.362L153.561 135.674ZM153.073 134.582C153.073 134.582 130.516 128.721 129.533 128.466C128.086 127.849 127.276 126.863 126.98 125.794C126.296 123.325 128.327 120.457 131.225 121.158C131.454 121.215 146.393 124.976 151.255 125.517L153.073 134.582Z" fill="#C7D2FF"/>
<path fill-rule="evenodd" clip-rule="evenodd" d="M153.522 127.499L129.4 122.046C124.528 120.001 126.845 113.521 131.517 114.654C131.517 114.654 151.433 118.106 151.653 118.176L153.522 127.499Z" fill="white"/>
<path fill-rule="evenodd" clip-rule="evenodd" d="M142.299 122.006L140.576 124.567L129.399 122.04C127.511 121.247 126.703 119.788 126.693 118.364L142.299 122.006Z" fill="#DAE0FF"/>
<path fill-rule="evenodd" clip-rule="evenodd" d="M153.411 127.931C153.566 127.965 153.728 127.92 153.841 127.81C153.953 127.699 154.003 127.537 153.972 127.383L152.103 118.06C152.068 117.894 151.948 117.758 151.786 117.707C151.57 117.638 132.216 114.278 131.602 114.172C128.469 113.421 126.29 115.736 126.22 118.196C126.172 119.828 127.041 121.542 129.211 122.453C129.236 122.463 129.262 122.472 129.289 122.478L153.411 127.931ZM152.914 126.859L129.535 121.575C127.834 120.846 127.117 119.514 127.153 118.224C127.209 116.29 128.934 114.486 131.398 115.083C131.408 115.086 131.418 115.088 131.428 115.089C131.428 115.089 148.911 118.116 151.247 118.548L152.914 126.859Z" fill="#C7D2FF"/>
<path fill-rule="evenodd" clip-rule="evenodd" d="M148.646 112.758C148.646 112.758 148.366 108.167 148.571 103.188C148.771 98.3015 154.864 98.2207 155.516 102.502C156.099 106.334 156.652 114.392 156.652 114.392" fill="white"/>
<path fill-rule="evenodd" clip-rule="evenodd" d="M151.803 99.3845L151.817 113.381L148.639 112.733C148.639 112.733 148.357 108.141 148.561 103.162C148.661 100.751 150.196 99.5091 151.803 99.3845Z" fill="#DAE0FF"/>
<path fill-rule="evenodd" clip-rule="evenodd" d="M149.187 112.714C149.187 112.714 148.908 108.149 149.111 103.2C149.179 101.523 150.03 100.486 151.094 100.105C152.668 99.5401 154.643 100.4 154.973 102.572C155.554 106.389 156.103 114.417 156.103 114.417C156.125 114.717 156.385 114.945 156.685 114.924C156.985 114.904 157.212 114.643 157.192 114.343C157.192 114.343 156.635 106.254 156.05 102.407C155.6 99.4422 152.876 98.307 150.726 99.079C149.31 99.5865 148.113 100.924 148.021 103.155C147.815 108.162 148.1 112.78 148.1 112.78C148.118 113.081 148.376 113.31 148.677 113.291C148.977 113.273 149.206 113.014 149.187 112.714Z" fill="#C7D2FF"/>
<path fill-rule="evenodd" clip-rule="evenodd" d="M149.187 112.714C149.187 112.714 148.908 108.149 149.111 103.2C149.179 101.523 150.03 100.486 151.094 100.105C152.668 99.5401 154.643 100.4 154.973 102.572C155.554 106.389 156.103 114.417 156.103 114.417C156.125 114.717 156.385 114.945 156.685 114.924C156.985 114.904 157.212 114.643 157.192 114.343C157.192 114.343 156.635 106.254 156.05 102.407C155.6 99.4422 152.876 98.307 150.726 99.079C149.31 99.5865 148.113 100.924 148.021 103.155C147.815 108.162 148.1 112.78 148.1 112.78C148.118 113.081 148.376 113.31 148.677 113.291C148.977 113.273 149.206 113.014 149.187 112.714Z" fill="#C7D2FF"/>
<path fill-rule="evenodd" clip-rule="evenodd" d="M150.222 120.398L126.617 114.359C121.744 112.314 123.545 106.42 128.217 107.553C128.217 107.553 143.89 110.691 148.353 111.075L150.222 120.398Z" fill="white"/>
<path fill-rule="evenodd" clip-rule="evenodd" d="M143.095 115.311L141.216 118.104L126.631 114.373C124.694 113.56 123.813 112.139 123.746 110.795L143.095 115.311Z" fill="#DAE0FF"/>
<path fill-rule="evenodd" clip-rule="evenodd" d="M150.119 120.863C150.274 120.904 150.44 120.862 150.555 120.751C150.672 120.64 150.723 120.477 150.692 120.32L148.822 110.997C148.782 110.793 148.611 110.64 148.403 110.623C144.016 110.245 128.758 107.196 128.328 107.11C125.688 106.474 123.879 107.861 123.398 109.657C122.924 111.426 123.734 113.666 126.448 114.805C126.468 114.814 126.49 114.82 126.512 114.826L150.119 120.863ZM149.629 119.774L126.778 113.929C124.644 113.019 123.926 111.299 124.301 109.899C124.669 108.522 126.093 107.529 128.118 108.02C128.124 108.021 128.13 108.023 128.137 108.025C128.137 108.025 143.088 111.016 147.973 111.521L149.629 119.774Z" fill="#C7D2FF"/>
<path fill-rule="evenodd" clip-rule="evenodd" d="M139.468 136.335C136.668 134.351 132.808 133.649 132.474 129.663C132.019 124.201 135.684 117.656 143.789 112.277C152.408 106.558 158.237 110.477 160.956 114.183L139.468 136.335Z" fill="#B5C4FF"/>
<path fill-rule="evenodd" clip-rule="evenodd" d="M138.171 150.606C138.024 150.45 137.88 150.291 137.739 150.128C131.081 142.425 133.592 129.331 143.342 120.905C152.367 113.104 164.453 112.022 171.48 118.015C172.043 118.496 174.62 121.246 175.331 122.037C183.152 130.733 201.453 155.8 200.428 170.408L200.393 170.438C200.421 170.56 192.347 177.606 192.347 177.606C192.347 177.606 184.205 184.574 184.09 184.529L184.056 184.559C168.125 183.356 143.205 157.59 138.171 150.606Z" fill="white"/>
<path fill-rule="evenodd" clip-rule="evenodd" d="M359.37 202.268L397.052 231.992L392.587 237.873C390.956 239.94 381.19 234.959 370.792 226.756C360.393 218.554 353.274 210.216 354.904 208.15L359.37 202.268Z" fill="#FFE966"/>
<path d="M375.253 220.89C385.658 229.098 395.416 234.076 397.047 232.008C398.678 229.941 391.565 221.61 381.159 213.403C370.753 205.195 360.996 200.217 359.365 202.285C357.734 204.352 364.847 212.682 375.253 220.89Z" fill="#FFF3A3"/>
<path fill-rule="evenodd" clip-rule="evenodd" d="M97.0263 233.609H140.485V239.819C140.485 241.533 130.748 242.923 118.756 242.923C106.763 242.923 97.0263 241.533 97.0263 239.819V233.609Z" fill="#CDD7FF"/>
<path fill-rule="evenodd" clip-rule="evenodd" d="M140.485 236.312C126.246 236.874 111.281 238.614 104.437 242.152C99.8959 241.584 97.0263 240.749 97.0263 239.818V233.609H140.485V236.312Z" fill="#B9C5FF"/>
<path d="M118.754 236.726C130.585 236.726 140.177 235.356 140.177 233.665C140.177 231.974 130.585 230.604 118.754 230.604C106.922 230.604 97.3306 231.974 97.3306 233.665C97.3306 235.356 106.922 236.726 118.754 236.726Z" fill="white"/>
<path fill-rule="evenodd" clip-rule="evenodd" d="M97.3306 233.664C97.3306 231.976 106.93 230.604 118.754 230.604C130.578 230.604 140.177 231.976 140.177 233.664" fill="white"/>
<path fill-rule="evenodd" clip-rule="evenodd" d="M97.545 233.667C97.5611 233.517 97.721 233.419 97.9438 233.298C98.0729 233.226 98.2279 233.167 98.4055 233.1C98.73 232.98 99.1287 232.878 99.5969 232.761C99.9505 232.672 100.341 232.575 100.769 232.484C102.069 232.206 103.702 231.947 105.596 231.74C109.222 231.342 113.789 231.1 118.749 231.104C123.708 231.098 128.275 231.34 131.901 231.739C133.795 231.945 135.427 232.212 136.73 232.481C137.159 232.569 137.552 232.656 137.907 232.742C138.376 232.855 138.775 232.963 139.098 233.085C139.277 233.153 139.432 233.214 139.561 233.287C139.783 233.412 139.938 233.515 139.952 233.667C139.952 233.789 140.051 233.886 140.172 233.886C140.293 233.886 140.391 233.789 140.391 233.667C140.422 233.339 140.181 232.98 139.658 232.63C139.298 232.388 138.791 232.148 138.147 231.923C137.799 231.801 137.406 231.688 136.977 231.583C136.179 231.389 135.249 231.224 134.211 231.068C130.3 230.479 124.815 230.119 118.749 230.109C112.683 230.117 107.199 230.478 103.286 231.065C102.073 231.247 101.01 231.445 100.126 231.675C99.8472 231.746 99.5856 231.821 99.3451 231.903C98.6977 232.128 98.1908 232.37 97.8307 232.615C97.3077 232.972 97.0704 233.336 97.1059 233.667C97.1059 233.789 97.2044 233.886 97.3254 233.886C97.4465 233.886 97.545 233.789 97.545 233.667Z" fill="#C7D2FF"/>
<path fill-rule="evenodd" clip-rule="evenodd" d="M131.991 156.748C132.258 156.628 132.53 156.525 132.811 156.441C139.46 154.45 148.1 163.657 152.093 176.99C156.084 190.324 153.113 200.11 146.464 202.101C146.299 202.15 146.132 202.195 145.966 202.234L146.014 202.393C146.014 202.393 133.691 210.095 110.654 204.108C88.8764 198.448 78.9463 181.978 78.574 170.52C78.4587 166.972 78.8918 158.916 87.8435 157.257C91.9734 156.492 93.6264 158.616 109.162 159.072C121.918 159.448 131.971 156.679 131.971 156.679L131.991 156.748Z" fill="white"/>
<path fill-rule="evenodd" clip-rule="evenodd" d="M131.991 156.748C132.258 156.628 132.53 156.525 132.811 156.441C139.46 154.45 148.1 163.657 152.093 176.99C156.084 190.324 153.113 200.11 146.464 202.101C146.299 202.15 146.132 202.195 145.966 202.234L146.014 202.393C146.014 202.393 133.691 210.095 110.654 204.108C88.8764 198.448 78.9463 181.978 78.574 170.52C78.4587 166.972 78.8918 158.916 87.8435 157.257C91.9734 156.492 93.6264 158.616 109.162 159.072C121.918 159.448 131.971 156.679 131.971 156.679L131.991 156.748Z" fill="white"/>
<path fill-rule="evenodd" clip-rule="evenodd" d="M84.3787 158.414C84.3787 158.414 83.2804 160.137 82.7289 162.465C78.5148 175.034 112.929 193.654 136.783 177.861H144.936V202.987C141.476 204.654 129.742 209.091 110.654 204.131C88.8764 198.471 78.9463 182.001 78.574 170.542C78.4759 167.525 78.7734 161.242 84.3787 158.414Z" fill="#EEF1FF"/>
<path fill-rule="evenodd" clip-rule="evenodd" d="M79.3191 164.462C75.6206 178 88.3409 192.633 107.536 196.374C116.151 198.052 141.873 199.067 151.224 174.373C151.534 175.231 151.824 176.112 152.093 177.009C156.085 190.343 153.114 200.13 146.465 202.121C146.299 202.169 146.133 202.214 145.966 202.253L146.014 202.412C146.014 202.412 133.691 210.114 110.655 204.127C88.8768 198.468 78.9467 181.997 78.5744 170.539C78.5246 169.043 78.5744 166.746 79.3191 164.462Z" fill="#B5C4FF"/>
<path fill-rule="evenodd" clip-rule="evenodd" d="M122.492 158.158C128.828 157.44 132.965 156.301 132.965 156.301L132.993 156.392C139.618 154.609 148.144 163.773 152.103 176.99C155.991 189.978 153.273 199.602 146.983 201.931L147.01 202.015C147.01 202.015 141.197 205.646 130.099 205.984C125.612 202.583 121.499 197.017 118.821 188.763C114.465 175.345 115.693 162.2 122.492 158.158Z" fill="#5474FF"/>
<path fill-rule="evenodd" clip-rule="evenodd" d="M84.5944 158.3C87.7289 160.956 91.9135 162.742 96.4563 163.918C104.617 166.034 113.933 166.175 120.509 165.747C123.783 165.533 126.377 165.178 127.801 164.854C128.315 164.736 128.656 164.649 128.778 164.552C128.981 164.392 129.275 164.426 129.435 164.628C129.596 164.829 129.562 165.124 129.359 165.284C129.189 165.42 128.73 165.6 128.01 165.766C126.555 166.097 123.911 166.462 120.569 166.68C113.913 167.113 104.483 166.964 96.221 164.823C91.4009 163.574 86.9796 161.643 83.7142 158.774C83.9931 158.605 84.286 158.448 84.5944 158.3Z" fill="#CFD7FF"/>
<path fill-rule="evenodd" clip-rule="evenodd" d="M144.942 203.043C142.354 204.143 137.356 205.774 130.095 205.995L130.07 205.976L130.02 205.937L129.969 205.898L129.919 205.861L129.866 205.819L129.818 205.781L129.765 205.739L129.718 205.704L129.664 205.66L129.618 205.624L129.562 205.579L129.52 205.545L129.461 205.496L129.433 205.475L129.361 205.417L129.268 205.339L129.263 205.336L129.198 205.281L129.164 205.252L129.103 205.2L129.064 205.168L129.003 205.118L128.963 205.084L128.905 205.034L128.863 204.996L128.805 204.946L128.763 204.911L128.705 204.861L128.663 204.823L128.606 204.772L128.565 204.736L128.508 204.685L128.466 204.647L128.408 204.594L128.367 204.559L128.308 204.506L128.269 204.468L128.21 204.414L128.171 204.378L128.11 204.322L128.075 204.289L128.012 204.23L127.983 204.202L127.914 204.136L127.905 204.129L127.819 204.044C127.786 204.015 127.755 203.984 127.724 203.953L127.649 203.881L127.627 203.859L127.562 203.795L127.529 203.762L127.469 203.702L127.431 203.666L127.372 203.605L127.335 203.568L127.277 203.508L127.238 203.47L127.18 203.41L127.141 203.37L127.084 203.311L127.045 203.27L126.987 203.211L126.948 203.169L126.892 203.11L126.853 203.068L126.795 203.008L126.758 202.966L126.7 202.906L126.663 202.864L126.605 202.801L126.57 202.762L126.509 202.697L126.478 202.663L126.414 202.591L126.398 202.572L126.322 202.488C126.291 202.454 126.26 202.418 126.23 202.384L126.16 202.306L126.136 202.278L126.076 202.208L126.041 202.169L125.985 202.103L125.948 202.06L125.892 201.994L125.855 201.949L125.8 201.885L125.761 201.838L125.707 201.775L125.668 201.726L125.615 201.664L125.574 201.614L125.523 201.55L125.482 201.5L125.429 201.436L125.389 201.387L125.337 201.323L125.297 201.273L125.245 201.207L125.206 201.158L125.153 201.092L125.115 201.042L125.062 200.974L125.026 200.927L124.971 200.857L124.94 200.816L124.881 200.739C124.851 200.701 124.822 200.662 124.792 200.623L124.736 200.548L124.703 200.503L124.65 200.435L124.611 200.383L124.561 200.315L124.523 200.26L124.473 200.193L124.432 200.137L124.384 200.072L124.343 200.014L124.295 199.947L124.253 199.889L124.206 199.823L124.164 199.765L124.117 199.698L124.077 199.639L124.03 199.572L123.988 199.511L123.941 199.444L123.899 199.383L123.854 199.316L123.812 199.254L123.767 199.187L123.725 199.125L123.68 199.058L123.638 198.994L123.592 198.927L123.55 198.861L123.507 198.796L123.44 198.693L123.423 198.667L123.381 198.603L123.337 198.533L123.295 198.467L123.251 198.399L123.208 198.332L123.166 198.265L123.124 198.196L123.08 198.128L123.038 198.061L122.996 197.992L122.954 197.923L122.912 197.853L122.87 197.785L122.828 197.715L122.785 197.646L122.743 197.576L122.703 197.507L122.659 197.436L122.619 197.366L122.577 197.294L122.536 197.225L122.494 197.151L122.454 197.082L122.41 197.007L122.373 196.94L122.327 196.861L122.29 196.796L122.242 196.708L122.209 196.651L122.13 196.507L122.103 196.459L122.049 196.361L122.014 196.299L121.969 196.214L121.933 196.147L121.888 196.065L121.852 195.996L121.809 195.917L121.771 195.847L121.729 195.766L121.693 195.696L121.651 195.615L121.614 195.543L121.572 195.462L121.536 195.39L121.494 195.309L121.458 195.238L121.416 195.155L121.38 195.083L121.338 195.001L121.302 194.929L121.26 194.843L121.226 194.773L121.184 194.685L121.15 194.616L121.104 194.524L121.075 194.459L121.023 194.354L120.999 194.301L120.924 194.142L120.908 194.111L120.849 193.982L120.821 193.923L120.776 193.821L120.745 193.754L120.701 193.659L120.668 193.588L120.628 193.496L120.595 193.423L120.555 193.332L120.522 193.258L120.481 193.167L120.449 193.092L120.41 193.002L120.377 192.926L120.338 192.835L120.305 192.759L120.266 192.667L120.234 192.591L120.195 192.499L120.164 192.422L120.123 192.327L120.093 192.253L120.053 192.155L120.023 192.083L119.981 191.98L119.953 191.912L119.908 191.795L119.885 191.739L119.816 191.566L119.81 191.55L119.749 191.393L119.726 191.332L119.681 191.217L119.654 191.147L119.614 191.042L119.586 190.966L119.547 190.865L119.519 190.787L119.481 190.687L119.452 190.608L119.416 190.508L119.386 190.427L119.35 190.329L119.321 190.246L119.285 190.148L119.255 190.065L119.221 189.966L119.191 189.883L119.156 189.782L119.128 189.701L119.092 189.598L119.065 189.517L119.028 189.411L119.001 189.333L118.964 189.221L118.939 189.146L118.899 189.023L118.878 188.961L118.817 188.774L118.766 188.618L118.75 188.567L118.716 188.462L118.698 188.4L118.668 188.307L118.646 188.24L118.62 188.152L118.598 188.082L118.571 187.997L118.548 187.925L118.523 187.841L118.501 187.767L118.476 187.686L118.453 187.61L118.43 187.531L118.406 187.454L118.383 187.376L118.359 187.299L118.338 187.222L118.314 187.141L118.292 187.066L118.269 186.985L118.247 186.912L118.224 186.83L118.204 186.758L118.18 186.672L118.16 186.604L118.135 186.517L118.118 186.451L118.093 186.361L118.074 186.297L118.049 186.205L118.034 186.144L118.007 186.049L117.992 185.99L117.965 185.893L117.951 185.837L117.925 185.738L117.911 185.685L117.884 185.582L117.87 185.533L117.844 185.426L117.831 185.381L117.803 185.27L117.794 185.23L117.764 185.116L117.755 185.079L117.725 184.96L117.718 184.929L117.688 184.806L117.682 184.779L117.651 184.65L117.644 184.63L117.613 184.496L117.609 184.48L117.576 184.342L117.574 184.334C117.538 184.183 117.504 184.033 117.47 183.884C124.055 183.636 130.76 181.843 136.789 177.85H144.942V203.043Z" fill="#4364FF"/>
<path fill-rule="evenodd" clip-rule="evenodd" d="M151.23 174.389C151.54 175.249 151.829 176.127 152.099 177.025C155.987 190.013 153.269 199.636 146.98 201.965L147.006 202.049C147.006 202.049 141.558 205.975 130.46 206.312C128.146 204.559 125.568 201.935 123.599 198.96L123.597 198.958L123.511 198.827L123.505 198.817L123.424 198.693L123.415 198.678L123.338 198.559L123.324 198.539L123.251 198.422L123.237 198.402L123.164 198.285L123.15 198.263L123.077 198.147L123.064 198.125L122.988 198.003L122.977 197.986L122.898 197.855L122.893 197.846C122.778 197.659 122.665 197.469 122.553 197.276L122.531 197.24L122.471 197.136L122.441 197.084L122.39 196.994L122.355 196.935L122.309 196.85L122.271 196.785L122.243 196.737C132.798 195.364 145.302 190.041 151.23 174.389Z" fill="#2D3CE7"/>
<path fill-rule="evenodd" clip-rule="evenodd" d="M132.808 156.469C126.16 158.459 124.002 170.9 127.995 184.233C129.549 189.425 131.687 193.591 134.109 196.623C137.904 201.374 142.401 203.343 146.46 202.128C153.11 200.137 156.081 190.35 152.089 177.018C148.096 163.685 139.458 154.477 132.808 156.469Z" fill="white"/>
<path fill-rule="evenodd" clip-rule="evenodd" d="M144.941 202.418C141.307 202.797 137.443 200.77 134.117 196.607C131.696 193.575 129.559 189.41 128.004 184.217C127.805 183.553 127.622 182.893 127.454 182.235C130.666 181.259 133.81 179.822 136.789 177.85H144.941V202.418Z" fill="#EEF1FF"/>
<path fill-rule="evenodd" clip-rule="evenodd" d="M132.342 194.137C139.897 191.078 147.124 185.196 151.217 174.389C151.314 174.658 151.409 174.928 151.502 175.2L151.504 175.205L151.555 175.358L151.566 175.389L151.608 175.515L151.624 175.56L151.659 175.672L151.678 175.727L151.712 175.831L151.731 175.89L151.764 175.99L151.784 176.054L151.815 176.149L151.836 176.216L151.867 176.311L151.887 176.378L151.917 176.473L151.937 176.539L151.968 176.638L151.988 176.701L152.021 176.81L152.036 176.863L152.086 177.025L152.132 177.179L152.147 177.23L152.177 177.333L152.195 177.394L152.222 177.487L152.241 177.553L152.266 177.64L152.284 177.707L152.309 177.793L152.328 177.861L152.351 177.945L152.371 178.015L152.393 178.098L152.413 178.168L152.435 178.249L152.456 178.321L152.476 178.4L152.496 178.472L152.516 178.551L152.535 178.623L152.557 178.702L152.576 178.774L152.596 178.854L152.614 178.925L152.635 179.003L152.652 179.075L152.672 179.153L152.691 179.224L152.71 179.302L152.727 179.374L152.745 179.452L152.764 179.523L152.783 179.601L152.8 179.672L152.817 179.749L152.834 179.821L152.853 179.897L152.868 179.969L152.887 180.045L152.903 180.117L152.921 180.193L152.937 180.264L152.954 180.34L152.97 180.41L152.987 180.488L153.002 180.558L153.018 180.634L153.034 180.704L153.049 180.781L153.065 180.849L153.08 180.926L153.094 180.996L153.11 181.072L153.124 181.141L153.139 181.217L153.154 181.285L153.169 181.362L153.182 181.429L153.197 181.507L153.211 181.574L153.225 181.652L153.238 181.717L153.253 181.796L153.266 181.86L153.28 181.941L153.291 182.004L153.306 182.085L153.317 182.147L153.331 182.231L153.342 182.289L153.358 182.379L153.367 182.431L153.386 182.54L153.39 182.572L153.414 182.714L153.418 182.737L153.437 182.854L153.445 182.903L153.459 182.995L153.468 183.051L153.481 183.135L153.49 183.194L153.502 183.275L153.51 183.336L153.523 183.414L153.531 183.476L153.543 183.554L153.551 183.616L153.562 183.692L153.569 183.755L153.58 183.83L153.59 183.893L153.599 183.968L153.607 184.031L153.616 184.105L153.624 184.169L153.633 184.242L153.641 184.306L153.65 184.379L153.658 184.442L153.666 184.515L153.674 184.579L153.682 184.651L153.688 184.714L153.697 184.786L153.703 184.85L153.711 184.922L153.717 184.986L153.724 185.057L153.73 185.119L153.738 185.191L153.744 185.253L153.75 185.325L153.756 185.387L153.763 185.459L153.767 185.52L153.774 185.592L153.78 185.654L153.784 185.724L153.789 185.786L153.795 185.858L153.8 185.917L153.805 185.989L153.809 186.05L153.814 186.121L153.819 186.18L153.823 186.252L153.827 186.311L153.831 186.384L153.834 186.442L153.839 186.514L153.842 186.571L153.847 186.645L153.85 186.702L153.853 186.776L153.856 186.83L153.859 186.906L153.861 186.959L153.864 187.036L153.867 187.087L153.869 187.167L153.872 187.216L153.873 187.299L153.875 187.343L153.878 187.433V187.47L153.881 187.575V187.597L153.884 187.724L153.886 187.85V187.857L153.887 187.977V188.006L153.889 188.101V188.14V188.226V188.27V188.351V188.396V188.474L153.887 188.522V188.597L153.886 188.647V188.72L153.884 188.77L153.883 188.843L153.881 188.893L153.879 188.964L153.878 189.014L153.876 189.086L153.875 189.137L153.873 189.207L153.872 189.257L153.869 189.327L153.867 189.379L153.864 189.447L153.861 189.499L153.858 189.567L153.856 189.619L153.853 189.687L153.85 189.737L153.845 189.806L153.842 189.857L153.839 189.924L153.836 189.975L153.831 190.042L153.828 190.092L153.823 190.161L153.82 190.211L153.816 190.278L153.811 190.326L153.806 190.395L153.802 190.443L153.797 190.511L153.792 190.56L153.786 190.627L153.781 190.675L153.775 190.742L153.77 190.789L153.764 190.857L153.76 190.904L153.753 190.972L153.749 191.018L153.741 191.088L153.736 191.131L153.728 191.202L153.722 191.244L153.714 191.315L153.71 191.357L153.7 191.431L153.696 191.469L153.686 191.544L153.682 191.58L153.671 191.66L153.666 191.692L153.655 191.775L153.652 191.803L153.638 191.893L153.635 191.912L153.619 192.018V192.023C153.598 192.169 153.574 192.315 153.549 192.46L153.548 192.47L153.529 192.568L153.526 192.588L153.51 192.675L153.506 192.7L153.49 192.781L153.485 192.811L153.47 192.887L153.464 192.92L153.45 192.993L153.443 193.026L153.428 193.097L153.421 193.133L153.407 193.202L153.4 193.238L153.384 193.306L153.376 193.342L153.362 193.409L153.353 193.446L153.339 193.512L153.33 193.549L153.316 193.615L153.306 193.652L153.291 193.718L153.281 193.755L153.266 193.819L153.256 193.856L153.241 193.92L153.231 193.957L153.216 194.02L153.206 194.057L153.189 194.119L153.18 194.157L153.163 194.219L153.154 194.257L153.136 194.319L153.125 194.355L153.108 194.417L153.097 194.454L153.08 194.515L153.069 194.551L153.052 194.613L153.041 194.649L153.023 194.71L153.012 194.746L152.993 194.808L152.982 194.841L152.963 194.905L152.953 194.937L152.932 195L152.923 195.032L152.901 195.096L152.892 195.126L152.87 195.191L152.861 195.221L152.837 195.286L152.828 195.314L152.805 195.381L152.797 195.406L152.772 195.478L152.764 195.498L152.736 195.575L152.73 195.59L152.7 195.671L152.697 195.682C152.628 195.866 152.557 196.047 152.484 196.223V196.224L152.446 196.311L152.442 196.322L152.409 196.399L152.403 196.414L152.371 196.484L152.362 196.505L152.334 196.57L152.323 196.593L152.295 196.656L152.284 196.679L152.256 196.74L152.244 196.766L152.217 196.824L152.203 196.85L152.177 196.908L152.163 196.936L152.136 196.991L152.122 197.019L152.096 197.073L152.082 197.103L152.054 197.156L152.04 197.184L152.013 197.237L151.998 197.266L151.971 197.318L151.955 197.347L151.927 197.399L151.912 197.427L151.885 197.478L151.87 197.508L151.842 197.558L151.826 197.586L151.798 197.636L151.781 197.665L151.753 197.714L151.737 197.743L151.709 197.791L151.692 197.819L151.663 197.869L151.647 197.897L151.617 197.946L151.6 197.974L151.572 198.022L151.555 198.048L151.526 198.097L151.508 198.123L151.479 198.172L151.462 198.198L151.43 198.246L151.413 198.273L151.382 198.32L151.367 198.346L151.334 198.394L151.318 198.418L151.286 198.468L151.268 198.489L151.234 198.539L151.22 198.561L151.184 198.612L151.17 198.633L151.133 198.686L151.12 198.703L151.08 198.759L151.071 198.773L151.024 198.835L151.019 198.841C150.952 198.933 150.882 199.024 150.812 199.114L150.804 199.123L150.759 199.18L150.745 199.197L150.706 199.245L150.689 199.265L150.652 199.31L150.633 199.332L150.599 199.374L150.578 199.398L150.544 199.438L150.522 199.463L150.49 199.5L150.466 199.527L150.435 199.563L150.41 199.589L150.379 199.625L150.356 199.652L150.323 199.686L150.298 199.712L150.267 199.747L150.242 199.773L150.211 199.806L150.184 199.834L150.155 199.865L150.126 199.893L150.097 199.923L150.069 199.951L150.039 199.982L150.011 200.01L149.98 200.038L149.952 200.066L149.922 200.096L149.893 200.124L149.863 200.152L149.834 200.18L149.804 200.206L149.774 200.234L149.745 200.262L149.714 200.29L149.686 200.315L149.653 200.343L149.625 200.37L149.592 200.398L149.564 200.423L149.531 200.451L149.503 200.474L149.471 200.502L149.443 200.526L149.408 200.554L149.382 200.577L149.346 200.605L149.32 200.627L149.284 200.655L149.257 200.675L149.22 200.705L149.196 200.723L149.156 200.755L149.134 200.772L149.092 200.803L149.072 200.818L149.028 200.851L149.011 200.864L148.964 200.898L148.95 200.907L148.899 200.945L148.893 200.949C148.703 201.083 148.508 201.209 148.31 201.326L148.307 201.328L148.245 201.364L148.238 201.368L148.179 201.403L148.171 201.407L148.111 201.44L148.103 201.445L148.044 201.477L148.033 201.482L147.975 201.515L147.964 201.519L147.905 201.551L147.894 201.557L147.835 201.586L147.824 201.593L147.765 201.621L147.754 201.627L147.695 201.657L147.684 201.661L147.625 201.689L147.612 201.696L147.553 201.724L147.542 201.728L147.481 201.756L147.47 201.759L147.408 201.787L147.399 201.792L147.336 201.819L147.327 201.822L147.263 201.85L147.255 201.853L147.19 201.879L147.184 201.882L147.115 201.909L147.112 201.911L147.042 201.937L147.04 201.939L146.967 201.965C146.8 202.027 146.631 202.085 146.458 202.136C142.399 203.352 137.902 201.382 134.105 196.631C133.498 195.871 132.909 195.039 132.342 194.137Z" fill="#B5C4FF"/>
<path fill-rule="evenodd" clip-rule="evenodd" d="M123.348 83.3494L133.491 78.7697C135.013 84.6201 126.151 88.7682 123.348 83.3494Z" fill="white"/>
<path fill-rule="evenodd" clip-rule="evenodd" d="M91.9992 157.317C94.9354 157.888 98.9744 158.833 110.124 159.161C118.489 159.406 125.698 158.308 129.699 157.514C131.775 157.102 134.379 156.604 135.095 156.651C137.49 156.806 140.024 158.24 142.435 160.61C146.144 164.257 149.536 170.115 151.634 177.124C152.51 180.049 153.05 182.802 153.283 185.334C153.345 185.997 154.279 185.997 154.219 185.334C153.985 182.718 153.435 179.877 152.53 176.855C150.38 169.675 146.892 163.68 143.089 159.942C140.492 157.388 137.738 155.884 135.156 155.717C134.407 155.67 131.686 156.167 129.518 156.597C125.559 157.381 118.426 158.468 110.151 158.225C99.088 157.9 95.09 156.965 92.1775 156.4C92.086 156.381 90.9028 156.124 90.9028 156.124C90.9028 156.124 91.6474 156.985 91.9992 157.317Z" fill="#C7D2FF"/>
<path fill-rule="evenodd" clip-rule="evenodd" d="M344.247 51.3087C331.453 71.0613 343.058 104.893 378.659 95.9409C374.716 98.0534 370.225 99.2515 365.461 99.2515C349.809 99.2515 337.101 86.3365 337.101 70.4288C337.101 63.0958 339.802 56.3984 344.247 51.3087Z" fill="#C1B7FF" fill-opacity="0.56"/>
<path fill-rule="evenodd" clip-rule="evenodd" d="M317.731 192.607C318.008 195.599 311.657 198.694 283.776 197.055C287.476 198.069 293.493 198.731 300.282 198.731C311.519 198.731 320.642 196.92 320.642 194.689C320.642 193.927 319.578 193.215 317.731 192.607Z" fill="#FFFCE7"/>
<path fill-rule="evenodd" clip-rule="evenodd" d="M289.523 224.469C285.907 224.077 282.944 223.492 281.02 222.794C280.606 222.643 280.237 222.486 279.916 222.324V221.071C280.282 221.316 280.78 221.547 281.393 221.769C283.044 222.369 285.479 222.877 288.441 223.249C288.782 223.672 289.142 224.078 289.523 224.469ZM283.586 210.655C282.598 210.429 281.737 210.186 281.02 209.925C280.606 209.775 280.237 209.618 279.916 209.456V208.202C280.282 208.446 280.78 208.678 281.393 208.9C281.974 209.111 282.653 209.311 283.419 209.499C283.472 209.889 283.527 210.275 283.586 210.655Z" fill="#FFC300"/>
<path fill-rule="evenodd" clip-rule="evenodd" d="M320.632 220.894L320.654 220.911C321.024 221.196 321.571 221.462 322.268 221.716C324.863 222.667 329.407 223.388 334.893 223.699C335.482 224.112 336.103 224.505 336.756 224.879C330.278 224.629 324.848 223.823 321.892 222.741C321.408 222.564 320.987 222.377 320.632 222.184V220.894ZM320.632 208.025C320.836 208.186 321.102 208.342 321.422 208.496C322.406 208.968 323.858 209.392 325.669 209.753C325.774 210.149 325.887 210.541 326.005 210.926C323.621 210.481 321.766 209.926 320.632 209.315V208.025ZM320.632 195.156L320.654 195.173C321.024 195.458 321.571 195.724 322.268 195.98C322.727 196.148 323.249 196.309 323.827 196.463C323.847 196.844 323.869 197.223 323.893 197.603C323.138 197.415 322.469 197.214 321.892 197.003C321.408 196.826 320.987 196.639 320.632 196.446V195.156Z" fill="#FFC300"/>
<path fill-rule="evenodd" clip-rule="evenodd" d="M375.406 220.997C383.476 227.343 391.143 231.738 394.896 232.386C386.933 228.868 380.446 224.88 375.406 220.997ZM372.605 218.728C363.682 211.268 357.888 204.164 359.374 202.279C360.008 201.475 361.871 201.737 364.523 202.84C359.592 202.088 362.174 209.816 372.605 218.728Z" fill="#FFFCE7"/>
<path fill-rule="evenodd" clip-rule="evenodd" d="M60.4941 104.451H66.8394L73.2844 100.868C74.3516 109.516 72.3341 114.102 68.7634 117.434C68.173 116.897 67.6215 116.325 67.1136 115.716C64.7129 112.845 62.4181 108.927 60.4941 104.451Z" fill="#5760E9"/>
<path d="M64.555 113.845C71.2277 112.191 74.9886 104.201 72.9551 95.9982C70.9216 87.7959 63.8638 82.4877 57.1911 84.142C50.5184 85.7962 46.7575 93.7866 48.791 101.989C50.8245 110.191 57.8822 115.499 64.555 113.845Z" fill="#5474FF"/>
<path fill-rule="evenodd" clip-rule="evenodd" d="M50.7048 88.8642C51.6302 88.0307 52.7192 87.4278 53.9421 87.124C59.0349 85.8621 64.5233 90.2881 66.1872 97.0042C67.8526 103.719 65.0686 110.196 59.9743 111.458C57.5923 112.05 55.123 111.396 53.0011 109.846C51.0709 107.786 49.5706 105.087 48.7979 101.969C47.591 97.1023 48.4287 92.304 50.7048 88.8642Z" fill="#A2E2EE"/>
<path fill-rule="evenodd" clip-rule="evenodd" d="M69.736 110.761C68.3308 112.252 66.5782 113.333 64.5623 113.833C57.8929 115.486 50.8294 110.174 48.7979 101.976C46.7658 93.7798 50.5303 85.7831 57.1981 84.1302C58.1188 83.9012 59.0457 83.8061 59.9665 83.8326C58.5285 84.5711 57.1794 85.7208 56.0982 87.2273C53.699 90.5721 52.6225 95.6664 54.8176 101.892C57.9615 110.811 64.5405 113.035 69.736 110.761Z" fill="#2D3CE7"/>
<path fill-rule="evenodd" clip-rule="evenodd" d="M50.7048 88.8634C51.6302 88.0299 52.7192 87.427 53.9421 87.1232C54.7117 86.9331 55.4906 86.8724 56.2649 86.93C53.5713 91.8888 54.6136 98.8012 55.539 102.364C56.6497 106.641 59.186 109.334 62.1133 110.549C61.4574 110.959 60.7423 111.268 59.9743 111.458C57.5923 112.05 55.123 111.395 53.0011 109.845C51.0709 107.786 49.5706 105.086 48.7979 101.968C47.591 97.1015 48.4287 92.3032 50.7048 88.8634Z" fill="#6DC7EB"/>
<path fill-rule="evenodd" clip-rule="evenodd" d="M50.6935 88.8642C51.6189 88.0307 52.7079 87.4278 53.9308 87.124C59.0236 85.8621 64.5121 90.2881 66.1759 97.0042C67 100.326 66.7352 103.588 65.64 106.191C66.2849 89.7366 56.883 85.5147 50.491 89.1804C50.5564 89.0745 50.625 88.9685 50.6935 88.8642Z" fill="#C9F7FF"/>
<path fill-rule="evenodd" clip-rule="evenodd" d="M138.171 150.606C138.024 150.45 137.88 150.291 137.739 150.128C131.081 142.425 133.592 129.331 143.342 120.905C152.367 113.104 164.453 112.022 171.48 118.015C172.043 118.496 174.62 121.246 175.331 122.037C183.152 130.733 201.453 155.8 200.428 170.408L200.393 170.438C200.421 170.56 192.347 177.606 192.347 177.606C192.347 177.606 184.205 184.574 184.09 184.529L184.056 184.559C168.125 183.356 143.205 157.59 138.171 150.606Z" fill="white"/>
<path fill-rule="evenodd" clip-rule="evenodd" d="M155.555 114.712C149.186 123.332 147.667 133.51 157.532 146.8C169.107 161.896 189.378 174.939 200.452 169.998C200.446 170.142 200.438 170.286 200.427 170.428L200.394 170.457C200.421 170.577 192.348 177.623 192.348 177.623C192.348 177.623 184.206 184.592 184.091 184.548L184.057 184.576C168.124 183.374 143.205 157.608 138.17 150.624C138.024 150.468 137.879 150.309 137.739 150.145C131.082 142.443 133.592 129.349 143.341 120.922C147.08 117.691 151.344 115.613 155.555 114.712Z" fill="#EEF1FF"/>
<path fill-rule="evenodd" clip-rule="evenodd" d="M147.446 117.945C137.539 126.632 134.129 135 146.687 151.917C159.085 168.088 180.897 185.158 192.387 177.586L192.348 177.621C192.348 177.621 184.206 184.589 184.091 184.546L184.057 184.574C168.124 183.371 143.205 157.605 138.17 150.621C138.024 150.465 137.879 150.306 137.739 150.142C131.082 142.44 133.592 129.346 143.341 120.919C144.654 119.785 146.031 118.793 147.446 117.945Z" fill="#B5C4FF"/>
<path fill-rule="evenodd" clip-rule="evenodd" d="M138.853 151.511C138.596 151.182 138.368 150.88 138.17 150.606C138.024 150.45 137.879 150.291 137.739 150.128C131.082 142.425 133.592 129.331 143.341 120.905C152.367 113.104 164.454 112.022 171.48 118.015C171.646 118.158 171.992 118.502 172.414 118.935C160.587 116.536 140.763 125.943 138.853 151.511Z" fill="#5474FF"/>
<path fill-rule="evenodd" clip-rule="evenodd" d="M155.555 114.712C153.033 118.124 151.272 121.782 150.677 125.78C144.578 131.111 139.747 139.545 138.853 151.529C138.596 151.2 138.368 150.898 138.17 150.624C138.024 150.468 137.879 150.309 137.739 150.145C131.082 142.443 133.592 129.349 143.341 120.922C147.08 117.691 151.344 115.613 155.555 114.712Z" fill="#4364FF"/>
<path fill-rule="evenodd" clip-rule="evenodd" d="M147.767 117.755C138.272 124.61 137.111 132.938 140.683 141.571C139.759 144.568 139.124 147.883 138.853 151.526C138.596 151.197 138.368 150.895 138.17 150.621C138.024 150.465 137.879 150.306 137.739 150.142C131.082 142.44 133.592 129.346 143.341 120.919C144.752 119.701 146.237 118.645 147.767 117.755Z" fill="#2D3CE7"/>
<path fill-rule="evenodd" clip-rule="evenodd" d="M153.499 192.81C152.356 194.588 150.758 195.636 148.843 195.636C144.035 195.636 139.034 189.019 137.682 180.868C136.331 172.715 139.137 166.097 143.946 166.097C145.405 166.097 146.883 166.706 148.271 167.784C149.774 170.522 151.086 173.639 152.1 177.023C153.943 183.183 154.302 188.584 153.499 192.81Z" fill="#667FFF"/>
<path fill-rule="evenodd" clip-rule="evenodd" d="M153.499 192.81C152.356 194.588 150.758 195.636 148.843 195.636C144.035 195.636 139.034 189.019 137.682 180.868C136.331 172.715 139.137 166.097 143.946 166.097C145.405 166.097 146.883 166.706 148.271 167.784C149.774 170.522 151.086 173.639 152.1 177.023C153.943 183.181 154.302 188.584 153.499 192.81Z" fill="#667FFF"/>
<path fill-rule="evenodd" clip-rule="evenodd" d="M153.414 152.855C152.375 153.749 149.139 157.318 145.468 160.283C142.9 162.358 148.203 172.012 153.516 163.252C154.061 162.353 156.658 158.862 158.679 155.833C160.115 153.683 156.787 149.959 153.414 152.855Z" fill="white"/>
<path fill-rule="evenodd" clip-rule="evenodd" d="M158.283 152.861L149.039 164.224L151.612 165.678C152.24 165.111 152.882 164.321 153.525 163.263C154.069 162.364 156.668 158.873 158.688 155.845C159.302 154.924 159.045 153.716 158.283 152.861Z" fill="#DAE0FF"/>
<path fill-rule="evenodd" clip-rule="evenodd" d="M153.104 152.505C152.065 153.396 148.834 156.962 145.168 159.924C144.273 160.647 144.117 162.155 144.621 163.648C145.296 165.643 147.087 167.544 149.27 167.317C150.68 167.172 152.314 166.131 153.91 163.498C154.453 162.601 157.046 159.117 159.062 156.097C159.582 155.319 159.598 154.37 159.238 153.516C158.754 152.377 157.592 151.419 156.154 151.337C155.221 151.284 154.162 151.598 153.104 152.505ZM153.712 153.214C154.544 152.501 155.368 152.229 156.101 152.27C157.163 152.331 158.02 153.041 158.376 153.881C158.614 154.441 158.627 155.067 158.285 155.577C156.26 158.613 153.656 162.114 153.111 163.014C151.733 165.285 150.391 166.262 149.175 166.388C147.418 166.571 146.048 164.953 145.507 163.349C145.313 162.775 145.226 162.198 145.276 161.692C145.321 161.263 145.463 160.889 145.757 160.65C149.431 157.681 152.672 154.108 153.712 153.214Z" fill="#C7D2FF"/>
<path fill-rule="evenodd" clip-rule="evenodd" d="M153.684 184.538C153.789 185.391 154.264 186.155 154.985 186.625C155.704 187.097 156.594 187.228 157.419 186.984C161.051 185.948 166.608 184.329 168.454 183.596C172.362 182.045 171.433 176.314 168.049 177.309C168.049 177.309 160.292 179.644 156.043 180.92C154.48 181.389 153.484 182.917 153.684 184.536C153.684 184.538 153.684 184.538 153.684 184.538Z" fill="white"/>
<path fill-rule="evenodd" clip-rule="evenodd" d="M170.996 180.17C170.916 181.516 170.13 182.96 168.447 183.627C166.602 184.361 161.045 185.979 157.412 187.015C156.587 187.26 155.697 187.129 154.977 186.657C154.502 186.346 154.131 185.905 153.907 185.395C159.089 183.998 166.225 181.965 170.996 180.17Z" fill="#DAE0FF"/>
<path fill-rule="evenodd" clip-rule="evenodd" d="M153.201 184.598C153.324 185.587 153.875 186.474 154.709 187.02C155.543 187.566 156.575 187.718 157.53 187.436C161.177 186.395 166.755 184.769 168.608 184.032C171.235 182.99 171.894 180.252 171.196 178.478C170.693 177.203 169.533 176.384 167.899 176.865C167.898 176.864 167.897 176.865 167.897 176.865C167.897 176.865 160.139 179.198 155.889 180.475C154.109 181.01 152.974 182.752 153.201 184.598ZM154.129 184.484L154.13 184.482C153.958 183.09 154.815 181.775 156.159 181.371L168.164 177.761C169.236 177.446 169.997 177.983 170.325 178.82C170.873 180.213 170.325 182.346 168.262 183.165C166.425 183.894 160.89 185.505 157.271 186.537C157.269 186.538 157.269 186.538 157.267 186.539C156.575 186.745 155.825 186.634 155.222 186.238C154.618 185.841 154.218 185.201 154.129 184.484Z" fill="#C7D2FF"/>
<path fill-rule="evenodd" clip-rule="evenodd" d="M157.476 180.968C157.476 180.968 169.649 177.799 170.809 177.156C174.172 175.29 173.342 170.028 169.174 171.196L156.955 172.921C152.014 173.892 151.81 181.752 157.476 180.968Z" fill="white"/>
<path fill-rule="evenodd" clip-rule="evenodd" d="M172.89 174.084L153.337 178.39C153.676 180.037 155.03 181.327 157.49 180.986C157.49 180.986 169.663 177.817 170.822 177.174C172.111 176.459 172.784 175.244 172.89 174.084Z" fill="#DAE0FF"/>
<path fill-rule="evenodd" clip-rule="evenodd" d="M157.549 181.443C157.567 181.439 157.585 181.436 157.602 181.432C157.602 181.432 169.875 178.225 171.044 177.575C172.929 176.528 173.626 174.522 173.281 172.948C173.098 172.118 172.629 171.404 171.905 170.979C171.211 170.571 170.268 170.424 169.088 170.748L156.899 172.469C156.89 172.471 156.882 172.472 156.873 172.474C154.59 172.922 153.221 174.706 152.87 176.563C152.631 177.822 152.862 179.108 153.566 180.049C154.325 181.065 155.634 181.707 157.549 181.443ZM157.394 180.519C155.924 180.716 154.9 180.272 154.314 179.489C153.76 178.749 153.599 177.729 153.787 176.737C154.076 175.224 155.182 173.766 157.04 173.393C157.041 173.394 169.249 171.669 169.249 171.669C169.268 171.667 169.289 171.662 169.31 171.656C170.366 171.36 171.174 171.521 171.704 171.979C172.19 172.401 172.43 173.052 172.431 173.747C172.435 174.853 171.835 176.068 170.591 176.758C169.472 177.379 158.027 180.355 157.395 180.519L157.394 180.519Z" fill="#C7D2FF"/>
<path fill-rule="evenodd" clip-rule="evenodd" d="M157.332 173.975C152.626 174.934 150.319 167.625 156.688 165.833C159.658 165.688 160.256 165.663 162.909 165.381C164.317 165.233 169.376 164.839 170.35 164.752C175.016 164.34 175.191 169.315 172.647 170.459C170.98 171.209 169.286 171.614 165.64 172.34C162.579 172.948 159.634 173.918 157.332 173.975Z" fill="white"/>
<path fill-rule="evenodd" clip-rule="evenodd" d="M174.287 167.581C174.347 168.76 173.755 169.969 172.656 170.463C170.989 171.212 169.294 171.617 165.649 172.343C162.588 172.952 159.643 173.921 157.339 173.979C154.803 174.495 152.963 172.608 152.804 170.477C158.176 169.944 169.603 168.726 174.287 167.581Z" fill="#DAE0FF"/>
<path fill-rule="evenodd" clip-rule="evenodd" d="M157.382 174.46C159.7 174.391 162.657 173.427 165.73 172.816C169.428 172.08 171.145 171.664 172.836 170.904C174.899 169.977 175.43 166.877 173.703 165.264C172.986 164.595 171.875 164.167 170.306 164.305C169.332 164.392 164.267 164.785 162.857 164.935C160.217 165.216 158.64 165.312 155.683 165.457C155.647 165.458 155.613 165.463 155.579 165.473C153.5 166.058 153.265 167.129 152.7 168.391C151.349 171.41 153.712 175.176 157.382 174.46ZM157.318 173.527C157.29 173.527 157.262 173.53 157.236 173.535C154.342 174.126 152.491 171.147 153.553 168.773C154.021 167.727 154.069 166.881 155.781 166.387C158.72 166.245 160.309 166.147 162.955 165.866C164.362 165.716 169.416 165.323 170.39 165.237C171.621 165.128 172.503 165.422 173.064 165.947C174.32 167.121 173.953 169.378 172.454 170.052C170.811 170.791 169.14 171.185 165.547 171.899C162.515 172.503 159.6 173.469 157.318 173.527Z" fill="#C7D2FF"/>
<path fill-rule="evenodd" clip-rule="evenodd" d="M145.283 159.807C147.506 161.698 152.531 162.968 154.219 163.001C155.216 163.797 155.845 165.412 157.723 169.592C159.599 173.772 161.271 183.16 159.359 186.939C155.504 188.203 148.076 190.021 145.284 190.359C140.88 190.892 132.642 176.955 136.217 166.864C140.059 163.876 143.081 161.352 145.283 159.807Z" fill="#B5C4FF"/>
<path fill-rule="evenodd" clip-rule="evenodd" d="M135.631 175.682C137.85 181.998 142.268 184.796 150.517 183.2C154.128 182.502 157.447 181.54 160.173 180.683C160.305 183.182 160.1 185.464 159.365 186.916C155.509 188.183 148.081 190.001 145.289 190.339C142.1 190.723 136.9 183.518 135.631 175.682Z" fill="#89A1FF"/>
<path fill-rule="evenodd" clip-rule="evenodd" d="M156.825 114.446C160.487 115.828 164.571 118.959 168.668 123.097C180.058 134.599 191.627 153.841 194.786 163.813C195.489 166.031 195.772 167.812 195.585 168.973C195.431 169.929 194.971 170.52 194.249 170.738C194.001 170.811 193.741 170.671 193.666 170.425C193.593 170.177 193.733 169.917 193.979 169.842C194.379 169.722 194.577 169.353 194.663 168.825C194.834 167.757 194.54 166.131 193.895 164.095C190.765 154.213 179.29 135.152 168.004 123.755C163.401 119.107 158.844 115.728 154.896 114.833C155.541 114.677 156.184 114.547 156.825 114.446Z" fill="#CFD7FF"/>
<path d="M194.249 179.856C199.586 175.243 202.004 169.296 199.65 166.573C197.296 163.849 191.062 165.381 185.725 169.993C180.388 174.605 177.97 180.552 180.324 183.276C182.678 185.999 188.913 184.468 194.249 179.856Z" fill="#5474FF"/>
<path fill-rule="evenodd" clip-rule="evenodd" d="M199.403 166.325C199.49 166.406 199.574 166.494 199.654 166.586C202.006 169.307 199.585 175.258 194.253 179.868C188.92 184.478 182.681 186.009 180.328 183.288C177.976 180.566 180.395 174.615 185.728 170.005C186.021 169.753 186.317 169.508 186.614 169.275C190.752 169.768 195.243 169.206 199.403 166.325Z" fill="#4364FF"/>
<path fill-rule="evenodd" clip-rule="evenodd" d="M200.315 167.733C201.357 170.758 198.92 175.821 194.253 179.856C188.92 184.466 182.681 185.998 180.328 183.276C179.49 182.307 179.258 180.927 179.546 179.344C185.999 182.301 195.725 179.838 200.315 167.733Z" fill="#2D3CE7"/>
</svg>
