<svg width="270" height="270" viewBox="0 0 270 270" fill="none" xmlns="http://www.w3.org/2000/svg">
<g id="Dogecoin">
<g id="background" filter="url(#filter0_d)">
<path fill-rule="evenodd" clip-rule="evenodd" d="M135 2C204.036 2 260 57.9642 260 127C260 196.036 204.036 252 135 252C65.9642 252 10 196.036 10 127C10 57.9642 65.9642 2 135 2Z" fill="url(#paint0_linear)"/>
</g>
<g id="dogecoin-doge-logo">
<path id="Shape" fill-rule="evenodd" clip-rule="evenodd" d="M70.28 114.719C69.6286 114.124 68.9404 113.527 68.3075 112.933C67.6745 112.338 67.0244 111.741 66.373 111.147L64.4374 109.307C64.1209 108.99 63.786 108.712 63.4695 108.394C63.153 108.115 62.7814 107.799 62.4649 107.519C59.8962 105.082 57.3129 102.644 54.7798 100.206C57.4036 102.606 59.9723 104.99 62.5961 107.426L63.5075 108.339C63.824 108.654 64.1589 108.934 64.4754 109.25L66.4098 111.036C67.0612 111.631 67.6942 112.227 68.3455 112.876C68.9969 113.525 69.6298 114.122 70.2812 114.716L70.28 114.719ZM36.1875 114.351C36.1875 114.351 45.5286 115.317 50.0881 115.969C54.3115 116.565 67.5239 118.592 67.5239 118.592L36.1875 114.351ZM36.1887 114.351C38.8126 114.574 41.4364 114.852 44.0602 115.132C45.3998 115.262 46.6841 115.41 47.9684 115.54L49.9397 115.765C50.591 115.857 51.224 115.95 51.8753 116.043L59.6917 117.29L63.5986 117.941C64.8829 118.164 66.1672 118.407 67.5068 118.63C66.2224 118.5 64.8829 118.314 63.5986 118.127L59.6917 117.569L51.8753 116.416C51.224 116.323 50.591 116.192 49.9397 116.1L47.9672 115.873C46.6829 115.743 45.3433 115.556 44.059 115.407C41.4352 115.091 38.8113 114.755 36.1875 114.347L36.1887 114.351ZM66.5945 121.026C66.5945 121.026 56.6205 123.558 53.252 124.526C49.9401 125.437 39.9096 128.489 39.9096 128.489L66.5933 121.027L66.5945 121.026Z" fill="#CFB66C"/>
<path id="Shape_2" fill-rule="evenodd" clip-rule="evenodd" d="M66.5962 121.026C64.382 121.677 62.1802 122.31 59.9341 122.907L53.2721 124.693C51.058 125.344 48.8561 125.977 46.6481 126.628L43.3361 127.54C42.2382 127.856 41.122 128.135 39.9873 128.452C41.0839 128.084 42.2014 127.708 43.2993 127.391L46.6113 126.331C48.8254 125.642 51.0273 124.991 53.2353 124.303C55.4862 123.744 57.7016 123.148 59.9525 122.609C62.0918 122.069 64.344 121.53 66.5962 121.027V121.027V121.026ZM41.3069 134.63C42.4035 134.22 55.0578 128.322 57.9981 126.945C59.4701 126.255 63.7487 124.737 63.7487 124.737L41.3069 134.63Z" fill="#CFB66C"/>
<path id="Shape_3" fill-rule="evenodd" clip-rule="evenodd" d="M41.3088 134.63C42.2755 134.262 43.1881 133.812 44.1179 133.384L46.8718 132.099L52.3991 129.439C54.2391 128.564 56.0276 127.599 57.9253 126.777C58.8931 126.368 59.8609 126.033 60.8276 125.717L62.2996 125.252C62.8013 125.122 63.2674 124.972 63.7716 124.842C61.9316 125.717 59.9947 126.462 58.1522 127.317C56.3122 128.229 54.4305 128.974 52.5316 129.792L46.9123 132.266C45.0256 133.03 43.1856 133.849 41.3076 134.63V134.63H41.3088ZM42.5379 139.782C42.5379 139.782 53.9998 133.065 57.9448 130.906C60.0105 129.753 66.6909 126.439 66.6909 126.439L42.5379 139.782Z" fill="#CFB66C"/>
<path id="Shape_4" fill-rule="evenodd" clip-rule="evenodd" d="M42.5371 139.784C44.4716 138.593 46.444 137.384 48.4165 136.156L51.3605 134.369C52.3652 133.774 53.333 133.216 54.3573 132.621C55.3619 132.024 56.3297 131.429 57.3528 130.871C57.8398 130.571 58.3501 130.309 58.8788 130.09L60.4415 129.309C62.5072 128.304 64.5729 127.28 66.7503 126.405C64.7778 127.653 62.7489 128.714 60.7212 129.81C59.7166 130.368 58.6923 130.871 57.6877 131.429C56.683 131.988 55.7152 132.584 54.6909 133.124C53.6863 133.718 52.7184 134.277 51.6954 134.816L48.6619 136.472L42.5396 139.784V139.784H42.5371ZM66.5938 127.911C66.5938 127.911 59.4669 133.382 57.1595 135.132C54.8522 136.881 48.0601 141.794 48.0601 141.794L66.5938 127.911V127.911Z" fill="#CFB66C"/>
<path id="Path" fill-rule="evenodd" clip-rule="evenodd" d="M107.498 172.032L103.852 165.128L105.972 156.494L121.101 150.651L114.662 137.44L117.844 124.098L123.818 112.15L142.278 109.248L155.843 96.3149L185.133 98.529L190.882 129.847L179.81 169.278L173.503 189.692L147.934 190.66L136.063 182.435L122.162 176.628L107.498 172.032V172.032Z" fill="#E2CC85"/>
<path id="Path_2" fill-rule="evenodd" clip-rule="evenodd" d="M152.343 171.809C152.343 171.809 148.806 173.428 142.775 173.055C141.029 170.711 128.804 169.613 128.804 169.613C128.804 169.613 127.278 169.148 124.579 170.265C121.864 171.369 119.295 171.232 116.894 171.827C114.494 172.422 112.11 169.297 110.27 168.645C108.43 167.957 105.991 166.301 105.991 166.301L100.839 165.798L90.4928 161.425L74.0567 145.05L69.5904 152.042L68.2129 160.695L73.1821 170.949L86.5614 183.137L112.65 189.761L128.113 185.205L147.485 177.017L152.343 171.808V171.809Z" fill="#F1D789"/>
<path id="Path_3" fill-rule="evenodd" clip-rule="evenodd" d="M59.6557 113.937L62.9677 103.908L66.9139 97.4312L79.6221 96.3702L75.8072 107.498L65.183 126.405L69.5929 143.283L61.7778 147.19L59.376 143.506L57.4416 135.058L57.3115 125.567L59.6557 113.937V113.937Z" fill="#F4ECB4"/>
<path id="Path_4" fill-rule="evenodd" clip-rule="evenodd" d="M73.9088 171.121L71.4714 167.715C71.4714 167.715 70.82 166.096 71.1929 164.682C71.5609 163.249 71.5082 163.156 71.323 162.616C71.1377 162.076 69.5737 160.216 69.667 158.615C69.759 156.996 69.5369 156.456 70.7268 155.173C71.9731 153.927 71.6014 151.768 71.6014 151.768L73.2206 152.772L73.5886 152.214C73.5886 152.214 74.1835 152.679 74.1835 153.405C74.3136 152.401 73.7738 147.748 75.0017 146.688C76.2296 145.628 78.407 151.656 78.407 151.656L77.0674 142.91L73.6242 133.942L67.5019 125.754L67.1339 116.728V115.946C67.1339 115.946 64.3236 120.264 63.5422 123.674C62.9841 126.019 64.3236 128.866 64.0451 132.234C63.8207 135.584 63.5422 135.323 64.3604 136.65C65.1786 137.977 67.1707 140.707 66.3893 142.679C65.7011 144.373 63.3558 143.182 63.3558 143.182C63.3558 143.182 62.8909 144.558 62.2579 145.061C62.0346 144.243 61.793 143.722 61.3465 143.221C61.3085 143.538 61.2165 143.966 61.2165 143.966C61.2165 143.966 60.8067 142.682 60.397 141.062C59.8401 138.905 59.244 136.058 58.7042 134.532C58.481 135.406 57.9229 138.067 57.9229 138.067L58.2393 142.162L59.7653 147.781L61.2373 151.461L62.6701 155.964L63.9151 158.989L64.9198 161.296L65.7944 166.489L70.0178 170.954L72.2699 171.96L73.9063 171.122V171.122L73.9088 171.121Z" fill="#F3E19D"/>
<path id="Path_5" fill-rule="evenodd" clip-rule="evenodd" d="M61.869 105.749C61.869 105.749 58.8354 110.901 57.962 116.095C57.0887 121.289 56.306 126.777 56.858 133.847C57.4162 140.975 58.4772 145.347 59.3335 148.474C60.8055 153.667 64.6179 160.887 64.6179 160.887L64.748 160.607C64.1071 159.392 63.5957 158.114 63.222 156.792C62.7191 154.82 62.5326 152.475 62.0677 151.414C61.658 150.355 60.9698 149.442 60.635 148.139C60.3185 146.893 60.267 144.92 59.2954 143.451C58.8857 142.855 58.3828 141.292 58.2344 139.729C58.0479 137.384 58.3276 134.76 58.1043 132.602C57.6946 129.011 57.4162 126.573 57.7879 124.693C58.1595 122.812 60.0964 117.474 61.2875 113.231C62.0689 110.514 61.6028 108.225 63.0355 105.861C64.4683 103.517 65.3441 101.451 65.6594 100.018C66.0274 98.7155 61.8641 105.749 61.8641 105.749V105.749H61.869Z" fill="#F2E8B0"/>
<path id="Path_6" fill-rule="evenodd" clip-rule="evenodd" d="M76.2531 103.684C76.2531 103.684 74.6904 104.15 73.9458 104.968C73.2012 105.749 72.8847 106.401 71.8801 107.722C70.8754 109.043 70.819 110.122 69.9996 111.778C69.1814 113.398 67.3757 115.835 67.1525 116.71C66.9292 117.584 66.5576 121.678 66.0926 123.613C65.6829 125.549 66.5576 127.931 66.5576 127.931L67.6174 127.707C67.6174 127.707 67.6174 129.084 68.6785 130.015C69.7383 130.927 69.9248 126.925 69.9248 126.925L73.8881 113.546L79.8608 109.489L80.5121 106.214L76.2507 103.684V103.684H76.2531Z" fill="#F5EEC0"/>
<path id="Path_7" fill-rule="evenodd" clip-rule="evenodd" d="M79.1545 109.751C79.1545 109.751 76.3442 109.936 74.9679 110.942C74.4098 111.35 74.1865 111.685 73.5916 112.188C72.4937 113.099 71.3762 113.937 70.8377 115.132C70.2416 116.322 69.5902 118.128 69.1437 121.533C68.9572 122.966 68.9572 124.287 68.8272 125.441C68.6408 127.004 68.3623 128.25 68.5107 129.121C68.6972 130.907 70.5396 131.838 70.7187 133.866L74.5337 131.931L78.1254 117.769L85.7552 112.985L81.4374 108.147L79.1496 109.742V109.742L79.1545 109.751Z" fill="#E6DB9D"/>
<path id="Path_8" fill-rule="evenodd" clip-rule="evenodd" d="M59.0305 205.113C59.0465 204.973 59.0624 204.833 59.0784 204.69C59.6353 199.906 59.7297 196.28 60.1382 194.009C60.7331 190.79 61.1428 189.593 61.0496 188.389C60.9196 186.454 60.7712 185.04 60.9576 183.551C61.2361 181.578 63.1718 179.234 63.1166 177.615C63.0785 176.33 62.4272 175.494 61.869 174.712C61.3109 173.931 60.8644 173.28 60.8644 173.28C60.8644 173.28 64.6793 170.656 64.6425 160.086C64.7204 160.108 64.7954 160.139 64.8658 160.179L66.745 165.519L68.0294 167.081L72.9606 176.274L79.3061 182.434L88.684 188.742L94.5646 195.141L95.1595 212.205L87.4745 222.18L86.2159 224.459C76.217 219.439 67.048 212.914 59.0293 205.112L59.0305 205.113Z" fill="#E5CB7A"/>
<path id="Path_9" fill-rule="evenodd" clip-rule="evenodd" d="M82.5068 221.437C82.5068 221.437 82.6369 219.316 84.3861 217.939C84.6658 218.404 84.851 218.852 84.7958 219.185C85.1123 218.628 87.3264 215.055 92.3324 214.124C97.3385 213.213 98.548 209.566 98.548 209.566L109.172 199.908L121.323 188.725L136.099 183.532L143.004 181.838C143.004 181.838 143.134 182.341 142.874 183.457C144.157 183.365 147.004 182.714 149.962 181.671C151.154 181.206 152.271 181.02 152.866 181.635C153.741 182.453 153.871 184.388 153.926 185.541C155.359 185.225 157.015 183.849 158.342 183.979C160.464 184.202 162.343 186.696 164.502 186.696C167.349 186.696 168.632 184.947 170.624 183.569C171.816 182.751 173.527 181.729 174.495 181.038C176.802 179.344 201.216 171.883 201.216 171.883L209.776 172.441L211.153 181.633L210.417 205.664C210.327 205.751 210.236 205.842 210.144 205.929L171.224 226.256L117.275 234.526C105.191 232.551 93.5288 228.54 82.7865 222.663L82.5105 221.436V221.436L82.5068 221.437Z" fill="#D8C173"/>
<path id="Path_10" fill-rule="evenodd" clip-rule="evenodd" d="M62.3027 208.17C63.0694 206.566 63.7588 205.226 63.8802 204.746C63.9759 205.713 64.1513 207.834 64.5046 210.088C63.7629 209.458 63.0289 208.818 62.3027 208.169V208.17Z" fill="#F1D789"/>
<path id="Path_11" fill-rule="evenodd" clip-rule="evenodd" d="M101.711 230.785L108.688 228.844L109.283 229.031C109.283 229.031 109.599 229.217 109.599 229.849C110.474 229.347 111.219 229.439 111.758 229.105C112.037 229.7 112.315 231.673 113.544 231.914C114.827 232.194 116.205 231.356 117.601 230.296C118.977 229.199 120.545 227.821 121.731 227.263C122.166 228.063 122.552 228.889 122.885 229.737C124.448 228.491 127.165 223.43 131.035 223.522C132.154 220.878 134.023 218.62 136.411 217.028C140.002 214.59 142.253 214.404 145.064 214.627C146.18 213.177 147.555 211.947 149.12 210.999C149.585 211.185 150.869 211.966 152.47 211.222C154.089 210.478 155.912 207.593 158.313 207.222C159.606 207.044 160.922 207.32 162.035 208.003C162.035 208.003 169.027 201.061 173.851 198.754C173.665 198.196 173.293 196.093 178.949 191.441C179.266 191.72 179.042 192.502 179.266 192.545C179.358 192.545 180.738 191.95 182.484 190.609C184.643 188.991 187.229 187.297 188.792 186.832C191.736 185.957 194.859 187.743 194.859 187.743C195.124 187.557 195.42 187.418 195.734 187.334C196.477 187.204 197.017 187.11 197.426 186.966C197.39 187.933 197.929 189.589 197.426 191.022C198.009 191.35 198.626 191.612 199.266 191.804C198.951 192.492 198.262 194.241 197.109 195.079C198.075 195.544 198.205 196.083 199.583 196.551C199.025 197.332 198.111 198.673 197.704 199.495C197.294 200.369 195.823 203.998 195.172 205.374C194.484 206.752 193.554 209.282 193.106 209.79C192.658 210.298 191.04 212.451 189.794 213.511C190.898 213.101 195.415 211.725 197.331 211.203C196.76 212.04 193.869 216.33 191.089 220.455C164.166 236.592 131.6 240.362 101.702 230.803L101.711 230.785Z" fill="#E0CD81"/>
<path id="Path_12" fill-rule="evenodd" clip-rule="evenodd" d="M79.6157 109.248C79.6157 109.248 77.9977 109.248 77.6812 109.471C77.3647 109.694 79.3004 110.16 79.8953 110.384C80.4903 110.607 81.7746 111.63 82.1095 112.449C82.426 113.231 93.7395 117.789 93.7395 117.789L101.741 117.379L104.5 113.568L99.2521 108.972L102.932 98.123L98.0574 98.9044L86.3341 105.896L80.4535 108.149L79.6157 109.248V109.248Z" fill="#DFC57C"/>
<path id="Path_13" fill-rule="evenodd" clip-rule="evenodd" d="M97.1866 112.839C97.4221 113.221 97.8428 113.447 98.2906 113.434C99.9466 113.434 101.471 113.844 102.104 114.681C103.165 116.021 106.106 120.301 106.106 120.301L113.139 122.832L113.593 114.549L105.908 109.21L97.1621 112.428V112.838H97.1817L97.1866 112.839Z" fill="#E5CC7C"/>
<path id="Path_14" fill-rule="evenodd" clip-rule="evenodd" d="M95.8067 115.91C95.8067 115.91 97.0898 116.003 98.709 115.407C100.328 114.811 102.989 113.528 104.143 114.03C105.761 114.719 105.426 116.878 107.177 118.814C108.237 120.006 110.172 119.969 111.27 121.253C112.368 122.537 116.145 121.941 116.145 121.941L117.578 129.669L111.828 137.039L109.948 146.194H102.173L95.0707 143.376L91.5723 134.912L93.3215 126.352L95.8067 115.91V115.91Z" fill="#D2C281"/>
<path id="Path_15" fill-rule="evenodd" clip-rule="evenodd" d="M110.845 116.281C111.038 116.341 111.238 116.372 111.44 116.375C111.217 116.561 110.751 116.97 110.937 118.031C111.124 119.092 111.719 120.431 111.217 121.249C111.617 121.687 111.916 122.208 112.092 122.775C112.408 123.688 112.501 124.525 114.566 124.656C114.268 124.839 113.993 125.058 113.748 125.307C113.748 125.307 115.18 126.553 115.906 127.707C116.65 127.675 118.622 127.061 118.622 127.061L119.032 127.341L119.907 126.973C119.907 126.973 119.088 126.657 119.683 124.666C120.241 122.916 120.744 123.01 120.787 122.88C120.83 122.75 121.197 120.907 121.197 120.163C121.476 119.196 121.699 116.256 121.699 116.256L121.104 109.762L117.755 107.733L115.032 105.104L112.463 109.942L110.772 111.629L110.642 115.815L110.845 116.281V116.281Z" fill="#E2C270"/>
<path id="Path_16" fill-rule="evenodd" clip-rule="evenodd" d="M118.904 110.848C118.904 110.848 119.499 112.541 119.724 113.844C119.803 113.591 119.847 113.328 119.854 113.063C119.854 113.063 120.319 115.631 120.411 116.692C120.597 116.654 120.779 116.599 120.82 116.784C120.862 116.969 121.286 119.036 121.188 120.189C121.963 118.911 123.036 117.839 124.314 117.064C125.058 116.598 125.933 116.096 126.846 116.058C128.278 116.021 129.32 116.971 131.032 116.971C135.163 116.971 138.904 113.937 141.658 113.007C143.685 112.318 145.435 111.816 146.663 110.699C147.259 110.197 148.32 109.081 149.286 107.424C150.571 105.216 151.91 103.293 153.251 103.052C152.644 103.163 152.027 103.207 151.411 103.182C151.411 103.182 151.821 102.772 152.515 102.214C153.209 101.656 154.041 100.968 155.231 100.968C157.353 100.968 158.413 101.283 159.604 101.283C160.795 101.246 161.483 100.968 161.483 100.968C161.483 100.968 162.731 101.842 165.54 101.842C168.35 101.879 170.229 102.121 171.7 102.252C173.171 102.383 178.101 101.842 179.515 101.884C180.437 101.919 181.343 102.141 182.177 102.535L177.617 89.2873L161.239 74.9721L151.488 81.8758L136.489 96.8742L121.975 102.252L118.941 105.657V110.848H118.904Z" fill="#CCB360"/>
<path id="Path_17" fill-rule="evenodd" clip-rule="evenodd" d="M151.472 103.255C151.472 103.255 151.881 102.847 152.568 102.289C153.255 101.731 154.095 101.041 155.285 101.041C157.406 101.041 158.467 101.358 159.658 101.358C160.849 101.321 161.538 101.041 161.538 101.041C161.538 101.041 162.786 101.915 165.594 101.915C168.405 101.952 170.284 102.193 171.755 102.323C173.225 102.453 178.155 101.915 179.57 101.955C180.491 101.99 181.397 102.212 182.23 102.607L180.165 96.6327L177.765 92.0744L170.917 84.5746C170.917 84.5746 162.698 79.7366 162.635 79.6998C162.599 79.663 159.788 78.9184 159.788 78.9184L152.345 83.4215L145.591 100.895L145.461 104.575L149.833 106.641C150.931 104.801 152.141 103.329 153.276 103.143C152.252 103.254 151.47 103.254 151.47 103.254V103.254L151.472 103.255Z" fill="#D5B457"/>
<path id="Path_18" fill-rule="evenodd" clip-rule="evenodd" d="M151.376 104.503C150.724 104.54 150.186 104.41 150.036 103.945C149.478 102.382 149.032 102.159 148.564 102.159C148.097 102.159 147.466 103.163 147.092 103.255C146.718 103.347 146.274 102.102 146.274 102.102L145.864 101.916C145.864 101.916 143.464 103.479 141.771 105.321C140.078 107.164 137.305 110.29 136.058 110.847C134.812 111.404 130.531 111.592 129.066 111.908C127.602 112.225 125.978 113.286 125.754 113.528C125.531 113.769 126.407 114.029 126.537 114.271C126.667 114.494 125.103 114.401 124.973 114.639C124.881 114.825 125.341 115.885 125.569 116.425C125.968 116.226 126.406 116.118 126.852 116.108C128.285 116.072 129.328 117.021 131.039 117.021C135.17 117.021 138.91 113.988 141.664 113.056C143.693 112.368 145.442 111.865 146.67 110.749C147.265 110.247 148.326 109.13 149.294 107.474C150.001 106.339 150.69 105.278 151.379 104.497V104.497L151.376 104.503Z" fill="#D2B257"/>
<path id="Path_19" fill-rule="evenodd" clip-rule="evenodd" d="M92.1303 196.596C92.1303 196.596 91.7623 195.219 88.3521 191.665C87.3843 190.66 86.7894 189.825 86.138 189.228C84.5188 187.7 83.5694 187.292 82.4163 186.417C79.8857 184.538 77.1318 184.538 75.0109 182.231C72.89 179.923 70.4183 175.515 68.7009 171.009C67.0081 166.506 66.542 165.073 66.542 164.943C66.542 164.813 67.0081 163.939 67.6031 164.069C68.198 164.199 68.198 165.352 68.3476 165.631C68.6441 166.088 68.9802 166.517 69.3523 166.914C70.2269 167.92 71.4732 169.122 72.1062 170.916C71.9761 169.39 71.4548 167.697 71.4548 167.697C71.4548 167.697 74.73 169.763 77.5207 171.921C80.331 174.079 81.484 174.824 82.3047 176.2C83.1253 177.577 85.0585 181.206 85.9847 182.267C86.9108 183.329 99.6007 187.329 99.6007 187.329L105.637 191.829L108.634 198.398L106.288 202.078L101.785 203.046L94.472 199.771L92.1303 196.595V196.595V196.596Z" fill="#D2B159"/>
<path id="Path_20" fill-rule="evenodd" clip-rule="evenodd" d="M75.8809 173.968C75.8809 173.968 77.4068 176.405 81.1285 178.713C84.4786 180.742 89.7814 182.584 94.509 183.682C97.2249 184.333 99.9419 184.835 102.379 184.873C108.948 184.965 113.47 183.087 119.072 182.472C122.105 182.156 125.827 181.914 129.697 181C134.665 179.809 137.605 178.468 141.607 176.584C144.509 175.245 147.171 174.24 149.329 172.956C152.362 171.17 154.576 169.179 157.145 168.584C156.829 169.459 156.494 171.021 153.963 172.641C155.303 172.603 157.145 172.511 157.145 172.511C157.145 172.511 155.359 173.57 152.214 175.953C150.278 177.425 147.711 179.916 145.087 181.572C143.393 182.633 141.55 183.412 140.341 184.047C137.397 185.667 136.21 186.485 134.275 188.463C134.963 188.427 135.02 188.463 135.02 188.463C135.02 188.463 132.581 188.78 130.833 189.71C130.465 189.71 129.827 189.58 128.711 189.896C127.836 190.175 126.682 190.809 125.492 191.142C123.798 191.645 123.241 191.422 123.241 191.422L123.52 191.98C123.52 191.98 121.312 191.942 120.576 192.017C120.706 192.054 120.669 192.11 120.669 192.11C120.54 192.132 120.415 192.176 120.301 192.24C119.947 192.47 119.557 192.639 119.148 192.742C118.925 192.779 118.738 192.779 118.458 192.835C118.552 193.058 119.278 194.307 119.613 195.043C119.334 195.23 115.146 198.393 115.146 198.393C115.276 198.598 115.383 198.816 115.463 199.045C115.593 199.453 115.649 200.049 115.779 200.328C116.095 200.886 116.281 200.979 116.281 200.979C116.281 200.979 115.779 201.072 114.904 201.296C114.16 201.482 113.248 201.797 111.96 201.984C111.564 202.035 111.167 202.066 110.768 202.077C110.955 202.487 111.773 204.049 110.266 205.854C108.758 207.658 108.293 207.921 107.828 209.074C107.594 208.897 107.345 208.741 107.084 208.608C106.582 208.384 105.892 208.051 105.651 207.603C105.51 208.2 105.323 208.784 105.093 209.352C104.628 210.599 103.94 211.828 103.81 212.758C103.307 212.199 102.377 211.102 101.093 211.325C99.8082 211.548 98.7852 213.297 98.5619 213.8C98.5619 213.484 98.3387 213.242 98.2835 213.614C98.2454 214.023 97.5389 218.302 93.5939 221.764C93.5571 220.889 93.5571 218.953 93.4639 218.322C93.0959 218.69 92.6457 219.233 89.9654 220.387C87.3416 221.54 87.7574 222.695 87.7574 222.695C87.7574 222.695 87.5342 220.855 88.9485 218.917C90.3813 216.982 91.2559 216.07 91.2559 215.921C91.2328 215.77 91.1682 215.628 91.0694 215.511C90.883 215.325 90.5113 215.102 90.5113 214.953C90.7346 214.861 92.9487 213.8 92.8187 211.603C92.6886 209.632 91.8521 208.608 91.2559 207.883C91.1639 207.79 92.1317 207.101 92.0005 206.878C91.9073 206.748 90.7174 205.872 90.5677 205.406C90.6029 205.128 90.6654 204.854 90.7542 204.588C90.8842 204.178 90.9774 203.899 90.9406 203.62C90.8474 203.155 90.3445 201.871 90.1961 201.741C90.3261 201.778 91.2559 201.741 91.2559 201.741C91.2559 201.741 90.5125 200.55 90.3813 199.992C90.25 199.433 89.9716 197.963 89.8232 197.684C90.1396 197.721 90.921 197.776 90.921 197.684C90.959 197.405 90.2329 196.94 90.553 196.58C90.7763 196.617 91.2044 196.803 91.6129 197.325C91.3896 196.729 91.0179 195.576 90.2353 195.111C90.6033 194.981 91.8545 194.645 92.9524 195.296C94.0502 195.947 94.4244 196.859 94.4244 196.859C94.4244 196.859 95.0757 197.362 96.0816 198.106C97.2347 199.018 98.7042 200.314 101.05 201.232C101.553 201.511 102.836 201.511 103.767 201.325C104.172 201.228 104.561 201.072 104.92 200.86C105.049 200.784 105.187 200.721 105.329 200.674C105.129 200.272 104.899 199.886 104.641 199.519C104.958 199.519 105.329 199.557 105.329 199.557C105.329 199.557 105.553 199.054 104.548 198.085C104.771 197.862 105.051 197.717 105.051 197.341C104.735 197.304 104.176 196.839 104.046 196.653C104.232 196.523 104.511 196.094 104.828 195.964C104.548 195.741 103.86 194.81 103.543 194.718C103.846 194.606 104.138 194.469 104.418 194.308C104.418 194.308 102.855 193.899 102.352 193.564C101.849 193.196 101.106 192.559 100.66 192.373C100.193 192.186 99.3752 192.094 99.0403 191.721C99.3556 191.815 99.8585 191.721 100.231 191.721C100.51 191.721 100.641 191.758 100.733 191.758C100.696 191.628 100.696 191.348 101.423 191.256C101.772 191.204 102.111 191.097 102.427 190.94C102.427 190.94 101.738 190.903 100.955 190.159C100.173 189.414 99.5224 188.819 99.0759 188.726C98.611 188.633 97.7364 189.042 97.1966 189.004C96.4521 188.912 96.1356 188.539 96.1356 188.539C96.1356 188.539 93.6614 188.763 88.1721 185.414C83.4261 182.51 81.3604 179.943 81.3604 179.943C80.9162 179.782 80.4869 179.582 80.0773 179.347C78.2913 178.417 75.8158 176.481 75.8907 173.949V173.949L75.8809 173.968Z" fill="#C2A44D"/>
<path id="Path_21" fill-rule="evenodd" clip-rule="evenodd" d="M144.34 62.2799C144.77 62.4197 145.153 62.6777 145.444 63.0245C146.319 64.0291 146.877 65.9267 144.886 67.9557C145.667 68.2341 145.99 68.3237 146.672 68.2341C145.984 69.0535 144.421 70.8027 144.328 72.3287C144.234 73.575 145.016 73.9479 145.016 73.9479C145.016 73.9479 143.825 75.3242 143.77 77.6279C144.332 76.9936 144.948 76.4084 145.61 75.8787C146.987 74.7808 148.885 73.5345 150.169 72.7531C150.152 73.0806 150.196 73.4085 150.299 73.7198C150.299 73.7198 152.698 71.7473 154.715 72.6231C155.627 73.0328 155.217 74.3159 155.217 74.3159C155.217 74.3159 156.464 73.851 157.339 74.7256C158.214 75.6002 159.45 77.8561 160.084 78.7307C160.363 79.1404 161.089 79.9218 161.832 81.1313C162.848 82.8246 163.696 84.613 164.364 86.471C164.401 85.5031 164.643 83.9968 167.398 84.945C170.152 85.9128 173.277 87.9417 175.901 91.937C178.525 95.9322 179.175 100.443 180.496 102.16C181.836 103.816 183.213 106.57 183.306 107.724C183.4 108.878 182.897 112.599 185.65 122.666C186.432 119.541 187.623 112.599 187.623 112.599L188.274 106.477L189.019 87.5333L169.238 71.0996L153.774 59.8781L143.707 60.8459L144.339 62.2786V62.2786L144.34 62.2799Z" fill="#CAA13E"/>
<path id="Path_22" fill-rule="evenodd" clip-rule="evenodd" d="M181.094 90.4711C181.094 90.4711 180.814 88.6311 176.163 85.5031C171.51 82.4143 167.882 82.4143 164.533 79.7905C161.964 77.7248 159.285 72.9788 157.541 71.416C155.847 69.8717 155.568 65.4054 155.568 65.4054L161.281 60.6214L169.777 48.3412L176.959 40.4329L180.401 45.2169L185.185 50.8363L187.846 62.113L188.813 78.619L181.085 90.4723L181.094 90.4711Z" fill="#B59544"/>
<path id="Path_23" fill-rule="evenodd" clip-rule="evenodd" d="M186.845 110.256C186.986 107.753 186.677 105.245 185.932 102.851C184.706 99.0357 182.025 92.262 180.78 89.7253C180.277 86.915 180.65 86.6917 181.19 86.3753C181.73 86.0588 183.759 84.9033 184.87 80.8491C185.981 76.795 189.429 76.6625 189.429 76.6625L191.55 75.0997L194.77 83.1565L197.579 90.4331L198.454 95.9972L199.105 100.742L197.579 110.772L190.044 117.583L186.844 110.256V110.256H186.845Z" fill="#C89D3A"/>
<path id="Path_24" fill-rule="evenodd" clip-rule="evenodd" d="M81.6865 222.053V221.847C81.8431 221.749 81.9814 221.625 82.095 221.479C82.225 221.293 82.3195 221.069 82.4115 221.014C82.5979 220.921 83.4726 220.646 83.9375 220.734C84.4024 220.823 85.6315 221.329 86.2828 221.293C87.6224 221.256 89.1851 220.232 91.6606 220.698C95.3823 221.386 96.2569 223.916 98.4158 225.349C99.8878 226.355 101.411 225.907 101.635 225.907H102.136C102.23 225.907 102.918 225.126 103.291 225.164C104.035 225.201 104.109 225.815 104.574 225.852C105.672 225.982 107.794 225.294 108.855 225.574C109.493 225.774 109.994 226.274 110.194 226.912C110.418 227.6 110.231 228.475 109.691 228.978C108.538 230.038 107.44 231.043 107.217 231.922C107.501 232.138 107.774 232.369 108.034 232.614C98.827 230.268 89.9684 226.721 81.6865 222.064V222.053Z" fill="#CEB052"/>
<path id="Path_25" fill-rule="evenodd" clip-rule="evenodd" d="M180.776 184.873C180.776 184.873 183.679 181.003 184.685 179.086C185.689 177.109 181.503 152.085 181.503 152.085L189.914 124.527L189.689 115.558C189.689 115.558 190.099 107.276 191.067 103.685C192.221 105.75 195.813 108.244 196.594 109.565C196.962 107.034 198.212 101.694 198.027 95.9997C198.715 97.0595 200.371 107.723 200.371 107.723L202.027 114.905L204.186 122.535L206.587 130.593L208.019 136.157L208.838 137.497L209.527 139.841L210.178 142.373L212.058 148.308L213.162 153.183L214.036 162.023C214.226 162.699 214.363 163.39 214.446 164.088C214.483 165.056 214.316 165.614 214.316 165.782C214.316 165.95 214.632 167.903 214.502 169.374C214.316 170.846 214.316 171.998 213.162 173.054C212.007 174.11 211.282 180.423 211.282 180.423L209.217 179.046C209.217 179.046 209.626 177.166 208.659 175.455C207.691 173.743 205.811 173.389 204.75 173.669C203.691 173.892 201.57 174.225 200.88 174.822C200.229 175.417 198.629 177.259 197.159 178.097C195.319 179.201 192.321 179.288 190.721 179.66C189.102 180.028 187.316 181.132 185.435 182.413C183.961 183.368 182.404 184.189 180.784 184.867V184.867L180.776 184.873Z" fill="#CCA847"/>
<path id="Path_26" fill-rule="evenodd" clip-rule="evenodd" d="M180.776 225.532C180.776 225.532 180.899 225.612 181.136 225.742C194.356 219.548 206.202 210.768 215.973 199.92C215.866 196.155 215.728 192.294 215.576 190.864C215.26 187.83 215.484 184.742 215.39 182.956C215.297 181.17 214.293 173.893 213.828 172.014C213.325 170.134 212.356 169.203 212.208 169.203C212.078 169.241 211.296 172.74 211.296 173.619C211.296 174.499 211.109 176.616 211.109 177.156C210.979 177.118 210.924 176.788 210.924 176.653C210.738 177.118 210.514 177.937 210.421 178.031C210.328 178.124 210.551 177.249 210.421 177.063C210.291 176.876 210.053 176.969 210.105 176.505C210.127 176.229 210.17 175.955 210.235 175.686C210.235 175.686 209.677 176.505 209.268 178.589C208.858 180.654 208.858 180.711 208.71 180.896C208.58 181.12 207.835 181.864 207.797 182.144C207.761 182.645 208.487 183.148 208.542 183.427C208.579 183.893 207.891 186.05 207.667 187.107C207.444 188.163 207.537 190.232 207.299 191.293C207.113 192.261 206.931 192.819 206.295 193.228C206.76 193.321 207.206 193.451 207.206 193.451C207.206 193.451 207.857 196.205 206.201 198.55C205.607 199.368 205.458 199.741 204.825 200.486C203.578 201.862 202.61 203.43 202.517 204.449C202.452 204.148 202.409 203.843 202.387 203.537C202.387 203.537 200.452 205.789 199.633 207.073C198.573 208.729 197.102 208.636 196.689 209.046C196.275 209.455 196.186 210.199 196.321 210.795C195.953 210.887 195.261 211.018 194.795 212.451C194.571 213.194 194.013 213.923 193.139 214.423C192.264 214.924 191.203 215.075 190.663 215.205C191.128 215.335 191.315 215.335 191.538 215.483C191.259 215.948 189.975 216.674 188.542 217.605C187.11 218.48 186.42 219.763 186.067 220.601C185.699 221.382 185.156 221.885 184.281 221.978C184.649 222.202 185.194 222.722 185.472 222.89C185.062 222.983 184.368 222.983 183.128 224.044C181.825 225.123 181.379 225.44 180.783 225.533V225.533L180.776 225.532Z" fill="#C39D3C"/>
<path id="Path_27" fill-rule="evenodd" clip-rule="evenodd" d="M154.884 234.155C155.597 233.656 156.368 233.247 157.182 232.937C160.084 231.784 163.154 231.561 164.364 231.189C165.518 230.821 166.429 230.314 167.862 230.035C167.824 230.361 167.792 230.668 167.758 230.958C163.534 232.285 159.233 233.353 154.878 234.155H154.884Z" fill="#D2BA6B"/>
<path id="Path_28" fill-rule="evenodd" clip-rule="evenodd" d="M208.416 157.816C208.416 157.816 207.821 161.035 206.76 163.064C205.699 165.093 204.552 167.902 204.552 167.902C204.559 167.269 204.634 166.639 204.775 166.022C203.436 166.803 200.179 168.683 199.255 169.52C198.381 170.301 196.91 171.679 196.538 172.33C197.413 169.763 198.324 167.456 198.474 166.394C197.135 167.362 190.881 172.517 187.625 175.922L177.483 184.128C176.313 184.76 175.108 185.324 173.873 185.819C172.125 186.562 170.06 187.195 168.534 187.791C168.943 186.693 169.593 185.724 170.506 184.794C171.474 183.883 174.376 180.738 174.823 179.274C175.232 177.748 175.326 176.837 174.786 175.553C174.283 175.683 173.13 175.739 172.349 175.962C171.567 176.186 170.729 177.022 170.729 177.022C170.729 177.022 171.324 173.617 172.609 170.398C171.641 170.435 169.985 170.714 169.985 170.714C169.985 170.714 172.292 166.843 176.241 164.146C175.031 164.403 173.848 164.77 172.706 165.243C170.398 166.21 167.868 167.643 165.988 168.425C167.048 166.953 174.492 156.33 178.921 146.429C183.337 136.548 184.987 134.018 185.955 128.715C186.456 126.091 186.323 122.214 186.456 118.741C186.586 115.298 187.015 112.209 186.736 110.143C187.889 111.576 192.207 115.614 192.355 124.64C192.486 133.665 188.225 145.854 183.703 152.421C184.807 152.738 187.667 153.111 190.606 148.005C193.545 142.9 193.51 141.475 194.571 139.353C194.701 140.414 194.663 140.785 194.663 140.785C194.663 140.785 198.944 135.594 200.972 129.062C201.381 131.872 202.591 134.348 200.692 139.502C198.999 144.154 196.785 145.29 196.785 145.29C196.785 145.29 197.883 145.103 199.501 144.135C199.78 144.824 199.725 145.607 200.19 145.885C200.655 146.162 201.288 146.629 201.381 147.076C201.883 146.331 202.664 145.382 202.907 144.675C202.721 146.147 202.591 152.583 203.275 155.859C204.709 155.729 206.179 155.635 207.183 153.048C206.495 155.58 206.495 157.105 206.96 159.264C207.723 158.744 208.411 157.813 208.411 157.813V157.813L208.416 157.816Z" fill="#C0993A"/>
<path id="Path_29" fill-rule="evenodd" clip-rule="evenodd" d="M160.068 55.2461C160.068 55.2461 158.635 55.841 156.197 55.841C154.077 55.841 154.671 55.0229 151.359 55.0229C146.261 55.0229 128.453 57.9669 125.326 57.9252C123.297 57.8884 132.173 58.7998 132.173 58.7998L154.858 59.1162L159.416 58.7482L161.11 55.3013L160.068 55.2461Z" fill="#A88F33"/>
<path id="Path_30" fill-rule="evenodd" clip-rule="evenodd" d="M101.245 99.5902C101.245 99.5902 98.341 101.804 97.1131 103.498C95.8852 105.192 95.2338 106.307 93.8379 107.685C94.1656 107.697 94.493 107.653 94.8057 107.555C94.8057 107.555 94.8057 107.923 94.5825 108.02C94.9732 107.976 95.3628 108.111 95.6423 108.388C95.2326 108.611 94.1163 109.729 94.991 111.05C95.6423 112.054 97.0199 112.146 97.0199 112.146C97.0199 112.146 96.7034 113.059 98.0245 112.966C100.872 112.836 104.054 111.588 105.523 111.905C106.995 112.273 107.832 112.408 108.873 114.213C109.977 115.999 110.939 116.279 110.939 116.279C110.939 116.279 111.59 114.622 111.442 112.148C111.976 110.814 112.272 109.397 112.316 107.961L111.349 100.834L107.125 95.4931L101.654 98.5266L101.245 99.5865V99.5902Z" fill="#E3C571"/>
<path id="Path_31" fill-rule="evenodd" clip-rule="evenodd" d="M106.438 98.5291C106.438 98.5291 106.848 99.497 108.561 99.589C108.374 99.9987 108.374 100.055 108.431 100.37C108.467 100.687 108.523 101.152 108.523 101.152C108.711 101.061 108.882 100.936 109.026 100.784C109.119 101.193 108.932 101.844 109.026 102.31C109.083 102.593 109.177 102.868 109.304 103.128C109.331 103.064 109.362 103.002 109.397 102.943C109.434 102.849 109.765 103.947 110.682 104.783C110.681 104.654 110.712 104.528 110.774 104.415C110.788 104.648 110.865 104.873 110.997 105.066C110.928 105.033 110.866 104.989 110.812 104.936C110.812 104.936 110.904 107.88 111.406 109.402C111.491 109.304 111.565 109.198 111.63 109.086C111.63 108.994 111.593 109.905 111.5 110.558C111.37 111.209 111.463 112.121 111.463 112.121C111.798 111.856 112.167 111.637 112.56 111.469C113.118 111.245 114.032 110.557 114.588 109.031C114.912 108.166 115.161 107.276 115.333 106.37C115.513 106.716 115.637 107.089 115.701 107.474C115.739 107.939 116.614 107.697 116.614 107.697L116.8 105.668L117.904 101.072L118.909 98.2249L123.747 90.6895L132.488 83.9575L140.118 85.7068L146.555 76.9606L135.465 70.2986L124.97 71.3965L115.445 84.5893L107.816 96.5554L106.438 98.5279V98.5279L106.438 98.5291Z" fill="#D8B65B"/>
<path id="Path_32" fill-rule="evenodd" clip-rule="evenodd" d="M161.404 79.4373C161.404 79.4373 160.753 79.5673 158.874 80.5413C156.995 81.5152 155.692 81.8244 154.966 83.2571C154.24 84.6898 154.184 85.8257 154.184 85.8257C154.184 85.8257 155.469 85.2676 156.213 85.0812C156.995 84.8959 157.869 84.9511 157.776 85.2676C157.687 85.4846 157.562 85.6856 157.408 85.8625C157.408 85.8625 158.88 85.8257 158.841 86.5519C158.801 87.2781 158.562 88.0779 158.284 88.4312C158.004 88.7992 156.851 89.3438 156.721 89.7719C156.405 90.6465 156.851 90.6833 156.683 91.3899C156.553 92.0793 155.94 93.4188 153.929 95.763C151.863 98.1084 150.985 99.7644 150.985 99.7644C150.985 99.7644 149.981 97.8851 149.459 96.2659C149.091 96.4511 147.115 97.549 147.115 97.549L142.537 81.6023L142.629 80.5413C142.629 80.5413 143.039 80.0396 143.132 79.1085C142.444 78.8853 142.351 78.6988 141.438 77.8254C140.525 76.952 139.782 75.8897 138.257 75.1636C138.034 74.7538 137.754 74.1969 136.638 73.9725C135.522 73.748 134.852 73.564 134.852 73.564C134.852 73.564 135.447 73.3395 135.727 72.8746C135.037 72.9678 134.48 73.1911 132.973 73.1543C131.447 73.1162 131.279 73.061 130.442 73.1911C129.606 73.3211 128.602 73.694 128.228 72.4097C127.818 72.0932 126.944 72.3729 126.199 73.4695C125.455 74.5662 125.194 75.442 123.762 75.8701C123.661 76.5017 123.44 77.108 123.11 77.6561C122.701 78.3455 122.049 79.0337 121.175 80.0567C119.797 81.6759 120.02 84.3366 117.825 86.3655C115.611 88.3932 118.193 80.7449 118.193 80.7449L121.728 72.2809L131.795 62.4369L147.427 61.377L148.953 69.473L156.582 72.0969L161.402 79.4471V79.4471L161.404 79.4373Z" fill="#D3AE4D"/>
<path id="Path_33" fill-rule="evenodd" clip-rule="evenodd" d="M163.88 81.2232L157.311 71.7521L152.715 68.2157C152.715 68.2157 149.44 62.1878 149.217 62.0014C149.03 61.8713 145.941 61.5365 143.969 61.4064L144.337 62.3178C144.768 62.4577 145.15 62.7157 145.441 63.0624C146.316 64.0671 146.874 65.9647 144.883 67.9936C145.664 68.2721 145.987 68.3616 146.669 68.2721C145.981 69.0915 144.418 70.8407 144.325 72.3667C144.232 73.613 145.013 73.9847 145.013 73.9847C145.013 73.9847 143.822 75.3622 143.767 77.6647C144.329 77.0304 144.945 76.4452 145.607 75.9154C146.984 74.8114 148.882 73.5701 150.166 72.7887C150.149 73.1166 150.193 73.4449 150.296 73.7565C150.296 73.7565 152.696 71.784 154.712 72.6586C155.624 73.0684 155.214 74.3527 155.214 74.3527C155.214 74.3527 156.461 73.8878 157.336 74.7624C158.211 75.637 159.457 77.8879 160.09 78.7638C160.368 79.1735 161.094 79.9549 161.838 81.1631C162.854 82.8568 163.702 84.6456 164.37 86.504C164.406 85.7594 164.556 84.718 165.842 84.718L163.888 81.2196L163.88 81.2232Z" fill="#CAA13E"/>
<path id="Path_34" fill-rule="evenodd" clip-rule="evenodd" d="M65.4068 108.131C65.4068 108.131 64.9419 106.977 65.4068 104.726C65.8717 102.475 66.5979 101.414 66.8396 98.1022C67.0812 94.7902 69.2402 90.6587 69.2402 90.6587L75.2128 87.9429L79.4374 89.096L80.6837 94.7534L75.3428 97.6974C75.3428 97.6974 75.0644 98.9436 73.5568 99.9483C72.0492 100.953 69.9651 101.734 69.4634 102.759C69.1635 103.386 68.9446 104.049 68.812 104.731C68.812 104.731 67.2861 104.415 66.3747 105.419C65.4068 106.443 65.4436 107.355 65.4068 108.136V108.131Z" fill="#F4EFC8"/>
<path id="Path_35" fill-rule="evenodd" clip-rule="evenodd" d="M77.4636 106.624C77.4636 106.624 76.9607 106.94 76.589 107.728C76.221 107.133 75.3415 103.596 75.3047 100.414C75.2679 97.2325 75.0777 96.4438 75.8137 95.3471C76.5497 94.2505 79.4361 93.095 79.0264 91.12C78.6167 89.2408 76.9042 88.4594 74.8017 88.9991C73.3297 89.3671 72.2343 92.4976 70.7084 94.0603C69.5541 95.2514 68.1777 95.065 67.8061 95.7163C67.3031 96.591 67.768 97.4656 67.6196 98.0237C67.5816 98.2102 67.1167 99.2148 66.2789 100.424C64.5861 102.862 61.7206 106.305 61.3477 109.394C61.4777 107.644 61.3857 107.608 61.8506 105.672L61.5709 105.207L63.4109 99.178L64.602 94.21L67.2639 85.8907L71.9522 77.3875L76.5117 72.2882L81.2565 72.6047L81.8146 79.7317L84.5317 93.1121L90.2442 100.146L81.0884 106.307L77.4599 106.624V106.624H77.4636Z" fill="#EBCC73"/>
<path id="Path_36" fill-rule="evenodd" clip-rule="evenodd" d="M80.3116 109.152C80.3116 109.152 79.5302 109.338 79.2505 109.19C78.9708 109.042 78.6936 108.874 78.7856 108.687C78.8776 108.501 79.3805 108.185 79.3805 108.036C79.402 107.755 79.196 107.507 78.9156 107.478C78.4875 107.422 78.3575 107.701 78.3575 107.701C78.3575 107.701 77.9478 107.386 77.6141 107.333C77.8115 107.309 78.0102 107.296 78.209 107.295C77.6948 107.062 77.1493 106.905 76.5898 106.83C77.0548 106.551 77.9674 105.732 78.5623 105.732C79.1573 105.732 79.5302 105.64 79.4369 105.324C79.3437 105.007 78.8788 104.542 78.3771 104.356C78.5623 104.133 78.6936 103.798 78.2471 102.884C77.7809 101.972 77.9674 101.358 78.117 101.136C78.2471 100.856 78.712 100.354 78.9352 100.038C79.1585 99.7214 79.3449 99.2933 79.7166 99.0701C79.9031 98.94 80.498 98.7021 81.0942 98.4751C81.7455 98.2519 82.2853 97.9722 82.6569 98.2519C83.0666 98.5303 82.8802 98.9032 82.8802 98.9032C82.8802 98.9032 84.1645 98.4371 85.3176 99.0333C86.4719 99.5902 89.2822 99.9447 89.2822 99.9447L90.2893 101.974L83.6272 107.686L80.8734 109.064L80.3152 109.156V109.156L80.3116 109.152Z" fill="#E5C66B"/>
<path id="Path_37" fill-rule="evenodd" clip-rule="evenodd" d="M89.5598 99.8134C89.5598 99.8134 87.4941 101.191 87.0292 101.693C87.3077 101.731 87.7726 101.917 87.5861 102.196C87.3629 102.474 86.0233 103.442 85.2788 104.354C84.4974 105.266 83.7528 106.42 83.4927 106.978C83.2143 107.48 81.0921 108.951 80.3672 109.136C81.8932 109.136 84.9635 107.257 86.1166 107.257C86.0798 107.815 86.4331 108.448 87.0844 108.503C87.7358 108.558 89.615 108.913 92.1456 107.35C94.6763 105.824 93.8397 104.688 94.8995 103.945C96.9284 102.604 97.7466 101.413 98.8629 100.67C99.9791 99.9262 100.557 99.7569 100.557 99.7569C100.557 99.7569 100.594 99.1988 100.925 99.2552C101.11 99.2764 101.267 99.3983 101.335 99.5717C101.335 99.5717 103.27 98.1942 105.751 97.8225C105.693 97.7966 105.646 97.7503 105.621 97.6925C105.621 97.6925 105.806 97.5992 105.844 97.506C105.844 97.506 105.974 97.3195 106.067 97.4128C106.16 97.506 106.29 98.1942 106.477 98.4738C106.886 98.2874 107.668 96.5382 107.668 96.5382L109.548 91.1605V86.2477L108.076 86.5273L97.0364 91.2157L90.3363 98.1574L89.5549 99.8134H89.5598Z" fill="#E6BD62"/>
<path id="Path_38" fill-rule="evenodd" clip-rule="evenodd" d="M121.342 75.7155C121.939 75.5706 122.511 75.3383 123.041 75.0261C122.817 75.6222 122.817 76.2736 121.85 77.6879C120.882 79.1023 120.845 79.3071 120.063 80.7767C119.282 82.3027 119.189 84.4984 118.444 85.465C118.778 85.3028 119.136 85.1964 119.504 85.1498C119.504 85.1498 118.761 85.8011 118.444 86.4893C118.128 87.1774 117.57 88.6102 116.193 89.486C114.817 90.3619 113.067 90.9188 111.187 92.9845C109.307 95.0122 107.372 97.5808 106.403 98.5045C106.906 97.6299 107.594 95.8806 107.781 94.7276C107.967 93.5745 107.743 92.1957 108.059 90.671C108.376 89.1462 108.376 88.0471 109.899 85.3853C111.423 82.7234 114.031 73.4756 114.031 73.4756L119.65 71.6895L121.344 75.7093V75.7093L121.342 75.7155Z" fill="#B6933F"/>
<path id="Path_39" fill-rule="evenodd" clip-rule="evenodd" d="M117.284 72.3102C117.284 72.3102 115.591 74.7476 115.126 76.9066C114.661 79.0655 115.088 78.879 114.809 79.9401C114.643 80.5871 114.643 81.2656 114.809 81.9126C115.396 80.9681 116.198 80.1768 117.151 79.604C118.752 78.6374 120.055 77.948 120.831 77.1298C121.613 76.2552 122.264 74.8225 123.957 73.7246C123.269 73.6314 122.301 73.3149 122.117 73.3566C122.806 72.5752 124.871 71.3841 126.955 69.9514C129.02 68.4794 128.89 67.8857 132.24 66.4161C131.143 66.6026 130.621 66.3229 129.709 66.4161C130.077 65.6347 131.365 65.2618 132.653 63.9787C133.941 62.6956 131.834 60.7968 131.834 60.7968L122.021 66.7326L117.276 72.3152L117.284 72.3102Z" fill="#C49937"/>
<path id="Path_40" fill-rule="evenodd" clip-rule="evenodd" d="M90.6562 67.8808L90.8795 66.0948L93.6898 61.5917L96.6301 53.6834V42.8715L96.4069 36.6192L96.8718 32.5246L97.2251 31.2231L97.598 30.7202L99.9973 31.9664L103.311 36.4695L103.627 45.1605L100.407 58.8746L91.2144 68.9051L90.6562 67.8808V67.8808Z" fill="#DFC068"/>
<path id="Path_41" fill-rule="evenodd" clip-rule="evenodd" d="M97.9706 30.2173C97.9706 30.2173 96.4986 30.2553 96.1846 36.3776C95.8705 42.4999 95.7184 45.7187 95.4952 48.7522C95.2719 51.7858 94.7518 53.627 94.4905 55.4143C94.2293 57.2015 94.0808 59.6377 93.2443 61.1268C92.8763 61.815 92.09 63.9739 90.2475 65.5931C88.1818 67.3792 85.0955 68.6267 84.6281 68.7199C83.8087 68.9051 79.6589 69.3148 77.9661 70.2459C77.3712 70.5624 76.3469 70.934 75.2123 71.9951C72.9601 74.0228 69.9646 77.6513 67.8056 82.0243C64.4936 88.5563 61.1816 106.997 61.1816 106.997L61.9262 105.751C61.9262 105.751 62.0195 104.095 63.6755 101.191C65.2947 98.2887 64.8297 95.0319 67.0807 89.4677C67.9553 87.3468 69.0532 84.593 70.3927 82.2476C72.5148 78.4326 75.0822 75.1574 77.6693 73.3714C81.8927 70.4691 86.5454 69.8362 86.5454 69.8362L91.5515 66.5242C91.5515 66.5242 92.4261 64.8314 93.5804 62.8957C95.1983 60.1799 97.2604 57.1463 97.7105 52.7364C98.3999 46.2044 96.7427 41.9246 96.8359 38.0545C96.9292 34.1843 96.966 31.3372 97.7486 30.6479C98.5312 29.9585 97.9718 30.2197 97.9718 30.2197V30.2197L97.9706 30.2173Z" fill="#A88F33"/>
<path id="Path_42" fill-rule="evenodd" clip-rule="evenodd" d="M97.9707 59.4328C97.9707 59.4328 100.179 53.9987 101.189 49.1791C101.376 48.2112 101.748 47.2446 101.841 46.4632C102.306 41.9037 102.436 40.0245 101.841 37.5307C101.376 35.6907 99.5899 34.0322 98.6589 32.7467C97.7474 31.4059 97.3193 30.9067 97.5058 30.6245C97.6922 30.3424 98.4172 29.8812 99.1238 29.9364C100.642 29.9805 102.075 30.6457 103.088 31.7764C104.521 33.4324 105.656 39.0529 105.656 39.0529L106.849 46.4694L109.883 55.8104L97.9731 59.4401V59.4401L97.9707 59.4328Z" fill="#C99E3D"/>
<path id="Path_43" fill-rule="evenodd" clip-rule="evenodd" d="M118.718 53.7766C118.718 53.7766 118.308 53.9618 117.565 53.7766C117.629 54.3959 117.342 54.9994 116.82 55.3394C116.039 55.0229 108.724 55.6558 108.724 55.6558C108.724 55.6558 105.319 55.0597 104.258 50.5566C103.514 47.5598 104.816 43.4297 104.388 40.7126C103.736 36.7112 102.825 35.9286 102.732 34.6835C102.638 33.4385 102.545 33.1207 102.545 32.3394C102.136 32.2461 101.894 32.1161 101.485 32.1161C101.392 31.7481 101.577 31.4267 101.169 30.7754C101.392 30.8686 102.918 31.055 104.704 32.7478C106.176 34.1254 106.176 34.6271 106.398 34.9068C106.677 35.1852 108.929 37.1148 109.897 39.0382C110.865 40.9616 112.744 47.0949 113.172 48.0996C113.302 48.5093 113.582 48.919 114.276 49.8488C115.355 51.1895 116.937 53.4061 118.723 53.7741V53.7741L118.718 53.7766Z" fill="#B58634"/>
<path id="Path_44" fill-rule="evenodd" clip-rule="evenodd" d="M106.663 35C107.79 36.821 108.803 38.7105 109.695 40.6574C110.793 43.1316 111.445 45.1605 112.822 46.8165C112.078 44.6588 110.756 40.4158 109.975 38.9082C109.1 37.3135 107.314 35.5962 106.663 35.0013V35.0013V35Z" fill="#A88F33"/>
<path id="Path_45" fill-rule="evenodd" clip-rule="evenodd" d="M94.0075 65.5931C94.0075 65.5931 92.1282 66.058 88.6298 67.9004C87.4755 68.4954 86.3788 68.9971 85.3178 69.4632C82.5615 70.7095 79.6052 71.8614 77.2598 72.4968C77.4463 72.72 77.5383 72.812 77.5383 72.812C77.5383 72.812 77.5383 73.7247 78.0412 74.2448C77.7627 74.5244 74.0398 77.0551 75.1389 85.5215C75.8823 85.2431 76.7569 84.8702 76.8869 84.8702C77.1114 84.9082 77.1666 85.5215 77.445 85.5215C77.7235 85.5215 78.6361 85.1535 79.604 83.9023C79.5672 84.4052 79.009 89.4665 82.0046 92.8717C82.5627 92.2203 83.977 90.0614 83.977 90.0614L84.0138 89.3732C84.0138 89.3732 84.1439 86.9727 84.9265 84.7769C85.7091 82.5812 87.2338 80.962 87.2338 80.962L95.1961 69.592L94.005 65.5919V65.5919L94.0075 65.5931Z" fill="#E6C367"/>
<path id="Path_46" fill-rule="evenodd" clip-rule="evenodd" d="M86.5624 82.288C86.1979 82.5456 85.7962 82.7462 85.3713 82.8829C85.2413 82.418 85.0548 80.8172 86.1527 79.2544C87.437 77.374 90.2461 74.9366 91.0275 72.9984C91.5304 71.7509 91.3072 68.6254 95.7734 64.624C100.24 60.6226 101.988 59.2463 101.988 59.2463L109.208 55.6178L118.084 59.1163L113.674 76.4L110.251 84.496L96.6346 81.9286L86.5612 82.288V82.288H86.5624Z" fill="#DCBA5A"/>
<path id="Path_47" fill-rule="evenodd" clip-rule="evenodd" d="M91.7598 77.5948L93.4538 75.4739V73.9663C93.4538 73.9663 95.333 73.4634 97.3607 71.3976C99.3884 69.3319 102.199 65.3686 104.674 65.6102C107.15 65.8899 107.391 70.9879 107.484 72.4219C107.578 73.8559 107.894 77.1102 108.396 78.8607C108.954 80.6099 102.367 87.2339 102.367 87.2339L97.8931 90.6391L91.7598 77.5948V77.5948Z" fill="#E9CE77"/>
<path id="Path_48" fill-rule="evenodd" clip-rule="evenodd" d="M97.001 95.2538C97.001 95.2538 98.3785 93.0949 97.369 92.63C97.9639 91.2905 99.0618 89.8761 99.0618 89.8761C99.0618 89.8761 99.8432 87.9417 102.374 85.5595C104.904 83.1773 106.468 81.5949 106.878 79.9953C107.131 78.9529 107.268 77.8858 107.288 76.8134C107.561 77.0369 107.854 77.2359 108.162 77.4083C108.572 77.5947 110.507 79.1943 110.228 82.4143C109.95 85.6343 108.756 86.9738 108.756 86.9738C108.756 86.9738 107.603 88.1269 106.785 88.7231C105.909 89.318 105.594 90.0062 104.123 90.0626C104.274 89.9424 104.444 89.8479 104.626 89.7829C104.626 89.7829 103.1 89.5977 102.281 90.341C101.461 91.0844 99.7193 93.3746 98.8447 94.064C97.97 94.6221 97.0047 95.2551 97.0047 95.2551V95.2551L97.001 95.2538Z" fill="#CDAE50"/>
<path id="Path_49" fill-rule="evenodd" clip-rule="evenodd" d="M158.877 59.0598C156.679 58.2586 154.368 57.8066 152.03 57.7203C148.122 57.5903 142.409 57.8135 136.808 57.8503C130.779 57.8871 125.308 55.7846 117.717 55.4129C116.47 54.6683 113.301 51.4115 103.406 58.3152C104.001 58.2784 110.59 56.7892 112.877 59.656C115.185 62.5031 114.533 67.341 114.218 68.4941C113.622 71.0627 111.686 74.8028 110.906 77.4267C110.126 80.0505 110.31 81.4293 109.752 83.2693C109.194 85.1093 107.966 86.0232 108.691 88.1441C109.659 87.5491 110.163 87.5491 111.779 83.9207C113.396 80.2922 113.064 77.7051 115.744 74.6348C118.368 71.546 122.736 67.3214 124.397 66.2603C126.058 65.1993 139.246 58.352 153.054 64.884C156.385 64.5307 158.879 59.0586 158.879 59.0586V59.0586L158.877 59.0598Z" fill="#D2A83E"/>
<path id="Path_50" fill-rule="evenodd" clip-rule="evenodd" d="M108.968 56.528C108.954 56.3882 108.924 56.2506 108.876 56.1183C108.747 55.8462 108.577 55.5952 108.373 55.3737C108.373 55.3737 105.098 54.7788 103.442 54.964C100.538 55.2805 97.9146 58.8722 96.6867 60.7146C95.4588 62.5571 93.9328 65.403 92.2768 66.8737C92.295 66.7305 92.2619 66.5854 92.1836 66.464C92.1836 66.464 92.2768 66.5941 92.0916 66.7805C91.9064 66.967 91.9051 67.059 91.9984 67.1485L92.278 67.427C92.37 67.427 94.9387 66.2727 98.4371 63.011C102.159 59.6057 105.006 57.859 106.495 57.2603C107.289 56.9229 108.119 56.6772 108.969 56.528V56.528H108.968Z" fill="#C29637"/>
<path id="Path_51" fill-rule="evenodd" clip-rule="evenodd" d="M172.496 42.5366C172.496 42.5366 171.9 43.28 171.155 44.0994C169.499 45.8486 167.34 47.8199 165.498 49.8488C163.75 51.7845 161.777 53.292 159.562 55.8226C157.347 58.3533 154.778 61.1623 154.128 61.9817C153.533 62.8012 153.068 64.1407 153.068 64.8288C152.752 64.6056 152.38 64.3639 152.38 64.3639C152.536 64.6561 152.723 64.9308 152.938 65.1833C153.403 65.8347 154.128 66.6553 154.501 67.1558C154.958 67.7929 155.287 68.5135 155.467 69.2767C155.691 69.3135 157.123 69.5932 158.911 66.6529C160.698 63.7126 163.041 60.4938 163.041 60.4938L166.763 54.9664L169.108 50.2781L172.052 45.0304L172.5 42.5366V42.5366H172.496Z" fill="#AC8132"/>
<path id="Path_52" fill-rule="evenodd" clip-rule="evenodd" d="M176.312 38.7782C176.312 38.7782 174.06 40.6182 173.185 41.7222C172.311 42.8262 170.241 45.7236 170.241 45.7236L170.986 45.6303L174.764 42.2815L176.236 39.6577L176.311 38.7831L176.312 38.7782Z" fill="#A88F33"/>
<path id="Path_53" fill-rule="evenodd" clip-rule="evenodd" d="M175.624 186.659C175.624 186.659 175.587 185.133 176.443 184.222C177.318 183.309 179.532 181.969 181.691 176.945C183.85 171.921 184.091 170.786 184.091 170.786C184.091 170.786 180.22 174.098 177.835 174.879C178.393 173.725 178.709 172.907 178.989 172.311C178.672 172.032 177.333 171.716 177.203 171.567C177.946 170.823 178.356 168.999 179.863 167.789C181.799 166.317 185.334 163.788 188.082 161.533C190.83 159.279 196.232 154.035 196.921 152.509C197.331 153.104 197.423 153.475 197.423 153.475C197.423 153.475 194.707 157.012 193.293 159.263C192.045 161.198 192.139 162.296 192.139 162.296L194.707 161.192C194.707 161.192 195.451 163.946 192.083 168.134C193.555 167.576 194.149 167.911 194.986 167.444C193.608 168.32 191.711 169.511 189.925 172.785C188.175 176.061 185.793 179.876 181.775 182.256C177.866 184.769 175.614 186.648 175.614 186.648V186.648L175.624 186.659Z" fill="#A67A2E"/>
<path id="Path_54" fill-rule="evenodd" clip-rule="evenodd" d="M165.537 60.9967C165.537 60.9967 164.011 64.1774 163.787 66.6528C163.751 67.249 163.601 67.7139 163.601 68.4021C163.564 70.6162 163.731 73.0916 163.233 74.2447C163.047 73.7798 162.953 73.4633 162.767 73.2781C162.488 74.0595 161.985 76.4968 161.576 77.4083C161.391 76.8133 160.981 74.7476 161.019 72.3102C161.057 69.8728 161.111 69.4067 161.111 68.905C161.019 69.6484 160.516 70.6542 160.329 71.2492C160.051 70.7475 159.735 70.0961 159.362 69.5564C159.138 69.9244 158.86 70.4678 158.618 70.7475C158.58 70.5242 158.488 69.928 158.432 69.0915C158.395 68.1236 158.339 66.8773 158.395 66.616C158.487 66.1143 159.27 64.1419 160.926 62.3362C162.898 60.1773 164.927 56.0287 165.522 54.7444C166.117 53.46 168.647 48.1204 168.647 48.1204H170.583L167.773 54.5211C167.773 54.5211 166.08 58.0196 165.205 59.3051C164.331 60.5907 162.488 64.2743 161.669 65.7071C162.264 64.9257 162.767 64.516 163.363 63.7714C163.94 63.2501 165.539 60.9991 165.539 60.9991V60.9991L165.537 60.9967Z" fill="#8C6228"/>
<path id="Path_55" fill-rule="evenodd" clip-rule="evenodd" d="M176.349 38.5353C176.033 39.5085 175.533 40.412 174.877 41.1972C173.723 42.5747 171.247 44.4159 170.039 45.8855C168.935 47.3182 166.727 51.2264 167.73 55.8595C168.098 54.8549 168.792 52.864 170.634 50.6118C172.476 48.3597 174.449 45.7739 175.418 43.7646C176.385 41.7357 176.515 40.1361 176.515 40.1361L176.883 39.6712L176.659 38.6101L176.343 38.5353L176.349 38.5353Z" fill="#CBA94C"/>
<path id="Path_56" fill-rule="evenodd" clip-rule="evenodd" d="M214.032 161.965C214.032 161.965 213.287 159.937 213.064 158.095C212.841 156.252 213.432 155.887 212.748 153.778C212.338 152.494 211.595 152.674 211.408 152.494C211.222 152.313 211.092 150.373 211.128 149.312C211.165 148.251 211.092 146.874 210.905 146.278C210.627 146.055 210.44 145.869 210.031 144.492C209.566 143.115 209.342 142.427 209.119 142.018C208.896 141.61 208.243 141.237 208.243 140.827C208.243 140.008 208.988 139.581 208.988 139.355C208.951 138.89 208.393 139.263 208.243 139.132C208.058 138.908 208.709 137.569 208.468 137.382C208.375 137.29 207.723 138.072 207.555 137.849C207.369 137.624 207.145 135.41 206.811 133.94C206.495 132.508 206.159 131.466 206.122 131.038C206.086 130.628 203.554 123.408 202.94 121.659C202.446 120.181 202.03 118.678 201.694 117.156C201.508 116.281 201.378 114.494 201.284 114.681C201.191 114.867 201.248 115.778 201.098 115.742C200.968 115.704 200.503 112.523 200.355 112.02C200.225 111.517 199.442 109.812 199.251 108.578C199.064 107.33 198.656 104.074 198.376 101.859C198.096 99.6453 197.966 98.7339 197.966 98.1794C198.012 96.8233 197.937 95.4658 197.743 94.1228C197.375 91.7775 196.639 88.9304 195.994 87.2756C194.748 84.1488 191.434 76.1473 190.842 74.1564C190.842 73.6535 191.493 73.9331 191.493 73.9331C191.493 73.9331 193.111 77.9897 194.302 81.1153C195.457 84.242 196.554 86.9959 196.834 87.2756C197.057 87.554 198.807 90.6244 199.588 95.6488C200.369 100.673 200.648 105.306 201.114 108.395C201.337 109.867 201.524 111.429 201.989 112.991C202.49 114.685 203.272 116.435 204.296 119.114C205.17 121.366 205.822 123.245 206.175 124.864C206.585 126.93 206.585 128.493 206.826 129.517C207.051 130.392 207.385 132.14 208.167 134.669C208.95 137.198 210.102 140.456 210.883 142.484C212.41 146.541 213.091 149.928 213.322 151.733C213.525 153.594 214.215 160.033 214.028 161.967V161.967L214.032 161.965Z" fill="#A88F33"/>
<path id="Path_57" fill-rule="evenodd" clip-rule="evenodd" d="M176.444 38.312L176.351 38.5353C176.351 38.5353 176.629 38.6285 176.574 39.0014C176.578 39.5116 176.547 40.0215 176.481 40.5274C176.389 41.1787 176.203 41.6804 176.166 42.0902C176.166 42.9648 176.296 43.9694 175.062 46.4632C174.694 47.1514 174.467 47.7463 174.28 48.156C173.815 49.1607 173.722 49.3103 173.312 49.7752C173.964 49.4072 176.309 47.9352 177.499 48.156C176.681 48.6209 175.433 49.5336 174.652 50.7247C174.838 50.7615 175.62 50.9111 176.86 50.7247C178.926 50.4082 181.233 49.6636 183.261 49.812C185.476 49.942 184.602 47.1514 184.602 47.1514L182.045 41.532L177.207 38.128L176.444 38.3132V38.312Z" fill="#BE9C44"/>
<path id="Path_58" fill-rule="evenodd" clip-rule="evenodd" d="M189.058 80.405C189.058 80.405 186.899 78.2461 186.024 70.837C185.15 63.3936 185.336 52.437 185.336 52.437L183.587 48.1572C183.587 48.1572 183.219 45.3101 182.303 44.2503C181.386 43.1904 179.587 41.4032 178.767 40.5286C177.948 39.654 177.018 38.4629 176.46 38.2764C176.738 37.8115 177.986 35.1877 182.767 35.1509C187.549 35.1141 189.023 37.7747 189.523 38.7425C190.022 39.7104 192.277 43.8945 193.113 51.8679C193.895 59.8314 193.933 60.4276 193.803 63.1814C193.709 64.7074 193.206 68.2426 192.331 72.0195C191.531 75.2211 190.656 78.7944 189.055 80.4124L189.058 80.405Z" fill="#A17C34"/>
<path id="Path_59" fill-rule="evenodd" clip-rule="evenodd" d="M182.288 86.7507C183.008 86.8026 183.726 86.6404 184.354 86.2845C185.042 86.2477 187.536 86.5642 189.452 84.1268C189.582 84.6837 189.918 86.1925 189.042 87.5321C189.508 87.0659 190.197 86.8807 190.29 86.7507C190.327 87.4388 190.978 89.5597 188.224 94.7142C188.967 93.896 189.842 93.9328 190.623 93.8396C190.661 94.8074 191.182 98.063 189.805 99.8134C188.894 101.005 187.405 100.632 187.405 100.632C187.426 100.372 187.426 100.11 187.405 99.8502C187.368 99.3473 187.181 98.8456 187.313 98.5107C186.593 98.182 185.938 97.7281 185.377 97.17C183.758 95.644 181.655 93.0398 181.507 91.1041C181.32 88.9452 183.256 88.4803 183.256 88.4803C183.094 88.3352 182.956 88.1655 182.846 87.9773C182.753 87.6621 182.66 87.1592 182.288 86.7507V86.7507V86.7507Z" fill="#8C6228"/>
<path id="Path_60" fill-rule="evenodd" clip-rule="evenodd" d="M167.936 63.341C167.936 63.341 167.843 63.2109 167.341 63.8059C167.434 63.2109 167.527 62.6516 167.564 62.1118C167.802 61.6121 168.109 61.1487 168.477 60.7355C168.197 61.2924 168.011 61.7954 168.011 61.7954C168.011 61.7954 168.7 60.511 169.705 59.7297C170.393 59.1715 171.267 58.9115 171.639 58.3901C172.049 57.832 171.956 57.7388 172.049 57.6455C172.049 57.6455 172.961 57.0506 174.357 55.3002C174.543 55.0769 174.822 54.8353 175.009 54.612C175.324 54.482 176.069 54.1471 176.943 53.6994C177.856 53.1977 178.879 52.5095 179.512 52.2274C180.758 51.6692 182.08 51.7257 182.694 50.8498C183.159 50.7198 183.66 49.3238 183.568 48.134C184.257 48.4124 187.792 50.6082 189.003 55.4093C189.877 58.8146 188.313 64.0622 187.662 66.5941C187.01 69.1259 186.918 71.0039 186.006 72.157C184.851 73.6842 181.131 75.837 180.218 76.903C179.437 77.7776 177.093 79.9917 177.185 81.5913C177.278 82.7824 178.748 83.4313 179.065 83.657C179.383 83.8827 179.381 84.1599 179.977 84.025C180.573 83.8901 180.795 83.6153 181.038 83.6153C181.316 83.6521 181.316 83.7085 181.446 83.7085C181.541 83.7057 181.634 83.693 181.726 83.6705C181.726 83.6705 181.633 85.3645 177.669 85.8785C177.39 85.9165 177.111 86.0085 176.757 86.065C177.223 85.8417 177.501 85.8417 178.004 85.1535C177.446 85.0603 175.845 84.9671 175.436 84.8371C175.566 84.6138 175.994 84.0176 176.347 83.7392C176.663 83.4607 176.31 83.3712 176.032 83.5159C175.552 83.8421 175.092 84.196 174.654 84.5758C174.189 84.9855 173.78 85.5436 173.035 86.0478C172.812 85.3032 172.849 83.8888 173.724 82.8658C173.5 82.9026 173.072 83.554 172.663 83.4239C172.589 82.7452 172.633 82.0588 172.793 81.395C173.017 80.5572 174.226 79.0877 174.226 79.0877L180.069 68.6475L181.315 60.7392L167.936 63.3385V63.3385V63.341Z" fill="#92723A"/>
<path id="Path_61" fill-rule="evenodd" clip-rule="evenodd" d="M167.622 63.7875C167.622 63.7875 167.306 64.0107 167.939 64.4388C167.846 64.5689 167.622 65.0338 167.343 65.3502C167.028 65.7182 166.691 65.9464 166.561 66.2629C166.283 66.9142 166.06 67.3607 166.06 67.6404C166.06 67.9201 165.966 69.7061 165.185 70.8592C164.905 71.2689 164.589 71.9571 164.366 72.422C163.901 73.2402 163.491 73.894 163.398 74.262C163.213 74.9133 163.083 76.6994 163.083 76.6994C163.083 76.6994 163.492 76.1964 163.641 76.0112C163.416 76.4761 163.175 76.9778 162.821 77.3507C163.045 77.1643 163.696 76.6994 164.794 75.7315C166.32 74.4484 168.702 72.2895 171.605 70.5795C170.73 70.896 169.986 70.896 169.391 70.9892C169.856 70.5243 174.043 65.6115 176.239 65.1466C176.372 64.9776 176.438 64.7653 176.425 64.5505L174.545 64.3652L170.73 65.1834L170.173 62.2394L167.622 63.7838V63.7875Z" fill="#B18E3E"/>
<path id="Path_62" fill-rule="evenodd" clip-rule="evenodd" d="M173.688 80.535C173.688 80.535 173.185 81.0367 172.72 82.2843C172.362 81.9105 172.055 81.491 171.807 81.0367C171.119 79.8837 170.059 78.4129 167.584 79.2507C167.547 78.4693 167.491 78.0596 167.584 77.5015C167.993 77.4095 169.24 76.4049 170.486 74.9341C171.362 73.9294 172.18 72.7751 172.738 71.3056C173.106 71.0259 173.743 70.561 174.578 70.0213C175.769 69.2031 177.202 68.0856 177.425 66.8393C176.867 67.0626 175.676 67.6207 173.889 67.5287C174.578 67.2122 175.638 66.8773 175.508 65.4998C175.788 65.3133 176.011 65.1833 176.011 65.1833C175.801 65.1133 175.581 65.0818 175.36 65.0901C175.322 64.9601 175.266 64.7748 174.95 64.8668C174.633 64.9588 174.582 64.9601 174.54 65.0901C174.41 65.1281 173.982 65.0901 173.666 65.3146C173.349 65.539 172.474 66.2812 172.14 66.4112C172.27 66.1879 172.455 65.8543 172.455 65.8543C172.455 65.8543 171.543 65.9463 170.892 66.2223C169.701 66.632 168.325 67.3766 166.929 68.1015C167.059 67.8783 167.115 67.7335 167.207 67.6918C167.299 67.6501 167.524 67.5998 167.524 67.5618C167.524 67.5238 167.432 67.1938 167.487 67.0601C167.904 66.176 168.397 65.3293 168.959 64.5295C169.61 63.6537 169.74 62.4074 169.74 62.4074L172.587 60.9746L180.589 59.1346L185.781 59.4511L185.13 63.0428L182.063 69.3135L179.439 75.0261L176.443 78.5258L173.689 80.535V80.535H173.688Z" fill="#543E26"/>
<path id="Path_63" fill-rule="evenodd" clip-rule="evenodd" d="M186.658 64.992C186.658 64.992 183.531 68.8621 182.656 69.4583C183.215 68.2672 186.658 61.1771 187.904 59.2046C187.626 58.9813 187.253 58.9813 188.127 55.5246C187.384 57.2726 187.123 58.1852 186.509 58.6501C185.896 59.1151 185.82 58.9666 185.405 58.9666C185.484 58.825 185.516 58.6625 185.497 58.5017C185.497 58.5017 182.874 58.1852 181.081 58.1852C179.289 58.1852 175.742 59.1531 173.768 59.9345C172.205 60.5858 171.331 60.5858 170.773 60.9943C170.214 61.4592 169.898 61.9621 169.618 62.0922C169.395 62.2222 168.335 62.5571 168.092 62.9104C167.869 63.2784 167.497 63.6917 167.497 63.785C167.497 63.8782 167.404 64.0095 167.684 63.915C167.776 63.8782 168.465 63.5053 169.247 63.0404C170.306 62.4455 171.591 61.7573 172.522 61.3476C175.182 60.2865 176.02 60.473 177.21 60.2497C178.456 60.0265 180.244 59.5051 181.433 59.5051C182.625 59.4683 184.877 59.5051 185.398 59.5984C185.175 59.7848 184.988 60.0081 185.082 60.7895C185.082 61.0127 184.895 61.2544 184.714 61.7941C184.157 63.3201 183.096 65.8507 182.506 67.135C181.687 68.883 180.758 70.3538 180.298 71.2652C179.838 72.1766 178.826 74.5772 177.823 75.8615C176.821 77.1458 176.297 77.9272 175.983 78.2069C175.669 78.4866 173.415 80.1413 173.583 80.7375C173.993 80.6075 176.58 79.6335 178.458 77.5187C180.336 75.404 180.71 74.1135 182.179 72.9592C183.649 71.8049 184.803 69.8705 185.491 68.2709C186.068 66.7817 185.938 66.3168 186.663 64.9957V64.9957L186.658 64.992Z" fill="#806031"/>
<path id="Path_64" fill-rule="evenodd" clip-rule="evenodd" d="M119.276 93.8775C119.276 93.8775 118.866 95.5703 117.935 96.4081C117.023 97.2275 115.404 97.9341 115.219 99.3116C114.996 100.688 116.838 101.377 116.838 101.377C116.838 101.377 115.832 103.033 115.832 104.28C115.832 105.564 115.795 105.806 115.926 107.033C115.778 107.128 115.652 107.254 115.558 107.401C115.558 107.401 115.65 108.593 116.562 109.336C117.475 110.079 118.255 110.527 118.72 110.341C118.791 110.492 118.853 110.648 118.906 110.807C118.906 110.807 119.596 109.057 120.061 107.532C120.526 105.969 120.935 106.191 121.12 104.088C121.306 101.986 123.328 98.3757 123.328 98.3757L124.708 95.2906L122.458 93.5414L119.276 93.8763V93.8775Z" fill="#B6903C"/>
<path id="Path_65" fill-rule="evenodd" clip-rule="evenodd" d="M123.463 96.9099C122.999 97.3864 122.57 97.8964 122.181 98.4359C121.586 99.2553 121.121 99.9986 120.247 100.316C119.372 100.634 118.814 100.632 118.869 101.507C118.924 102.383 119.744 102.754 120.209 103.2C120.711 103.665 121.121 104.447 120.898 105.322C121.176 105.192 121.679 105.043 122.144 104.038C122.609 103.033 125.861 96.9111 125.861 96.9111H123.463V96.9099Z" fill="#685026"/>
<path id="Path_66" fill-rule="evenodd" clip-rule="evenodd" d="M136.287 82.786C136.287 82.786 136.565 82.0427 136.287 81.5029C136.007 80.9448 134.314 80.7583 133.476 80.1254C132.602 79.474 131.541 79.0214 130.666 79.3072C130.796 78.9907 131.318 78.3013 130.889 78.1529C130.48 78.0229 128.955 78.711 128.545 79.0275C128.136 79.344 127.205 79.7157 127.019 79.9402C126.834 80.1646 126.516 80.5915 126.33 80.4051C126.143 80.275 126.051 79.9402 125.735 80.1254C125.418 80.3106 123.895 81.5581 123.614 82.2843C123.333 83.0105 122.701 84.6297 120.804 86.4709C118.906 88.3122 118.087 89.5045 118.645 90.1926C119.203 90.8808 119.464 90.3791 119.557 90.974C119.629 91.5581 119.598 92.1501 119.464 92.7232C119.241 93.6911 118.869 94.6025 119.371 94.789C120.655 95.1987 121.903 94.421 122.181 94.6589C122.739 95.1606 121.865 96.9663 123.186 97.3196C124.527 97.6876 125.848 97.0031 125.848 97.0031L130.723 94.3792L135.412 91.9051L137.812 87.1591L136.525 83.1957L136.279 82.786H136.287Z" fill="#D4B968"/>
<path id="Path_67" fill-rule="evenodd" clip-rule="evenodd" d="M131.687 94.1192C131.687 94.1192 130.867 92.8729 131.873 91.7738C132.879 90.6747 134.311 90.211 134.869 89.5229C134.762 89.3918 134.62 89.295 134.459 89.2444C134.829 88.5815 135.395 88.0483 136.078 87.7172C135.8 87.4388 135.427 87.2155 135.018 87.2155C134.106 87.2155 133.546 87.7737 132.71 87.7737C131.892 87.7737 131.798 87.3639 131.798 87.3639C131.798 87.3639 133.176 87.2339 133.045 86.6194C132.915 85.968 132.677 85.968 132.677 85.968C132.677 85.968 135.337 84.864 135.802 84.2752C136.267 83.6864 136.212 82.9909 136.305 82.7124C136.62 82.7124 138.463 81.7446 139.207 82.1543C139.952 82.564 139.431 83.6803 139.431 83.6803C139.431 83.6803 141.684 81.9862 142.832 80.3253C143.837 80.4186 144.304 79.6372 145.04 79.6372C145.953 79.6372 147.386 80.8835 147.664 83.5441C147.851 85.0701 148.129 85.9447 147.851 88.6434C147.72 90.1693 147.757 93.4274 148.219 95.0441C148.534 96.3284 149.278 96.1984 149.278 96.1984C149.164 96.5898 148.938 96.939 148.627 97.203C148.124 97.6679 148.069 98.8971 148.124 99.362C148.198 99.7019 148.292 100.037 148.404 100.367C148.404 100.367 147.809 101.055 147.659 101.521C147.529 101.986 146.916 102.302 146.468 102.302C146.02 102.302 146.245 102.264 145.65 102.302C145.055 102.34 144.868 102.432 144.496 102.302C144.123 102.172 143.844 102.023 143.994 100.83C144.124 99.6392 139.398 96.8669 139.398 96.8669L131.67 94.1131V94.1131L131.687 94.1192Z" fill="#CCA849"/>
<path id="Path_68" fill-rule="evenodd" clip-rule="evenodd" d="M122.813 105.879C122.813 105.879 124.506 108.131 131.466 108.131C134.778 108.131 135.932 107.815 136.618 107.628C137.362 107.442 140.153 106.345 142.963 103.032C145.494 100.037 144.936 98.8087 144.936 98.8087L143.464 98.5854L138.68 99.2368L124.524 105.266L122.807 105.879H122.813Z" fill="#585136"/>
<path id="Path_69" fill-rule="evenodd" clip-rule="evenodd" d="M128.002 106.437C128.002 106.437 121.973 107.778 121.973 103.963C121.973 100.242 125.694 96.3334 126.625 95.6452C127.593 94.9558 129.901 94.1732 129.901 94.1732H135.465L136.525 96.9835L136.06 103.049L128.002 106.436V106.437Z" fill="#252211"/>
<path id="Path_70" fill-rule="evenodd" clip-rule="evenodd" d="M133.568 95.3103C133.568 95.3103 132.415 94.2492 129.791 95.6783C127.167 97.1073 125.045 100.094 124.915 102.806C124.785 105.206 126.887 106.993 130.163 107.086C132.6 107.178 134.071 106.9 134.815 106.718C134.629 106.495 133.661 105.286 133.661 105.286L133.569 95.3115V95.3115L133.568 95.3103Z" fill="#C3B378"/>
<path id="Path_71" fill-rule="evenodd" clip-rule="evenodd" d="M132.432 95.904C132.432 95.904 132.154 95.6808 131.328 96.1273C130.64 96.4953 129.636 97.468 128.854 98.1562C128.351 98.5659 128.035 98.7511 127.75 99.0676C126.596 100.445 125.628 102.697 126.187 103.814C126.747 104.93 128.588 106.214 133.278 105.34L132.419 95.9053V95.9053L132.432 95.904Z" fill="#E6D89C"/>
<path id="Path_72" fill-rule="evenodd" clip-rule="evenodd" d="M130.908 98.2126C130.908 98.2126 130.163 99.3668 130.163 101.209C130.163 103.089 131.224 106.084 135.132 106.307C138.128 106.494 140.137 101.991 142.314 100.241C143.97 98.9019 144.975 98.8639 144.975 98.8639C144.975 98.8639 143.282 97.0239 138.761 94.6405C134.294 92.2399 129.288 91.9234 126.571 95.6083C127.856 95.5151 132.005 94.454 132.005 94.454L134.034 95.1054L130.908 98.2138V98.2138V98.2126Z" fill="#252211"/>
<path id="Shape_5" fill-rule="evenodd" clip-rule="evenodd" d="M137.018 100.65C136.853 100.372 136.735 99.9986 137.421 99.9066C138.107 99.8146 138.415 99.8686 138.652 100.275C138.889 100.681 139.12 101.019 138.769 101.187C138.415 101.336 137.491 101.187 137.017 100.648L137.018 100.65ZM135.908 98.0262C135.908 98.0262 135.67 98.1562 135.789 97.8961C135.836 97.5809 136.145 97.0215 136.901 97.1528C137.658 97.284 137.494 97.9342 137.369 98.1206C137.245 98.3071 136.613 98.6223 136.139 98.4886C136.017 98.4641 135.917 98.3953 135.87 98.3035C135.823 98.2116 135.835 98.1077 135.901 98.0237L135.908 98.0262Z" fill="#6F674D"/>
<path id="Path_73" fill-rule="evenodd" clip-rule="evenodd" d="M85.5049 99.216C85.5049 99.216 86.9769 100.32 88.6869 100.277C90.3797 100.239 92.557 98.491 93.5616 97.3735C94.1566 96.7222 94.6656 96.034 95.2176 95.4943C95.6838 95.0294 95.999 94.8061 96.2223 94.4896C96.5387 94.1216 96.8736 93.4298 97.0417 93.2053C96.632 93.5218 96.037 94.0812 95.4225 94.4528C94.8275 94.8208 93.5432 95.5127 93.0219 95.6991C92.5202 95.8856 87.3093 98.6431 87.3093 98.6431L85.5049 99.216V99.216Z" fill="#AC924C"/>
<path id="Path_74" fill-rule="evenodd" clip-rule="evenodd" d="M87.7539 85.4663C87.7539 85.4663 88.5721 84.9081 90.1545 84.5536C91.6805 84.1856 94.7508 83.9023 94.7508 83.9023L97.2814 85.0063L98.2861 88.8212L96.4461 92.7858L94.1019 94.2578L91.44 89.978L87.76 85.4736V85.4736L87.7539 85.4663Z" fill="#9F8E57"/>
<path id="Path_75" fill-rule="evenodd" clip-rule="evenodd" d="M84.4403 88.8715L83.5645 89.5254C83.5645 89.5254 83.7889 89.1157 83.9742 87.8694C84.1594 86.6231 85.1285 83.5895 86.5428 81.8403C87.9571 80.0911 87.9203 80.1843 87.9203 80.1843C87.6571 80.1361 87.3858 80.2036 87.1758 80.3695C87.3622 79.9574 88.5533 78.4854 89.7444 77.7494C90.9355 77.0134 91.4004 76.7815 92.6467 77.3814C93.893 77.9812 94.2095 78.2928 95.1221 78.256C96.0347 78.2192 96.8149 77.2513 96.8149 77.2513C96.8149 77.2513 97.0014 77.8463 96.3132 79.2238C95.625 80.6014 92.908 83.4104 92.908 83.4104L87.2506 87.2806L84.4403 88.8752V88.8752V88.8715Z" fill="#EAC970"/>
<path id="Path_76" fill-rule="evenodd" clip-rule="evenodd" d="M88.627 85.0014C88.627 85.0014 92.7216 85.5595 93.9679 84.4065C94.0047 84.5365 94.1543 84.5365 94.1543 84.6297C94.1443 84.7 94.1116 84.765 94.0611 84.8149C94.1967 84.7933 94.3336 84.781 94.4708 84.7781C94.6347 84.8269 94.8033 84.8582 94.9737 84.8714C95.111 84.8684 95.248 84.8557 95.3835 84.8333C95.3573 85.0202 95.2564 85.1885 95.1038 85.2995C95.2902 85.2995 95.4718 85.3363 95.4718 85.4847C95.4718 85.6331 95.5086 86.0809 95.2853 86.1741C95.1004 86.2252 94.9035 86.2118 94.7272 86.1361C94.7419 86.4884 94.8376 86.8326 95.0069 87.1419C95.3749 87.8301 96.1599 88.6139 97.2149 88.3882C97.2149 88.3882 97.7718 89.7277 95.4276 92.7049C95.1124 93.1146 94.7763 93.6727 94.3678 94.1376C94.2064 94.4894 94.083 94.8575 93.9998 95.2355C93.9998 95.2355 97.9644 93.7095 99.099 90.2295C100.253 86.731 100.477 83.289 100.253 80.0702C100.215 79.1576 100.067 78.5074 99.8436 78.0413C99.2855 76.887 97.7215 77.0735 97.0897 77.7248C96.1771 78.6375 94.6511 80.9068 92.5302 82.4696C90.3713 84.0323 90.2793 84.3096 88.6221 85.0014V85.0014H88.627Z" fill="#D7BC6B"/>
<path id="Path_77" fill-rule="evenodd" clip-rule="evenodd" d="M83.7177 90.0258C83.7177 90.0258 82.9363 90.4907 82.5266 92.2338C82.1169 94.0198 82.8946 96.1971 83.3448 96.8853C83.795 97.5735 84.8168 99.4539 86.9365 99.5472C87.4611 99.5444 87.98 99.4368 88.4624 99.2307C89.2024 98.8914 89.8965 98.4599 90.5282 97.9464C91.4408 97.2582 92.1842 96.6633 92.0909 96.6068C91.8677 96.5136 86.4716 92.0473 86.4716 92.0473L84.4427 89.7829L83.7165 90.0282L83.7177 90.0258Z" fill="#585136"/>
<path id="Path_78" fill-rule="evenodd" clip-rule="evenodd" d="M88.8157 97.4312C88.8157 97.4312 89.9136 97.3392 90.5649 96.9295C91.2163 96.5198 86.75 92.0916 86.75 92.0916L87.0665 96.8756L88.8157 97.4312Z" fill="#453A25"/>
<path id="Path_79" fill-rule="evenodd" clip-rule="evenodd" d="M84.0697 89.6897C84.0697 89.6897 83.5116 90.7507 83.5116 91.0304C83.4184 91.9418 83.698 94.8073 83.9213 95.7187C84.1445 96.6866 85.354 98.1561 86.918 98.1561C87.8847 98.1561 89.2254 97.5612 89.2254 97.4127C89.2254 97.2263 87.8479 97.0447 87.4762 96.3517C87.2529 95.9837 87.1597 95.0686 87.1082 94.1437C87.0714 93.5487 87.0714 92.8974 87.2946 92.6717C87.7976 92.1135 87.8896 90.5127 87.8896 90.5127L89.6756 87.1946H87.3265L84.5162 88.9438L84.0697 89.6897Z" fill="#84754B"/>
<path id="Path_80" fill-rule="evenodd" clip-rule="evenodd" d="M83.3809 90.7141C83.3809 90.7141 85.2209 88.2767 86.8793 87.7173C88.5378 87.158 89.2799 87.4941 89.2799 87.4941L88.3121 89.9695L86.9345 91.4955L87.0277 92.2768C87.0277 92.2768 86.8033 94.3426 88.1808 95.7753C89.5584 97.208 90.5814 97.1528 91.1776 97.1528C91.7737 97.1528 93.4849 96.6499 94.3595 94.5842C95.1409 92.6498 95.7923 90.1682 94.2295 87.6805C92.7023 85.2051 90.0049 85.1094 89.4835 85.1094C88.9622 85.1094 84.8688 85.3143 83.3809 90.7104V90.7104V90.7141Z" fill="#252211"/>
<path id="Path_81" fill-rule="evenodd" clip-rule="evenodd" d="M130.627 98.994C129.939 98.6775 130.59 96.743 131.278 96.1469C131.966 95.5507 132.841 94.8638 134.368 94.7693C134.925 94.7325 135.465 95.0858 135.373 95.4587C135.243 96.1469 134.275 97.1147 133.4 97.8029C132.191 98.7523 131.408 99.3473 130.627 98.994Z" fill="#F7F7E7"/>
<path id="Path_82" fill-rule="evenodd" clip-rule="evenodd" d="M93.4098 88.4434C93.9128 88.4066 94.5641 88.8114 94.6942 89.3561C94.8242 89.951 94.3777 91.1421 93.4098 91.1421C92.6285 91.1421 92.2188 90.1742 92.2188 89.8958C92.2276 89.6668 92.2915 89.4434 92.4052 89.2444C92.442 89.188 92.5352 88.5367 93.4098 88.4434V88.4434Z" fill="#F8F6DE"/>
<path id="Path_83" fill-rule="evenodd" clip-rule="evenodd" d="M86.1533 88.8715C86.1533 88.8715 84.8689 89.4664 84.274 90.7115C83.8489 91.6309 83.7203 92.6597 83.906 93.6555C83.9992 94.1204 84.4641 95.2735 84.7806 95.6832C85.0971 96.0929 85.5252 96.3726 85.8417 96.3345C86.1582 96.2965 86.8083 95.4599 86.8083 94.9582C86.8083 94.4565 86.8463 92.3344 87.4597 91.1801C87.9994 90.027 86.1569 88.8727 86.1569 88.8727V88.8727L86.1533 88.8715Z" fill="#D4C38B"/>
<path id="Path_84" fill-rule="evenodd" clip-rule="evenodd" d="M86.3396 88.7783C86.1163 88.9083 85.7446 89.0948 85.8366 89.3364C85.9298 89.5597 86.7112 89.7044 86.9909 90.2491C87.3074 90.8072 87.3074 91.4021 87.2142 91.6818C87.4572 91.5663 87.6778 91.4085 87.8655 91.2157C88.2752 90.7508 88.7769 90.119 89.205 90.119C89.4847 90.119 89.7632 90.2491 90.0245 90.2491C90.4342 90.2491 90.8426 90.119 90.8991 89.6909C90.9911 89.1328 90.1177 88.6299 89.6148 88.7231C89.708 88.3551 89.838 87.8117 89.4283 87.4388C89.0186 87.0659 87.7355 87.7184 87.4558 87.9049C87.1761 88.0913 86.3396 88.7795 86.3396 88.7795V88.7795V88.7783Z" fill="#E2D59D"/>
<path id="Path_85" fill-rule="evenodd" clip-rule="evenodd" d="M115.909 127.875L118.663 127.061L119.444 127.619C119.444 127.619 120.001 128.811 120.877 128.959C120.597 129.554 119.871 130.063 119.909 130.485C119.947 130.907 120.319 131.23 120.319 131.23C120.319 131.23 117.843 135.323 122.719 139.448C121.565 139.913 120.096 140.552 119.314 140.92C119.871 141.05 121.062 141.288 121.565 141.74C122.068 142.191 122.068 142.335 122.533 142.614C122.998 142.894 123.276 143.266 123.184 143.432C122.868 143.246 121.807 142.689 121.622 143.209C121.436 143.729 117.025 143.526 117.025 143.526L109.582 144.958C109.582 144.958 109.86 144.214 109.079 143.526C108.168 142.707 107.051 143.562 105.86 142.651C104.297 141.46 104.241 140.082 103.739 139.562C104.241 139.246 105.265 138.781 107.703 138.458C107.609 138.272 107.293 137.714 107.479 137.212C107.703 136.561 108.632 136.151 108.354 135.372C108.764 135.279 108.949 135.279 109.973 133.994C110.941 132.71 111.536 132.432 112.281 132.338C113.025 132.245 113.472 132.338 114.849 131.054C115.816 130.143 115.501 129.361 115.501 129.361C115.501 129.361 116.132 129.156 115.91 127.872V127.872L115.909 127.875Z" fill="#CBAC5A"/>
<path id="Path_86" fill-rule="evenodd" clip-rule="evenodd" d="M107.777 128.288C107.814 128.102 107.964 128.008 108.968 128.102C109.973 128.195 116.337 127.507 118.068 127.413C119.817 127.283 125.976 127.375 128.973 128.008C131.97 128.641 135.002 129.386 136.471 129.758C137.943 130.167 138.407 130.314 138.351 130.501C138.314 130.687 137.983 130.869 137.793 130.817C137.607 130.781 132.731 129.291 131.225 128.977C129.719 128.663 124.507 127.823 121.657 127.873C118.996 127.911 117.935 127.837 115.684 128.097C113.432 128.376 109.71 128.748 108.594 128.6C107.49 128.47 107.718 128.47 107.775 128.283V128.283L107.777 128.288Z" fill="#D6BC6F"/>
<path id="Path_87" fill-rule="evenodd" clip-rule="evenodd" d="M122.756 142.873C122.756 142.873 126.57 144.939 127.948 147.469C128.953 149.349 127.353 150.28 127.353 150.28C127.353 150.28 129.512 150.28 129.232 151.471C129.102 152.214 125.511 154.223 123.11 155.284C120.673 156.346 120.766 156.29 119.575 156.476C118.42 156.662 115.257 156.108 114.606 157.034C113.954 157.96 114.238 158.914 114.419 159.063C114.606 159.193 116.113 159.379 116.113 159.379C116.113 159.379 115.797 160.254 112.671 160.347C109.546 160.44 108.763 160.662 108.576 160.998C108.39 161.314 109.171 161.128 110.605 161.366C112.038 161.59 114.047 161.734 114.047 161.734C114.047 161.734 113.396 162.292 111.703 162.739C109.768 163.241 106.734 163.707 105.823 164.265C106.288 164.581 106.977 165.046 107.295 165.083C106.513 165.27 105.414 165.679 105.229 165.828C105.507 166.014 105.88 166.237 105.88 166.237C105.88 166.237 104.316 168.117 103.405 168.583C102.493 169.049 97.2457 171.485 95.4401 171.02C90.937 169.829 90.3789 164.898 89.281 164.526C87.625 163.968 86.8436 165.083 85.3728 164.302C86.0242 163.837 86.3787 163.558 87.0669 163.242C86.3223 162.874 82.4705 160.432 82.4705 160.432C82.0678 159.554 81.6207 158.697 81.131 157.864C80.3864 156.58 79.291 154.867 78.4692 153.36C76.6831 150.048 76.5899 148.522 74.9707 146.643C75.2504 146.275 76.217 146.326 76.217 146.326L89.7839 150.792L113.84 151.489L120.096 142.558L122.757 142.874L122.756 142.873Z" fill="#DFC677"/>
<path id="Path_88" fill-rule="evenodd" clip-rule="evenodd" d="M87.1221 156.494C87.2672 156.656 87.4365 156.794 87.6238 156.904C88.0899 157.22 88.7781 157.593 89.243 158.15C89.4294 157.872 89.8943 157.369 90.715 158.15C91.5356 158.931 92.555 158.374 93.1892 158.56C93.8405 158.784 93.8773 158.876 93.8773 158.876C93.8773 158.876 94.2453 158.56 95.0684 158.225C95.5714 158.038 96.1663 157.908 96.8176 157.723C97.4126 157.593 98.0639 157.407 98.5117 157.407C98.9214 157.685 100.391 159.247 106.29 156.942C111.854 154.783 113.137 154.541 114.068 154.875C114.161 154.652 114.255 154.223 115.687 154.28C115.687 153.685 114.496 151.656 114.496 151.656L107.928 149.405H104.335L93.5608 151.378L87.5907 154.784L87.1258 156.501L87.1221 156.494Z" fill="#C4A859"/>
<path id="Path_89" fill-rule="evenodd" clip-rule="evenodd" d="M83.5303 152.717C83.5303 152.717 83.6603 153.722 85.1495 154.783C86.6215 155.843 87.0839 156.476 87.0839 156.476C87.0839 156.476 87.3636 156.108 87.5869 155.732C87.8101 155.322 87.9966 154.858 88.3682 154.728C89.1128 154.411 90.8056 155.006 91.1785 154.913C91.495 154.821 91.4018 154.169 91.7367 154.169C92.5181 154.131 93.0198 154.671 93.2994 154.671C93.5791 154.671 94.2661 154.634 94.3593 154.486C94.4525 154.337 94.4893 152.792 95.5504 152.047C96.7047 151.229 98.119 151.582 98.4944 151.769C98.4944 152.047 98.5312 152.737 99.2758 152.773C100.02 152.81 100.094 152.68 100.748 152.903C101.402 153.127 102.181 152.867 102.534 153.963C102.85 153.871 103.595 153.778 103.408 152.717C103.776 152.439 104.098 152.252 104.88 151.154C105.067 150.876 105.382 150.559 105.625 150.15C106.276 150.15 107.058 150.02 108.099 150.931C107.783 151.154 107.596 151.299 107.504 151.526C107.777 151.796 108.025 152.088 108.248 152.401C108.527 152.769 108.714 153.22 109.067 153.313C109.848 153.536 111.133 153.22 112.565 153.313C113.943 153.406 115.096 153.908 115.599 154.225C115.785 154.133 115.785 154.095 116.25 154.188C116.715 154.281 117.069 154.318 116.567 153.723C116.845 153.853 117.162 154.133 117.441 153.853C117.721 153.573 117.943 153.165 118.725 153.072C119.506 152.978 119.786 153.108 120.102 152.29C120.512 151.286 119.097 151.286 119.097 151.286C119.097 151.286 119.749 150.689 120.475 149.908C121.35 149.09 122.354 148.029 122.596 146.726C123.006 144.325 120.661 144.01 120.661 144.01L109.291 147.509L95.3909 146.819L83.5376 152.718V152.718L83.5303 152.717Z" fill="#927D49"/>
<path id="Path_90" fill-rule="evenodd" clip-rule="evenodd" d="M73.3141 119.873C73.3141 119.873 72.9461 120.338 72.7191 121.436C72.4922 122.534 72.5891 122.404 72.4027 123.185C72.2162 123.966 69.926 131.745 70.7847 134.369C71.6434 136.992 73.1301 137.96 74.0599 140.081C74.2463 140.546 74.4279 140.826 74.5248 141.235C74.8413 142.612 74.5628 143.673 74.9345 145.05C75.0645 145.515 75.4006 146.055 75.9023 146.613C77.0063 147.766 78.8059 148.864 79.5823 149.646C80.679 150.8 82.243 153.145 84.2339 153.367C85.2949 153.497 86.8025 153.051 88.0488 152.307C89.1528 151.618 89.8348 150.651 90.9928 150.099C91.811 149.69 92.6856 149.541 93.467 149.355C95.0862 149.038 96.557 148.987 97.4316 149.168C98.7711 149.448 101.935 150.416 103.688 150.416C105.057 150.394 106.419 150.206 107.744 149.858C110.405 149.076 113.624 147.736 115.746 147.141C116.992 146.773 117.997 146.676 119.021 146.453C120.77 146.043 122.24 145.485 123.077 144.424C122.519 143.772 121.831 142.768 118.108 142.804C113.885 142.898 109.009 145.242 106.608 145.615C104.208 145.988 103.166 146.303 100.486 145.335C97.8584 144.357 97.7714 143.711 97.7714 143.711C97.7714 143.711 95.0126 141.781 93.8583 136.862C92.704 131.943 93.8583 128.359 96.855 124.953C97.6364 124.078 97.45 123.297 97.45 123.297C97.45 123.297 99.4224 120.636 98.8827 118.145C98.2878 115.669 94.4728 116.172 94.4728 116.172L73.3153 119.873V119.873H73.3141Z" fill="#6E6342"/>
<path id="Path_91" fill-rule="evenodd" clip-rule="evenodd" d="M76.4973 128.154C76.3332 128.463 76.2561 128.81 76.274 129.159C76.3108 129.661 76.4605 130.312 77.9668 131.783C79.2512 133.066 78.9715 134.499 78.9715 134.499C78.9715 134.499 79.6179 134.629 81.3721 133.808C82.7496 133.157 83.2121 134.311 83.2121 134.311C83.6131 134.101 84.0477 133.962 84.4964 133.901C84.9029 133.864 85.2964 133.738 85.6495 133.533C85.6495 133.533 87.2687 135.189 88.683 135.971C89.9673 136.66 90.7119 137.125 91.3449 136.66C91.9398 136.25 91.9398 135.412 91.9018 135.041C91.7542 134.698 91.5673 134.373 91.3449 134.073C90.9352 133.478 90.2838 132.789 90.2409 132.233C90.1476 130.95 91.2087 129.423 90.9842 129.051C90.7597 128.679 89.9244 128.586 87.8587 129.331C85.7194 130.037 76.4887 128.158 76.4887 128.158V128.158L76.4973 128.154Z" fill="#39331F"/>
<path id="Path_92" fill-rule="evenodd" clip-rule="evenodd" d="M81.3717 136.472C81.3717 136.472 80.3119 135.468 80.6835 130.592C81.1335 130.585 81.5828 130.629 82.0231 130.722C82.0231 130.722 82.6008 134.5 81.3717 136.472Z" fill="#292311"/>
<path id="Path_93" fill-rule="evenodd" clip-rule="evenodd" d="M73.8178 116.151C73.9657 116.042 74.1029 115.919 74.2275 115.783C73.8595 116.472 72.1606 119.225 73.5381 123.562C74.9157 127.878 78.3761 131.097 82.6375 131.247C86.899 131.396 89.1389 129.311 91.7001 126.186C92.7048 124.939 93.8591 123.375 94.8821 122.315C96.4081 120.658 97.5992 120.193 97.5992 118.594C97.5992 115.318 94.2492 113.848 89.318 112.378C84.3868 110.909 79.9389 111.09 77.6315 112.096C75.3806 113.193 74.4127 114.347 73.8166 116.153V116.153L73.8178 116.151Z" fill="#252211"/>
<path id="Path_94" fill-rule="evenodd" clip-rule="evenodd" d="M89.6521 137.942L90.0201 137.755C90.0201 137.755 90.1121 136.283 90.7083 136.323C91.3032 136.416 91.5829 137.199 91.5265 137.477C91.4897 137.755 91.3412 138.222 90.7451 138.165C89.9637 138.184 89.6484 137.942 89.6484 137.942H89.6521Z" fill="#3F3824"/>
<path id="Path_95" fill-rule="evenodd" clip-rule="evenodd" d="M87.9951 131.69C87.9951 131.69 88.3631 131.56 88.8133 132.006C89.1813 132.006 90.7858 131.82 91.2887 132.136C91.7917 132.453 91.9401 132.731 91.9401 132.731C91.9401 132.731 90.0608 133.141 89.0366 132.731C87.9951 132.378 87.9951 131.69 87.9951 131.69H87.9951Z" fill="#2D2815"/>
<path id="Path_96" fill-rule="evenodd" clip-rule="evenodd" d="M96.2787 131.968C96.2787 131.875 95.2741 131.187 94.213 130.962C94.0265 130.925 93.9885 131.055 93.845 131.055C93.7518 131.019 93.715 130.739 93.715 130.739L93.1114 131.057C93.1114 131.057 93.0182 131.187 93.3347 131.425C93.6132 131.648 94.0793 131.834 94.2093 132.206C94.3393 132.578 94.3393 132.708 94.3958 132.764C94.4326 132.801 95.0839 132.764 95.4004 132.578C95.7169 132.391 96.313 132.087 96.275 131.964V131.964L96.2787 131.968Z" fill="#82764F"/>
<path id="Path_97" fill-rule="evenodd" clip-rule="evenodd" d="M86.8809 135.746C86.8809 135.746 87.0661 134.463 88.3136 134.407C89.5967 134.313 89.8396 135.56 89.8396 135.56L89.095 136.304C89.095 136.286 88.5369 135.504 86.887 135.746H86.8809Z" fill="#2D2816"/>
<path id="Path_98" fill-rule="evenodd" clip-rule="evenodd" d="M94.9746 130.219C94.9746 130.219 94.2852 130.963 92.7605 131.187C92.6304 131 92.3508 130.629 92.7605 130.034C93.1702 129.439 93.6351 129.252 94.1 129.437C94.5188 129.505 94.8601 129.81 94.9746 130.219Z" fill="#574F35"/>
<path id="Shape_6" fill-rule="evenodd" clip-rule="evenodd" d="M97.784 131.367C97.822 131.162 97.692 131.121 97.784 131.018C97.876 130.915 98.3802 130.711 98.4734 130.813C98.5102 130.855 98.4734 131.018 98.4734 131.219C98.4734 131.419 98.4734 131.624 98.3802 131.772C98.2501 131.978 97.8785 132.08 97.692 132.02C97.5056 131.959 97.4688 131.67 97.4688 131.614C97.5608 131.573 97.784 131.47 97.784 131.367ZM100.959 129.151C100.959 129.048 101.275 128.842 101.462 128.842C101.74 128.842 101.74 129.089 101.778 129.151C101.87 129.192 101.87 129.109 101.963 129.294C102.057 129.48 102.188 129.807 102.093 130.013C101.999 130.219 101.629 130.361 101.537 130.32C101.406 130.217 100.997 129.294 100.959 129.151V129.151Z" fill="#82764F"/>
<path id="Path_99" fill-rule="evenodd" clip-rule="evenodd" d="M94.5645 131.56C94.5645 131.56 94.9742 131.652 95.5323 132.118C95.3458 132.248 95.0662 132.396 95.0662 132.396C95.0662 132.396 95.0294 131.968 94.5645 131.558V131.56Z" fill="#6E6342"/>
<path id="Shape_7" fill-rule="evenodd" clip-rule="evenodd" d="M93.6524 127.465C93.5592 127.373 93.9309 127.15 94.1541 127.186C94.3774 127.223 94.4706 127.373 94.7122 127.41C94.9539 127.447 94.9919 127.316 95.0802 127.223C95.1686 127.13 95.49 127.186 95.5452 127.223C95.5795 127.264 95.6107 127.308 95.6384 127.353C95.6463 127.21 95.7134 127.077 95.8236 126.985C95.9682 126.879 96.1535 126.845 96.3265 126.892C96.3633 127.022 96.5498 127.487 96.513 127.58C96.4762 127.673 95.9181 127.805 95.8236 127.71C95.9168 127.935 96.3265 128.4 96.3817 128.492C96.4369 128.584 95.972 128.808 95.7868 128.771C95.5268 128.753 93.926 127.822 93.6475 127.469L93.6524 127.465ZM96.0893 124.376C96.0549 124.282 95.989 124.204 95.9029 124.153C95.7728 124.116 95.3447 124.153 95.3447 124.376C95.3447 124.599 95.7127 125.848 96.1261 126.498C96.5922 127.15 96.9075 127.688 97.224 127.838C97.4301 127.932 97.6738 127.85 97.7821 127.651C97.8189 127.558 97.9121 126.87 97.8753 125.251C97.8385 123.632 97.7821 122.069 97.6889 121.976C97.5957 121.882 97.224 121.884 97.094 122.069C96.9639 122.254 96.1261 124.098 96.0881 124.376V124.376H96.0893Z" fill="#585136"/>
<path id="Path_100" fill-rule="evenodd" clip-rule="evenodd" d="M94.4357 133.904C94.4357 133.904 93.7843 133.494 93.1514 133.774C92.5564 134.053 92.5932 135.151 92.5932 135.151C92.865 135.258 93.1717 135.223 93.4126 135.058C93.8223 134.78 94.3424 134.315 94.4357 133.905V133.904Z" fill="#574F35"/>
<path id="Shape_8" fill-rule="evenodd" clip-rule="evenodd" d="M95.6629 135.374C95.6261 135.006 95.2949 135.006 95.2949 134.816C95.3419 134.629 95.5106 134.499 95.7034 134.5C95.8899 134.5 96.0714 134.723 96.2996 134.868C96.5228 134.998 96.8577 135.236 96.8945 135.519C96.9313 135.803 96.5265 136.579 96.0763 136.579C95.6261 136.579 95.7598 135.741 95.6666 135.37L95.6629 135.374ZM99.2526 134.871C99.2526 134.871 98.508 135.095 98.5632 134.871C98.6184 134.648 98.7877 134.593 99.0294 134.593C99.1522 134.464 99.3173 134.385 99.4943 134.369C99.5955 134.364 99.6949 134.397 99.7727 134.462C99.7727 134.462 100.276 134.238 100.424 134.369C100.573 134.499 100.462 134.499 100.554 134.648C100.671 134.814 100.748 135.005 100.779 135.206C100.779 135.355 100.22 135.671 99.7727 135.616C99.2526 135.504 99.3446 134.965 99.2526 134.871V134.871ZM103.59 134.034C103.59 134.034 103.814 134.164 103.628 134.313C103.498 134.443 102.847 134.681 102.288 134.723C101.73 134.723 101.228 134.815 101.228 134.63C101.228 134.445 101.693 134.072 101.971 133.978C102.084 133.837 102.256 133.754 102.437 133.755C102.661 133.755 103.534 133.662 103.777 133.625C104 133.587 104.187 133.717 104.055 133.904C104 134.034 103.59 134.034 103.59 134.034V134.034ZM104.874 128.288C104.874 128.288 104.594 128.883 104.279 128.883C103.963 128.846 103.963 128.753 103.963 128.66C103.963 128.53 104.279 128.195 104.241 128.101C104.149 128.101 103.925 128.101 103.963 127.878C103.963 127.692 104.279 127.469 104.558 127.51C104.768 127.337 105.03 127.239 105.302 127.232C105.619 127.232 105.897 127.324 105.897 127.51C105.897 127.697 105.529 128.105 105.394 128.2C105.246 128.348 105.059 128.445 104.874 128.292V128.288ZM100.632 139.285C100.632 139.285 100.264 139.323 100.264 139.508C100.264 139.601 100.356 139.601 100.487 139.546C100.563 139.542 100.638 139.529 100.711 139.508C100.747 139.546 100.747 139.731 101.027 139.731C101.257 139.7 101.478 139.625 101.678 139.508C101.902 139.416 102.088 139.322 102.088 139.14C101.995 138.824 101.809 138.674 101.53 138.674C101.387 138.665 101.245 138.697 101.12 138.767C101.12 138.767 101.027 138.581 100.711 138.767C100.394 138.954 100.431 138.954 100.524 139.047C100.691 139.195 100.636 139.292 100.636 139.292L100.632 139.285ZM98.5269 141.221C98.5269 141.127 98.9918 140.941 99.1218 140.997C99.2519 141.034 99.6235 141.741 99.6235 141.816C99.6235 141.909 99.1586 142.132 98.9722 142.132C98.7857 142.132 98.4705 141.816 98.4705 141.764C98.4705 141.727 98.6937 141.672 98.6937 141.634C98.7489 141.542 98.5269 141.318 98.5269 141.224V141.221ZM97.055 138.504C97.1483 138.467 97.1483 138.374 97.2783 138.28C97.3608 138.226 97.4641 138.212 97.558 138.244C97.6244 138.125 97.7406 138.043 97.8744 138.019C98.0977 137.982 98.2841 138.019 98.2424 138.112C98.2424 138.392 98.4289 138.577 98.4289 138.801C98.4289 139.024 98.2989 139.303 97.834 139.49C97.3691 139.62 96.7361 139.62 96.6429 139.583C96.5496 139.546 96.4564 139.173 96.5496 138.987C96.6429 138.801 96.9029 138.597 97.0526 138.504V138.504H97.055Z" fill="#82764F"/>
<path id="Path_101" fill-rule="evenodd" clip-rule="evenodd" d="M97.6479 138.63C97.6479 138.63 97.3314 138.817 97.3314 138.91C97.3033 139 97.2909 139.094 97.2946 139.188C97.2946 139.243 97.7043 139.151 97.7595 139.095C97.7779 139.058 97.6479 138.727 97.6479 138.63Z" fill="#6E6342"/>
<path id="Path_102" fill-rule="evenodd" clip-rule="evenodd" d="M94.8809 137.755C95.0662 137.793 95.3826 137.755 95.6243 137.849C95.8107 137.942 95.9408 138.128 95.7543 138.352C95.5679 138.575 95.3863 138.91 94.9729 138.853C94.508 138.817 94.0615 138.575 94.0615 138.388C94.0457 138.15 94.1262 137.916 94.2848 137.737C94.4712 137.589 94.5632 137.682 94.8797 137.755V137.755H94.8809Z" fill="#585136"/>
<path id="Path_103" fill-rule="evenodd" clip-rule="evenodd" d="M94.6567 137.942C94.6567 137.942 94.0617 138.407 93.9121 138.631C93.7256 138.855 92.8142 140.008 92.5357 140.249C92.6282 140.086 92.7336 139.931 92.851 139.784C92.483 140.02 92.2071 140.374 92.0696 140.789C91.8464 141.478 93.3171 141.85 94.2837 142.13C95.2504 142.409 95.6245 142.498 95.6245 142.498C95.2686 141.963 94.9631 141.396 94.7119 140.805C94.3439 139.93 94.1537 139.837 94.3954 139.427C94.5818 139.018 94.8615 138.739 94.8615 138.423C94.7499 138.128 94.6567 137.942 94.6567 137.942Z" fill="#574F35"/>
<path id="Path_104" fill-rule="evenodd" clip-rule="evenodd" d="M73.4439 139.413C73.5793 139.438 73.7181 139.438 73.8536 139.413C74.132 139.375 77.0355 138.309 80.0691 138.5C82.34 138.637 84.5909 139.007 86.7863 139.604C90.6012 140.609 95.346 142.6 98.4163 143.735C99.2345 144.051 100.036 144.61 100.624 144.832C102.97 145.745 103.062 145.745 104.439 145.986C106.058 146.21 107.714 145.67 109.445 145.298C111.566 144.832 115.195 144.609 118.377 144.144C119.406 144.001 120.42 143.771 121.41 143.456C121.41 143.456 118.88 145.986 112.813 146.898C110.36 147.27 107.868 147.302 105.407 146.991C103.471 146.805 102.188 146.525 101.221 146.246C100.123 145.93 97.8705 145.092 95.0982 144.406C93.1625 143.903 91.0036 143.532 88.5294 143.067C82.4255 141.949 75.8015 140.666 73.4414 139.42L73.4439 139.413Z" fill="#252211"/>
<path id="Shape_9" fill-rule="evenodd" clip-rule="evenodd" d="M66.5962 127.913C65.1242 129.159 63.5627 130.35 62.0379 131.503L57.4416 135.035C55.8789 136.188 54.3529 137.379 52.7889 138.533C51.2249 139.687 49.6633 140.784 48.0049 141.845C49.4769 140.599 51.0384 139.445 52.6012 138.31C54.164 137.175 55.7844 136.063 57.292 134.912L61.8883 131.376C63.4695 130.223 64.9954 129.031 66.5962 127.915V127.913ZM58.465 140.939C58.465 140.939 60.121 139.561 62.1868 137.627C64.7542 135.227 67.8993 132.156 68.904 131.599L58.4638 140.94L58.465 140.939Z" fill="#CFB66C"/>
<path id="Shape_10" fill-rule="evenodd" clip-rule="evenodd" d="M58.4639 140.937C59.2833 140.119 60.1579 139.319 61.0325 138.537L62.372 137.384C62.7817 137.016 63.2479 136.602 63.6563 136.193C64.4745 135.374 65.2755 134.499 66.0937 133.662C66.4993 133.241 66.928 132.844 67.3781 132.471C67.603 132.272 67.8529 132.103 68.1214 131.968C68.3459 131.838 68.5875 131.6 68.9028 131.558C68.7176 131.838 68.4943 131.968 68.3079 132.21C68.0846 132.396 67.8982 132.619 67.7129 132.805C67.3032 133.214 66.8383 133.586 66.4286 133.959C65.554 134.703 64.6426 135.431 63.768 136.21C62.8934 136.989 62.0752 137.829 61.1993 138.61C60.2511 139.411 59.3765 140.193 58.4639 140.941V140.937ZM69.5934 133.494C69.5934 133.494 63.5276 139.431 62.28 140.398L69.5934 133.494Z" fill="#CFB66C"/>
<path id="Shape_11" fill-rule="evenodd" clip-rule="evenodd" d="M69.5937 133.494C69.048 134.126 68.4629 134.722 67.842 135.28L66.002 137.029C65.407 137.624 64.8477 138.22 64.216 138.815C63.5646 139.373 62.9697 139.919 62.2803 140.434L64.0663 138.685C64.6625 138.09 65.3138 137.589 65.9468 136.992L67.7328 135.243C68.3461 134.63 68.9423 134.034 69.5937 133.494V133.494ZM69.8725 136.713C69.3134 138.273 68.6545 139.796 67.9 141.272C66.3373 144.399 63.9931 148.306 62.9688 150.298L69.8725 136.713Z" fill="#CFB66C"/>
<path id="Path_105" fill-rule="evenodd" clip-rule="evenodd" d="M69.8706 136.714C69.8706 137.402 69.6842 137.998 69.4609 138.593C69.2433 139.189 68.9952 139.772 68.7176 140.342C68.4379 140.901 68.1214 141.497 67.8049 142.036C67.4884 142.576 67.1168 143.133 66.8371 143.692L64.9578 147.004C64.3065 148.108 63.6735 149.219 62.9854 150.28C63.4503 149.089 64.0832 147.972 64.6794 146.874C65.3307 145.77 65.9257 144.666 66.5194 143.524C66.8092 142.955 67.07 142.372 67.3008 141.776C67.5792 141.18 67.8577 140.622 68.0822 140.082C68.3606 139.487 68.5839 138.928 68.8635 138.39C69.1788 137.812 69.4401 137.254 69.8682 136.714H69.8706Z" fill="#CFB66C"/>
<path id="Shape_12" fill-rule="evenodd" clip-rule="evenodd" d="M76.4961 151.973C76.4961 151.973 74.6561 154.41 74.8401 157.499C75.3418 155.881 75.9747 153.405 76.4961 151.973ZM78.2451 154.416C78.2451 154.416 77.5937 161.04 77.054 164.297C77.817 160.532 77.9654 160.849 78.2451 154.416ZM90.4338 164.688C90.4338 164.688 87.6799 172.784 87.6235 175.034C88.2196 172.72 89.3727 167.994 90.4338 164.682V164.688Z" fill="#DEC270"/>
<path id="Path_106" fill-rule="evenodd" clip-rule="evenodd" d="M96.8721 151.472C96.8721 151.472 101.338 158.841 104.688 165.13C103.782 161.965 101.697 156.16 96.8721 151.472Z" fill="#CBAF59"/>
<path id="Path_107" fill-rule="evenodd" clip-rule="evenodd" d="M108.874 162.319C111.326 166.654 113.538 171.121 115.498 175.699C115.126 172.535 114.12 167.121 108.874 162.319Z" fill="#E3C677"/>
<path id="Path_108" fill-rule="evenodd" clip-rule="evenodd" d="M144.157 173.184C144.9 172.719 146.371 170.187 147.655 169.556C148.938 168.904 149.906 168.774 151.06 167.49C152.213 166.149 152.532 165.331 155.061 164.271C158.597 162.744 156.165 160.771 156.165 160.771C156.554 160.389 156.971 160.035 157.411 159.712C158.324 159.023 159.383 158.186 159.291 156.715C159.161 154.241 158.696 150.649 156.668 148.565C158.64 148.155 162.417 147.877 164.764 147.282C167.479 146.592 168.727 145.625 168.727 145.625C168.727 145.625 167.164 142.964 169.695 140.285C172.225 137.606 174.291 136.005 175.817 133.008C174.068 132.785 171.401 131.855 164.595 134.441C164.963 134.614 165.317 134.813 165.657 135.036C165.657 135.036 161.47 136.19 159.944 137.475C157.282 139.725 156.947 141.568 154.063 142.945C151.179 144.323 148.276 143.95 145.877 145.066C143.477 146.183 143.123 147.132 142.247 147.542C142.433 147.765 142.21 148.137 142.563 148.453C142.34 148.77 141.037 150.891 139.716 150.891C139.846 151.394 140.963 151.765 140.963 151.765C140.963 151.765 140.144 152.361 138.06 152.51C139.12 153.614 140.126 154.817 142.898 156.566C142.675 157.031 141.744 157.721 142.117 158.595C142.527 159.47 143.589 160.661 147.829 161.629C145.67 161.721 143.141 162.224 139.733 161.759C136.328 161.349 135.77 161.107 133.668 161.629C133.891 161.852 134.486 161.852 135.007 162.447C134.449 162.484 130.95 162.037 129.759 163.601C128.513 165.219 127.973 167.881 128.067 169.667C127.415 169.984 126.782 170.542 127.099 171.696C127.415 172.85 129.071 173.222 130.132 173.947C131.192 174.728 131.285 175.007 132.291 174.822C133.351 174.598 134.914 173.539 135.826 173.539C136.739 173.539 137.389 174.227 137.389 174.227C137.389 174.227 139.865 173.036 140.106 173.259C140.33 173.482 140.143 174.915 140.385 175.138C140.63 175.306 143.418 173.65 144.163 173.184H144.157Z" fill="#ECD592"/>
</g>
<path id="frame" fill-rule="evenodd" clip-rule="evenodd" d="M23.5 127C23.5 65.4205 73.4205 15.5 135 15.5C196.58 15.5 246.5 65.4205 246.5 127C246.5 188.58 196.58 238.5 135 238.5C73.4205 238.5 23.5 188.58 23.5 127ZM243.5 127C243.5 67.0773 194.923 18.5 135 18.5C75.0773 18.5 26.5 67.0773 26.5 127C26.5 186.923 75.0773 235.5 135 235.5C194.923 235.5 243.5 186.923 243.5 127Z" fill="white"/>
</g>
<defs>
<filter id="filter0_d" x="0" y="0" width="270" height="270" filterUnits="userSpaceOnUse" color-interpolation-filters="sRGB">
<feFlood flood-opacity="0" result="BackgroundImageFix"/>
<feColorMatrix in="SourceAlpha" type="matrix" values="0 0 0 0 0 0 0 0 0 0 0 0 0 0 0 0 0 0 127 0" result="hardAlpha"/>
<feOffset dy="8"/>
<feGaussianBlur stdDeviation="5"/>
<feColorMatrix type="matrix" values="0 0 0 0 0 0 0 0 0 0 0 0 0 0 0 0 0 0 0.2 0"/>
<feBlend mode="normal" in2="BackgroundImageFix" result="effect1_dropShadow"/>
<feBlend mode="normal" in="SourceGraphic" in2="effect1_dropShadow" result="shape"/>
</filter>
<linearGradient id="paint0_linear" x1="10" y1="2" x2="10" y2="252" gradientUnits="userSpaceOnUse">
<stop stop-color="#BA9F33"/>
<stop offset="1" stop-color="#D8C173"/>
</linearGradient>
</defs>
</svg>
